<svg xmlns="http://www.w3.org/2000/svg" viewBox="0 0 1200 760" role="img" aria-label="Map of Togo" data-map-style="journey-atlas-map-v3-clean-background" data-map-projection="local-equirectangular-fit-v1">
<metadata>Target Togo and surrounding national geometry: Natural Earth 1:10m cultural vectors, WGS84, public domain, via LonnyGomes/CountryGeoJSONCollection commit 5120290da88f3f205f74aa55f3c8fa1f19d1bc8b (TGO/GHA/BEN/BFA GeoJSON). Shared JOURNEY ATLAS map-v3 flat-color styling; revised 2026-09-28.</metadata>
<defs>
<linearGradient id="land" x1=".12" y1=".08" x2=".88" y2=".92"><stop offset="0" stop-color="#e2dbad"/><stop offset=".52" stop-color="#d4cc9b"/><stop offset="1" stop-color="#c8bf8a"/></linearGradient>
<linearGradient id="sea" x1="0" y1="0" x2="1" y2="1"><stop offset="0" stop-color="#eaf2f4"/><stop offset=".55" stop-color="#dcebf0"/><stop offset="1" stop-color="#d0e3eb"/></linearGradient>
<filter id="shadow" x="-10%" y="-10%" width="120%" height="120%"><feGaussianBlur in="SourceAlpha" stdDeviation="4" result="b"/><feOffset in="b" dy="3" result="o"/><feColorMatrix in="o" type="matrix" values="0 0 0 0 .12 0 0 0 0 .22 0 0 0 0 .28 0 0 0 .14 0"/><feBlend in="SourceGraphic" mode="normal"/></filter>
</defs>
<rect width="1200" height="760" fill="url(#sea)"/>
<g id="geographic-context" fill="#e4e0ce" fill-rule="evenodd" stroke="#b6bbaf" stroke-width="1" stroke-linejoin="round"><path d="M 493.3,41.6 L 494.3,43.8 L 496.5,45.8 L 499.1,47.3 L 501.5,47.9 L 503.9,47.7 L 508.4,46.5 L 510.8,46.4 L 515.2,48.1 L 517.2,51.2 L 517.6,55.3 L 517.2,60.0 L 516.9,61.6 L 516.0,62.5 L 514.8,63.3 L 513.8,64.4 L 513.2,65.6 L 510.3,78.9 L 510.4,80.2 L 511.1,82.8 L 510.9,84.2 L 509.7,85.2 L 507.1,87.1 L 505.2,89.4 L 504.2,91.7 L 503.5,97.2 L 503.1,99.1 L 502.3,102.4 L 502.2,105.2 L 503.5,107.9 L 504.7,108.9 L 506.1,109.6 L 507.7,110.0 L 510.7,110.4 L 511.6,111.0 L 512.4,111.8 L 513.6,112.6 L 517.7,113.9 L 518.9,114.7 L 519.9,115.9 L 521.5,118.8 L 522.5,120.1 L 529.4,124.5 L 531.5,126.7 L 538.2,139.1 L 538.6,139.6 L 539.6,139.5 L 540.1,138.7 L 540.5,137.8 L 540.8,137.4 L 544.3,138.8 L 545.5,139.0 L 547.0,138.6 L 548.2,138.0 L 549.4,137.6 L 550.8,137.9 L 552.0,139.2 L 552.1,140.7 L 551.7,142.1 L 551.5,143.2 L 553.0,145.6 L 555.2,147.6 L 556.6,149.7 L 555.4,152.4 L 557.2,152.4 L 563.0,151.4 L 564.2,152.0 L 566.9,154.2 L 563.7,156.6 L 563.1,158.6 L 562.7,160.8 L 561.7,162.6 L 561.9,167.0 L 561.3,176.4 L 562.5,179.8 L 564.2,180.9 L 565.6,181.2 L 566.7,182.1 L 567.1,184.8 L 566.6,187.0 L 566.5,187.4 L 565.1,187.7 L 563.1,187.4 L 560.8,187.8 L 561.5,189.1 L 561.5,190.0 L 561.0,190.8 L 560.8,192.0 L 561.0,192.9 L 562.5,196.0 L 563.4,198.7 L 563.3,199.7 L 562.4,200.6 L 560.8,202.4 L 559.7,204.4 L 559.4,206.2 L 560.0,211.5 L 560.0,213.0 L 557.2,223.3 L 557.4,225.7 L 558.1,227.2 L 559.0,228.2 L 559.9,229.5 L 560.5,231.5 L 560.8,233.9 L 560.4,236.2 L 559.0,237.8 L 556.7,238.1 L 554.5,236.9 L 551.0,233.2 L 549.2,237.0 L 549.2,240.8 L 551.3,243.6 L 555.4,244.0 L 560.7,242.7 L 563.3,243.2 L 564.4,245.9 L 563.5,247.7 L 561.4,248.3 L 559.0,247.9 L 557.2,246.8 L 554.9,248.3 L 551.7,248.5 L 545.1,247.7 L 544.8,248.6 L 544.2,252.3 L 544.2,253.1 L 544.6,253.5 L 545.5,254.4 L 546.8,255.3 L 548.2,255.9 L 551.5,255.2 L 553.4,255.3 L 554.5,256.8 L 554.0,258.1 L 552.3,259.3 L 550.3,260.1 L 544.9,261.2 L 544.8,263.1 L 545.8,265.2 L 544.7,266.7 L 545.3,268.5 L 547.7,268.7 L 550.1,268.2 L 556.1,266.1 L 557.1,265.3 L 557.6,264.2 L 558.0,261.5 L 558.7,260.5 L 560.7,259.6 L 563.6,259.1 L 568.8,258.8 L 571.3,259.2 L 578.2,261.7 L 579.1,262.9 L 579.3,264.2 L 579.0,265.5 L 578.1,267.0 L 578.1,267.1 L 578.1,267.3 L 578.2,267.4 L 582.1,268.7 L 584.5,270.8 L 585.3,273.9 L 584.1,280.6 L 583.9,284.5 L 583.3,286.1 L 582.0,287.5 L 580.5,288.4 L 579.5,289.6 L 579.3,292.3 L 581.0,297.0 L 581.0,299.1 L 579.4,301.8 L 576.5,304.4 L 575.6,305.7 L 575.7,307.8 L 575.0,312.0 L 572.8,316.1 L 571.4,320.2 L 573.2,324.3 L 573.2,324.3 L 573.2,324.3 L 579.5,335.0 L 581.1,341.5 L 578.3,345.6 L 578.2,345.7 L 577.6,347.3 L 577.4,349.4 L 576.9,351.1 L 575.5,351.8 L 573.8,351.5 L 572.5,351.1 L 571.3,351.0 L 569.9,351.4 L 570.6,351.9 L 569.7,354.1 L 568.3,355.7 L 566.9,352.7 L 565.4,352.1 L 563.8,352.4 L 562.9,353.7 L 563.2,355.4 L 564.0,360.2 L 567.8,368.5 L 573.0,375.8 L 578.2,379.4 L 580.5,382.0 L 583.6,384.9 L 587.0,387.4 L 595.6,391.4 L 597.9,396.3 L 599.6,401.3 L 604.6,405.4 L 604.9,406.8 L 604.8,408.3 L 605.1,410.3 L 605.0,411.6 L 605.1,412.2 L 605.6,412.7 L 607.2,412.9 L 607.7,413.4 L 608.2,416.6 L 607.2,418.6 L 605.1,419.9 L 599.4,422.5 L 597.2,424.0 L 592.8,427.9 L 591.7,428.4 L 590.7,428.5 L 590.0,429.0 L 589.9,430.8 L 590.4,432.1 L 591.5,433.1 L 592.4,434.3 L 592.6,436.1 L 591.9,437.8 L 590.8,438.6 L 590.2,439.5 L 590.9,442.8 L 591.4,449.0 L 592.6,453.9 L 592.6,456.5 L 592.5,461.4 L 593.8,470.1 L 593.9,470.8 L 593.8,478.7 L 595.0,486.2 L 594.7,493.1 L 595.1,495.7 L 591.3,495.1 L 589.6,497.8 L 589.2,501.9 L 589.2,505.5 L 588.5,507.2 L 586.7,508.2 L 584.6,508.7 L 582.9,509.5 L 581.6,510.8 L 580.8,512.2 L 580.3,513.8 L 579.8,521.5 L 580.5,528.0 L 582.6,533.8 L 586.7,537.5 L 589.1,537.8 L 591.7,537.4 L 596.5,535.6 L 597.3,536.7 L 599.4,545.4 L 599.3,548.3 L 597.5,553.1 L 596.3,559.2 L 593.2,567.2 L 592.7,572.3 L 593.3,578.3 L 593.2,584.1 L 590.7,588.6 L 589.0,589.5 L 583.5,591.0 L 581.6,591.1 L 579.7,591.7 L 581.2,593.7 L 584.9,596.6 L 586.4,599.4 L 586.1,601.7 L 583.4,606.3 L 582.5,609.1 L 582.9,610.3 L 584.2,611.1 L 585.8,612.3 L 589.5,619.4 L 590.4,620.6 L 592.7,621.1 L 594.9,622.3 L 596.8,624.2 L 597.9,626.3 L 598.1,628.4 L 596.9,635.1 L 597.7,637.9 L 599.4,639.5 L 601.2,640.8 L 602.4,642.9 L 603.6,643.0 L 607.3,642.9 L 608.4,643.2 L 610.1,644.8 L 610.0,646.1 L 609.1,647.3 L 608.3,649.0 L 608.2,649.8 L 608.1,652.5 L 608.9,655.7 L 610.4,658.9 L 612.5,662.1 L 615.3,664.9 L 621.7,668.1 L 625.0,670.2 L 629.3,675.4 L 630.9,676.7 L 633.6,677.4 L 643.6,677.4 L 647.0,688.0 L 649.0,691.0 L 650.1,691.7 L 651.0,692.1 L 652.0,692.7 L 653.0,693.8 L 654.7,696.5 L 656.2,698.2 L 658.0,699.1 L 668.8,700.3 L 670.3,702.4 L 670.0,707.1 L 669.9,707.1 L 669.1,707.4 L 663.1,710.6 L 658.7,714.1 L 652.0,721.3 L 650.5,723.6 L 647.3,730.1 L 646.7,732.7 L 646.5,735.4 L 645.1,741.6 L 644.0,744.0 L 639.8,748.0 L 634.6,749.8 L 609.6,752.7 L 562.7,749.2 L 557.1,749.5 L 554.0,750.3 L 552.4,750.9 L 551.8,751.7 L 551.1,752.0 L 547.9,752.2 L 546.9,752.6 L 544.4,754.4 L 535.6,756.8 L 533.6,758.1 L 530.0,761.5 L 524.9,763.0 L 523.1,764.9 L 521.7,767.3 L 519.6,769.5 L 509.2,773.0 L 508.6,773.4 L 506.8,775.1 L 506.1,775.7 L 504.9,776.1 L 502.9,776.3 L 474.8,785.5 L 468.9,786.2 L 468.1,786.6 L 466.5,787.4 L 456.9,795.5 L 455.9,797.0 L 455.2,799.0 L 453.4,800.9 L 448.7,803.8 L 439.6,806.0 L 438.0,806.1 L 437.1,807.0 L 434.9,808.6 L 432.8,809.3 L 431.7,807.5 L 424.9,812.2 L 423.3,812.9 L 415.6,819.2 L 412.5,822.9 L 410.5,824.1 L 400.8,825.6 L 397.8,825.4 L 395.9,823.7 L 395.0,824.8 L 393.8,825.3 L 390.6,825.5 L 387.4,826.3 L 385.9,826.2 L 385.2,825.1 L 384.7,823.9 L 383.7,824.2 L 382.1,825.5 L 379.9,825.7 L 377.8,826.3 L 364.2,832.2 L 362.8,834.1 L 361.7,835.3 L 359.0,836.8 L 353.8,839.2 L 351.1,839.8 L 342.6,840.0 L 341.2,840.4 L 338.2,842.2 L 336.8,842.8 L 335.5,842.9 L 332.8,842.8 L 331.4,842.8 L 329.0,843.6 L 324.3,845.9 L 315.2,847.3 L 312.2,848.4 L 310.0,850.0 L 309.9,850.0 L 308.0,849.2 L 305.7,849.0 L 303.5,849.6 L 301.9,850.9 L 301.7,851.9 L 302.6,853.9 L 302.3,855.0 L 301.5,855.9 L 300.9,856.4 L 292.0,860.9 L 290.4,862.1 L 286.6,866.3 L 286.3,867.2 L 286.6,868.1 L 286.5,868.8 L 285.4,869.0 L 284.1,869.1 L 275.2,871.7 L 265.1,876.2 L 263.1,878.1 L 259.9,882.6 L 257.9,884.5 L 256.1,885.2 L 247.1,886.4 L 245.3,887.1 L 241.8,887.3 L 241.0,887.1 L 240.1,886.2 L 239.7,884.9 L 239.9,883.4 L 239.5,882.2 L 237.8,881.7 L 236.8,881.6 L 234.8,880.9 L 233.3,880.8 L 233.5,880.2 L 232.3,878.9 L 226.7,874.4 L 223.9,873.2 L 222.7,872.5 L 222.1,871.3 L 221.9,870.3 L 221.3,869.3 L 220.6,868.5 L 207.0,863.1 L 184.9,858.5 L 163.4,851.2 L 146.4,849.9 L 127.5,846.5 L 109.4,840.9 L 107.3,840.4 L 107.9,838.3 L 108.8,838.0 L 110.0,837.6 L 111.5,837.3 L 120.9,837.4 L 123.7,838.2 L 124.5,839.0 L 126.1,841.3 L 126.8,841.8 L 128.5,841.6 L 131.2,840.5 L 132.6,840.0 L 132.2,836.4 L 135.9,834.9 L 140.6,834.1 L 143.4,832.8 L 148.6,833.0 L 151.6,832.6 L 153.5,831.2 L 154.7,828.7 L 154.0,827.9 L 152.3,826.4 L 151.9,826.0 L 151.8,824.7 L 152.3,822.0 L 152.4,820.9 L 151.8,819.3 L 150.0,816.7 L 149.6,814.9 L 150.5,806.7 L 154.9,807.5 L 156.6,807.2 L 157.9,805.5 L 158.2,803.2 L 157.7,800.8 L 154.1,792.4 L 151.8,782.9 L 151.5,776.0 L 151.0,773.9 L 150.0,772.1 L 148.3,770.8 L 139.0,768.4 L 136.8,769.2 L 132.6,771.8 L 130.0,772.1 L 126.9,770.4 L 126.2,767.0 L 127.6,758.7 L 119.1,759.4 L 120.3,744.4 L 120.0,739.6 L 118.4,734.8 L 113.4,725.5 L 111.5,720.8 L 107.5,698.7 L 104.7,691.4 L 100.9,687.8 L 100.5,687.4 L 99.0,685.5 L 88.6,638.8 L 88.8,636.6 L 89.8,635.2 L 92.2,633.8 L 92.9,633.0 L 95.5,625.7 L 95.2,624.8 L 93.4,621.4 L 91.8,619.3 L 91.2,617.9 L 91.4,613.2 L 93.6,608.1 L 108.6,582.0 L 110.2,581.0 L 110.3,581.0 L 110.5,580.9 L 117.0,578.8 L 117.6,577.8 L 118.7,571.2 L 119.4,569.9 L 125.3,562.3 L 126.5,559.8 L 126.6,558.0 L 126.0,556.9 L 125.2,555.8 L 124.3,553.9 L 124.2,552.4 L 130.6,511.9 L 132.3,506.5 L 141.8,486.2 L 142.3,485.3 L 143.6,483.7 L 144.1,482.9 L 144.1,482.1 L 143.8,480.4 L 143.9,479.8 L 145.0,478.7 L 147.9,476.9 L 148.9,475.8 L 149.4,474.3 L 149.9,464.5 L 150.3,463.5 L 151.1,463.4 L 152.0,464.0 L 152.7,464.7 L 152.9,465.2 L 155.0,463.4 L 161.0,456.4 L 163.4,454.7 L 171.2,452.1 L 173.9,450.7 L 175.1,449.0 L 175.3,446.7 L 174.4,443.5 L 172.7,439.7 L 172.4,438.1 L 172.9,436.0 L 173.8,434.2 L 174.7,433.4 L 175.8,433.5 L 177.4,434.3 L 178.9,434.4 L 180.7,433.8 L 186.6,430.4 L 187.5,428.3 L 181.5,391.3 L 175.5,354.3 L 174.8,352.2 L 173.6,352.8 L 173.6,352.7 L 173.0,351.7 L 173.3,350.0 L 174.3,349.1 L 175.7,348.4 L 175.8,346.6 L 173.2,337.3 L 173.0,335.1 L 172.7,333.9 L 172.0,333.6 L 171.1,333.5 L 170.3,332.9 L 168.3,326.7 L 168.1,324.0 L 167.3,321.9 L 164.0,320.1 L 160.7,319.3 L 157.3,319.2 L 155.5,318.9 L 154.5,318.2 L 153.7,317.3 L 152.4,316.6 L 153.6,314.7 L 154.2,312.6 L 154.4,306.0 L 155.0,304.9 L 157.7,302.0 L 160.0,297.4 L 161.5,295.0 L 165.7,292.8 L 167.2,290.3 L 167.4,287.8 L 165.4,286.6 L 163.1,286.1 L 161.2,284.8 L 160.2,282.7 L 160.4,280.2 L 161.8,278.5 L 163.6,277.6 L 165.1,276.6 L 165.8,274.4 L 165.8,270.8 L 165.1,268.6 L 165.0,267.6 L 165.5,263.4 L 165.3,261.5 L 163.6,259.2 L 158.9,253.3 L 154.2,249.0 L 153.5,247.6 L 153.3,245.5 L 153.5,243.3 L 154.1,241.2 L 155.2,239.2 L 156.9,237.8 L 156.5,237.5 L 155.5,236.7 L 155.1,235.5 L 154.9,234.3 L 154.3,233.2 L 153.1,232.6 L 152.4,232.7 L 151.7,232.6 L 150.6,231.4 L 149.7,228.7 L 150.2,225.9 L 152.4,221.5 L 156.9,216.4 L 157.7,215.1 L 157.4,213.8 L 154.3,208.8 L 153.7,205.4 L 154.9,199.4 L 155.1,196.0 L 154.2,193.7 L 151.2,189.2 L 150.6,186.5 L 150.6,175.2 L 149.2,169.2 L 149.3,166.6 L 151.0,163.9 L 153.7,161.8 L 154.6,160.6 L 155.1,158.9 L 155.0,157.2 L 154.5,156.5 L 153.7,156.1 L 152.4,155.3 L 151.1,154.8 L 150.0,154.8 L 149.1,154.5 L 148.8,153.0 L 148.4,152.1 L 147.2,151.9 L 145.9,151.7 L 144.8,151.2 L 143.7,149.1 L 143.7,146.3 L 144.4,143.6 L 145.2,141.7 L 146.2,140.4 L 147.2,139.6 L 148.5,139.2 L 150.1,139.0 L 151.6,138.5 L 152.8,137.2 L 153.3,136.0 L 152.8,135.4 L 149.6,135.3 L 147.5,135.0 L 145.9,134.2 L 141.3,130.1 L 140.3,128.4 L 139.9,125.9 L 139.5,125.2 L 137.7,123.5 L 137.1,122.7 L 136.8,121.4 L 136.6,118.6 L 136.3,117.3 L 132.3,110.3 L 131.8,107.8 L 132.2,106.5 L 133.9,103.3 L 134.7,101.2 L 135.1,100.7 L 135.4,100.1 L 135.4,99.2 L 135.0,98.6 L 134.4,98.4 L 133.8,98.3 L 133.6,98.3 L 133.4,97.7 L 133.1,96.3 L 133.5,95.5 L 134.9,94.2 L 135.6,92.9 L 136.1,89.9 L 138.3,86.3 L 139.7,80.2 L 140.7,77.4 L 142.5,75.4 L 144.5,73.8 L 146.3,71.9 L 147.0,68.8 L 146.3,66.3 L 144.8,64.0 L 144.0,61.4 L 144.4,60.5 L 144.2,59.7 L 155.5,59.9 L 155.5,61.3 L 158.4,61.3 L 170.7,61.2 L 196.2,60.9 L 227.8,60.6 L 257.2,60.3 L 285.8,60.1 L 306.1,59.9 L 307.6,59.0 L 308.6,56.7 L 310.8,56.0 L 327.4,56.5 L 329.0,57.1 L 330.3,57.6 L 334.6,59.3 L 337.9,59.9 L 354.5,60.1 L 370.3,60.2 L 371.4,58.2 L 375.2,57.6 L 393.2,59.1 L 394.3,59.3 L 395.3,60.0 L 396.2,61.8 L 396.9,62.2 L 398.2,62.1 L 397.3,63.9 L 399.6,63.6 L 402.5,60.4 L 405.3,59.9 L 406.1,59.0 L 406.9,58.7 L 407.6,59.0 L 408.3,59.9 L 408.3,60.0 L 423.2,60.3 L 424.1,60.3 L 424.3,61.8 L 424.8,61.9 L 425.8,61.5 L 427.0,61.7 L 427.7,62.6 L 427.2,63.6 L 426.2,64.7 L 425.8,65.6 L 432.1,71.6 L 434.4,70.2 L 435.7,67.2 L 436.7,64.0 L 437.9,61.8 L 439.7,61.1 L 442.5,60.8 L 447.5,61.0 L 448.0,60.8 L 448.4,60.6 L 448.8,60.3 L 449.1,60.0 L 449.1,60.0 L 450.4,58.4 L 453.8,56.8 L 455.4,55.6 L 456.1,54.2 L 456.4,51.2 L 457.0,49.2 L 459.5,46.1 L 462.0,46.1 L 464.5,48.1 L 466.8,50.9 L 473.4,46.1 L 475.0,44.5 L 476.1,42.5 L 475.8,41.3 L 475.3,40.1 L 475.6,37.9 L 493.3,41.6 Z M 985.1,-32.5 L 982.2,-29.5 L 973.1,-14.1 L 971.6,-8.1 L 970.8,-6.1 L 968.1,1.0 L 968.4,4.0 L 970.3,7.6 L 993.7,40.6 L 996.9,43.6 L 998.0,43.7 L 999.2,43.5 L 999.4,43.5 L 1000.4,43.6 L 1001.5,44.6 L 1000.2,49.8 L 1000.2,52.6 L 1000.7,55.3 L 1001.7,57.7 L 1003.0,59.9 L 1003.0,60.0 L 1005.7,71.8 L 1005.5,75.6 L 1002.7,82.6 L 1002.5,84.9 L 1003.2,86.5 L 1004.3,87.6 L 1005.4,88.5 L 1006.4,89.7 L 1007.0,91.1 L 1008.3,95.4 L 1009.5,96.9 L 1011.2,97.4 L 1013.0,97.7 L 1014.7,98.7 L 1015.9,101.3 L 1016.5,105.1 L 1016.6,108.3 L 1016.6,112.4 L 1015.6,115.9 L 1012.3,122.5 L 1011.1,126.0 L 1011.0,132.9 L 1010.1,135.3 L 1008.1,137.8 L 1006.1,138.1 L 997.7,133.7 L 994.9,133.2 L 992.4,134.1 L 989.8,136.6 L 988.9,137.8 L 988.6,138.7 L 988.4,141.3 L 987.9,142.8 L 984.6,147.9 L 982.0,153.9 L 982.1,156.4 L 983.9,159.4 L 992.8,168.6 L 994.0,170.2 L 994.4,172.3 L 994.0,174.6 L 993.9,175.4 L 992.7,178.3 L 991.1,179.5 L 989.2,180.4 L 987.2,182.4 L 986.3,184.5 L 985.5,195.8 L 984.2,198.4 L 980.0,203.5 L 976.5,209.8 L 974.2,211.9 L 966.3,211.1 L 961.2,212.4 L 951.8,216.3 L 949.7,217.9 L 948.6,220.5 L 948.3,223.5 L 948.7,226.1 L 950.4,230.2 L 951.4,234.2 L 950.5,237.6 L 946.2,240.0 L 943.9,239.9 L 941.4,239.4 L 939.3,240.1 L 938.3,243.3 L 938.4,244.2 L 939.1,245.9 L 939.0,246.6 L 931.0,257.0 L 930.0,257.9 L 927.9,258.6 L 927.0,259.3 L 924.5,263.4 L 923.9,267.0 L 924.8,270.7 L 926.5,274.9 L 926.9,277.1 L 926.9,285.7 L 926.1,288.4 L 923.4,293.6 L 919.1,307.1 L 917.1,311.2 L 913.9,313.5 L 904.9,315.8 L 903.4,315.8 L 902.1,315.2 L 900.8,314.3 L 899.4,313.6 L 898.0,313.5 L 894.0,313.6 L 892.6,313.9 L 891.2,314.8 L 890.1,315.9 L 888.8,316.9 L 887.0,317.1 L 877.0,316.3 L 877.4,319.8 L 877.1,328.2 L 876.4,331.8 L 876.0,332.6 L 874.5,334.8 L 874.2,335.1 L 874.4,336.2 L 875.0,336.5 L 875.6,336.7 L 876.1,337.6 L 876.0,339.6 L 874.4,343.4 L 873.9,345.4 L 874.1,346.6 L 874.8,348.6 L 874.6,349.8 L 873.9,350.5 L 871.7,351.5 L 871.0,352.5 L 870.9,353.9 L 870.9,354.1 L 873.5,386.3 L 873.8,390.1 L 872.8,394.6 L 871.7,396.2 L 869.1,399.1 L 868.4,400.8 L 868.4,401.9 L 868.7,404.4 L 868.7,405.6 L 867.7,411.1 L 867.6,413.6 L 868.0,416.8 L 869.0,419.7 L 871.6,425.2 L 872.5,428.0 L 872.4,430.9 L 871.4,433.3 L 870.0,435.5 L 869.0,437.8 L 868.7,440.2 L 868.4,448.1 L 866.7,456.5 L 866.2,464.8 L 865.8,466.0 L 864.4,468.5 L 864.1,469.5 L 864.2,470.1 L 864.3,470.6 L 865.4,472.2 L 866.8,476.0 L 870.0,479.5 L 871.1,481.4 L 871.5,483.3 L 870.2,501.1 L 869.9,505.5 L 870.6,510.6 L 873.2,515.6 L 877.1,520.2 L 880.0,525.0 L 879.6,530.6 L 879.3,531.8 L 879.2,532.5 L 878.8,532.8 L 876.0,532.2 L 874.6,532.2 L 873.6,532.8 L 873.3,534.2 L 876.0,566.7 L 875.9,568.6 L 875.5,569.8 L 874.4,571.2 L 873.2,573.7 L 872.7,574.6 L 872.5,575.5 L 873.0,577.2 L 874.2,578.6 L 877.6,581.5 L 878.3,582.7 L 877.8,584.1 L 876.5,584.9 L 874.8,585.4 L 873.3,586.1 L 869.9,590.8 L 870.3,595.6 L 872.1,600.7 L 872.8,606.2 L 871.4,611.8 L 871.0,614.6 L 871.7,617.3 L 872.7,618.6 L 873.8,619.4 L 875.1,619.8 L 876.7,620.0 L 877.5,620.6 L 877.8,621.9 L 878.2,628.0 L 877.5,629.5 L 875.9,630.6 L 873.5,632.7 L 872.0,635.5 L 872.0,638.2 L 873.1,643.8 L 872.8,646.6 L 870.4,653.7 L 869.9,655.0 L 869.5,657.7 L 868.5,663.6 L 868.4,671.7 L 868.4,671.7 L 816.6,676.5 L 806.1,678.9 L 761.3,684.0 L 726.7,692.1 L 725.8,689.3 L 728.5,687.9 L 745.3,683.9 L 748.0,683.7 L 745.5,674.0 L 743.0,664.1 L 739.6,658.6 L 738.5,657.8 L 735.7,656.3 L 734.8,655.6 L 734.6,654.4 L 734.9,651.6 L 734.7,650.3 L 733.9,649.2 L 731.7,647.4 L 731.4,646.4 L 731.2,644.9 L 730.3,644.6 L 729.0,644.7 L 727.7,644.6 L 726.7,644.0 L 725.6,643.1 L 724.6,642.0 L 723.8,640.9 L 723.4,639.6 L 723.5,638.4 L 723.7,637.3 L 723.7,636.2 L 722.2,633.6 L 720.6,632.2 L 719.7,630.7 L 720.8,627.8 L 722.7,625.1 L 723.8,623.7 L 724.3,621.7 L 723.5,618.5 L 722.5,615.8 L 722.0,613.5 L 721.9,611.3 L 722.9,605.7 L 722.6,603.9 L 721.4,602.4 L 719.5,601.0 L 719.3,600.8 L 717.8,598.6 L 715.3,589.2 L 725.1,589.3 L 727.5,588.6 L 727.4,569.2 L 727.3,550.0 L 727.3,530.3 L 727.2,517.3 L 727.1,505.9 L 727.1,503.6 L 727.0,477.4 L 726.9,456.5 L 727.3,435.4 L 727.5,420.2 L 726.1,408.9 L 725.4,407.7 L 724.7,407.4 L 724.3,406.9 L 724.9,403.7 L 724.9,401.4 L 725.2,400.2 L 729.4,393.1 L 729.9,390.8 L 729.4,389.5 L 726.0,385.2 L 725.3,383.7 L 725.2,382.1 L 725.1,378.2 L 724.9,360.5 L 724.7,348.2 L 724.5,333.8 L 724.3,317.3 L 723.6,313.7 L 722.6,310.5 L 719.9,305.8 L 711.8,297.2 L 701.3,286.2 L 700.7,285.2 L 698.2,281.4 L 696.3,276.1 L 695.4,262.7 L 693.9,258.9 L 691.7,260.0 L 689.7,258.1 L 688.4,254.8 L 688.0,252.1 L 688.5,250.4 L 690.8,246.8 L 691.7,245.2 L 691.8,243.8 L 691.8,241.2 L 692.1,239.9 L 692.3,238.2 L 691.2,232.1 L 691.1,221.8 L 690.8,207.4 L 690.7,197.6 L 690.7,196.6 L 689.0,192.1 L 675.2,182.9 L 656.5,170.4 L 645.4,163.0 L 637.8,158.0 L 625.4,149.7 L 615.5,143.1 L 614.5,141.1 L 614.4,138.1 L 616.2,124.5 L 618.1,117.1 L 618.2,112.0 L 617.2,100.0 L 619.0,95.6 L 626.1,88.9 L 627.8,86.4 L 628.2,85.1 L 628.4,82.1 L 628.7,80.6 L 630.7,76.7 L 630.5,75.3 L 629.4,72.6 L 629.1,71.2 L 629.5,68.6 L 632.9,60.4 L 636.9,62.6 L 638.6,62.9 L 640.9,62.9 L 641.5,62.2 L 641.8,60.6 L 641.7,59.1 L 640.9,58.4 L 639.9,57.9 L 639.4,56.7 L 639.4,55.2 L 639.5,53.9 L 640.0,53.6 L 641.1,51.9 L 641.9,50.3 L 642.7,49.1 L 643.3,48.9 L 643.9,49.1 L 646.8,49.6 L 647.7,50.2 L 648.3,50.8 L 649.0,51.1 L 649.4,51.4 L 650.1,52.7 L 650.3,53.0 L 651.1,52.9 L 652.6,52.2 L 653.1,52.1 L 657.1,52.5 L 658.4,53.0 L 658.8,53.6 L 659.7,54.9 L 660.7,55.8 L 661.1,55.2 L 661.2,53.1 L 659.8,51.6 L 658.9,50.2 L 658.7,48.7 L 658.7,47.2 L 658.4,45.7 L 658.2,45.7 L 656.9,45.1 L 656.6,44.8 L 656.5,44.2 L 656.7,42.6 L 656.6,42.1 L 655.3,41.8 L 654.5,42.5 L 654.0,42.7 L 653.9,40.7 L 654.6,40.4 L 658.9,39.4 L 659.6,38.9 L 660.5,36.5 L 661.1,35.8 L 662.5,35.8 L 665.1,37.1 L 666.4,37.5 L 665.8,35.3 L 665.3,30.8 L 662.8,26.8 L 663.5,25.1 L 664.8,23.8 L 666.2,21.7 L 667.4,22.7 L 668.4,24.2 L 668.2,24.9 L 669.4,24.9 L 670.1,24.6 L 670.8,24.2 L 671.9,23.9 L 674.4,24.0 L 676.5,24.7 L 680.8,26.7 L 682.5,23.6 L 682.7,22.6 L 682.4,21.3 L 681.1,20.1 L 680.8,19.0 L 681.5,17.4 L 682.9,18.1 L 684.5,19.9 L 685.3,21.3 L 686.2,20.2 L 687.1,19.8 L 688.0,20.2 L 688.9,21.3 L 691.2,19.4 L 691.0,17.7 L 689.7,15.9 L 688.9,13.6 L 690.1,11.1 L 692.7,9.4 L 695.6,8.1 L 697.8,6.8 L 696.5,4.0 L 696.7,2.9 L 697.8,1.3 L 699.5,0.0 L 701.1,-0.5 L 701.1,-0.5 L 702.4,-1.2 L 703.2,-3.1 L 705.3,-1.9 L 707.9,-1.4 L 720.2,-0.4 L 719.9,0.4 L 719.6,2.3 L 719.4,3.2 L 721.6,3.0 L 724.4,8.1 L 726.9,7.2 L 729.2,6.1 L 735.2,4.8 L 737.7,3.6 L 739.7,2.9 L 745.5,3.3 L 748.0,3.2 L 753.1,1.1 L 755.6,0.6 L 757.9,1.3 L 759.1,0.4 L 760.7,0.7 L 764.1,2.3 L 769.6,4.4 L 774.3,4.8 L 777.8,3.1 L 778.5,2.4 L 795.6,-15.0 L 805.2,-22.8 L 812.2,-26.7 L 814.0,-28.5 L 814.5,-29.7 L 814.4,-31.2 L 814.5,-33.5 L 815.9,-37.2 L 820.9,-42.8 L 822.7,-46.2 L 827.4,-59.0 L 827.2,-60.4 L 825.7,-62.7 L 825.5,-64.1 L 826.2,-65.8 L 827.3,-66.1 L 828.6,-65.9 L 829.7,-66.2 L 830.6,-67.2 L 831.6,-69.1 L 832.5,-70.1 L 833.8,-70.2 L 835.2,-69.7 L 836.1,-69.9 L 836.2,-72.2 L 835.9,-73.8 L 835.1,-74.5 L 833.9,-74.8 L 832.5,-75.4 L 831.1,-76.5 L 830.2,-77.6 L 829.4,-78.9 L 825.0,-91.3 L 823.8,-98.6 L 823.7,-101.6 L 824.8,-103.9 L 828.0,-105.4 L 829.8,-105.6 L 832.8,-105.5 L 834.4,-105.6 L 834.7,-106.0 L 835.8,-107.5 L 836.5,-108.0 L 837.5,-107.7 L 838.2,-107.0 L 838.9,-106.7 L 839.6,-108.1 L 840.2,-109.8 L 841.1,-110.1 L 842.4,-109.9 L 843.9,-109.9 L 844.3,-109.6 L 844.5,-108.9 L 844.9,-108.3 L 845.9,-108.3 L 846.6,-108.8 L 847.8,-109.9 L 848.4,-110.3 L 853.0,-111.6 L 853.6,-111.5 L 854.7,-110.8 L 855.3,-110.7 L 856.1,-111.1 L 857.7,-112.3 L 858.6,-112.5 L 863.2,-111.2 L 864.4,-111.9 L 866.2,-114.8 L 866.6,-115.8 L 866.9,-116.8 L 867.3,-117.8 L 868.0,-118.6 L 869.4,-119.1 L 870.8,-118.2 L 872.1,-118.5 L 873.3,-119.5 L 875.4,-122.0 L 876.9,-122.9 L 878.1,-123.2 L 880.8,-123.1 L 882.1,-123.3 L 885.2,-123.5 L 886.8,-125.5 L 893.1,-119.9 L 895.7,-118.5 L 897.0,-117.1 L 898.0,-115.4 L 898.9,-112.5 L 899.9,-111.4 L 901.4,-110.6 L 902.9,-110.0 L 907.3,-109.6 L 908.4,-109.2 L 908.8,-108.5 L 910.1,-106.1 L 915.4,-98.3 L 937.9,-77.9 L 938.3,-77.2 L 940.1,-75.9 L 940.5,-75.2 L 940.8,-72.4 L 941.5,-69.4 L 942.4,-67.0 L 945.4,-61.9 L 947.3,-59.8 L 948.4,-58.8 L 950.0,-57.7 L 951.8,-57.2 L 953.5,-58.0 L 955.4,-59.1 L 956.9,-58.8 L 958.3,-58.0 L 959.8,-57.5 L 965.6,-53.9 L 970.4,-52.2 L 971.9,-51.2 L 972.9,-50.2 L 977.3,-44.0 L 978.2,-43.2 L 978.9,-42.8 L 979.5,-42.3 L 980.0,-41.2 L 980.7,-39.1 L 981.1,-38.1 L 981.4,-36.9 L 981.9,-35.9 L 982.9,-35.3 L 984.2,-33.2 L 985.1,-32.5 Z M 827.4,-59.0 L 822.7,-46.2 L 820.9,-42.8 L 815.9,-37.2 L 814.5,-33.5 L 814.4,-31.2 L 814.5,-29.7 L 814.0,-28.5 L 812.2,-26.7 L 805.2,-22.8 L 795.6,-15.0 L 778.5,2.4 L 777.8,3.1 L 774.3,4.8 L 769.6,4.4 L 764.1,2.3 L 760.7,0.7 L 759.1,0.4 L 757.9,1.3 L 755.6,0.6 L 753.1,1.1 L 748.0,3.2 L 745.5,3.3 L 739.7,2.9 L 737.7,3.6 L 735.2,4.8 L 729.2,6.1 L 726.9,7.2 L 724.4,8.1 L 721.6,3.0 L 719.4,3.2 L 719.6,2.3 L 719.9,0.4 L 720.2,-0.4 L 707.9,-1.4 L 705.3,-1.9 L 703.2,-3.1 L 702.4,-1.2 L 701.1,-0.5 L 701.1,-0.5 L 699.5,0.0 L 697.8,1.3 L 696.7,2.9 L 696.5,4.0 L 697.8,6.8 L 695.6,8.1 L 692.7,9.4 L 690.1,11.1 L 688.9,13.6 L 689.7,15.9 L 691.0,17.7 L 691.2,19.4 L 688.9,21.3 L 688.0,20.2 L 687.1,19.8 L 686.2,20.2 L 685.3,21.3 L 684.5,19.9 L 682.9,18.1 L 681.5,17.4 L 680.8,19.0 L 681.1,20.1 L 682.4,21.3 L 682.7,22.6 L 682.5,23.6 L 680.8,26.7 L 676.5,24.7 L 674.4,24.0 L 671.9,23.9 L 670.8,24.2 L 670.1,24.6 L 669.4,24.9 L 668.2,24.9 L 668.4,24.2 L 667.4,22.7 L 666.2,21.7 L 664.8,23.8 L 663.5,25.1 L 662.8,26.8 L 665.3,30.8 L 665.8,35.3 L 666.4,37.5 L 665.1,37.1 L 662.5,35.8 L 661.1,35.8 L 660.5,36.5 L 659.6,38.9 L 658.9,39.4 L 654.6,40.4 L 653.9,40.7 L 654.0,42.7 L 654.5,42.5 L 655.3,41.8 L 656.6,42.1 L 656.7,42.6 L 656.5,44.2 L 656.6,44.8 L 656.9,45.1 L 658.2,45.7 L 658.4,45.7 L 658.7,47.2 L 658.7,48.7 L 658.9,50.2 L 659.8,51.6 L 661.2,53.1 L 661.1,55.2 L 660.7,55.8 L 659.7,54.9 L 658.8,53.6 L 658.4,53.0 L 657.1,52.5 L 653.1,52.1 L 652.6,52.2 L 651.1,52.9 L 650.3,53.0 L 650.1,52.7 L 649.4,51.4 L 649.0,51.1 L 648.3,50.8 L 647.7,50.2 L 646.8,49.6 L 643.9,49.1 L 643.3,48.9 L 642.7,49.1 L 641.9,50.3 L 641.1,51.9 L 640.0,53.6 L 639.5,53.9 L 639.4,55.2 L 639.4,56.7 L 639.9,57.9 L 640.9,58.4 L 641.7,59.1 L 641.8,60.6 L 641.5,62.2 L 640.9,62.9 L 638.6,62.9 L 636.9,62.6 L 632.9,60.4 L 615.9,60.8 L 603.3,61.0 L 595.1,62.6 L 578.8,68.3 L 580.4,62.7 L 578.3,62.2 L 578.7,61.6 L 578.9,61.1 L 579.0,60.5 L 579.2,60.0 L 579.1,59.5 L 578.9,59.2 L 578.6,59.1 L 564.0,56.1 L 552.6,53.7 L 522.8,47.7 L 506.8,44.4 L 500.0,43.0 L 493.3,41.6 L 475.6,37.9 L 475.3,40.1 L 475.8,41.3 L 476.1,42.5 L 475.0,44.5 L 473.4,46.1 L 466.8,50.9 L 464.5,48.1 L 462.0,46.1 L 459.5,46.1 L 457.0,49.2 L 456.4,51.2 L 456.1,54.2 L 455.4,55.6 L 453.8,56.8 L 450.4,58.4 L 449.1,60.0 L 449.1,60.0 L 448.8,60.3 L 448.4,60.6 L 448.0,60.8 L 447.5,61.0 L 442.5,60.8 L 439.7,61.1 L 437.9,61.8 L 436.7,64.0 L 435.7,67.2 L 434.4,70.2 L 432.1,71.6 L 425.8,65.6 L 426.2,64.7 L 427.2,63.6 L 427.7,62.6 L 427.0,61.7 L 425.8,61.5 L 424.8,61.9 L 424.3,61.8 L 424.1,60.3 L 423.2,60.3 L 408.3,60.0 L 408.3,59.9 L 407.6,59.0 L 406.9,58.7 L 406.1,59.0 L 405.3,59.9 L 402.5,60.4 L 399.6,63.6 L 397.3,63.9 L 398.2,62.1 L 396.9,62.2 L 396.2,61.8 L 395.3,60.0 L 394.3,59.3 L 393.2,59.1 L 375.2,57.6 L 371.4,58.2 L 370.3,60.2 L 354.5,60.1 L 337.9,59.9 L 334.6,59.3 L 330.3,57.6 L 329.0,57.1 L 327.4,56.5 L 310.8,56.0 L 308.6,56.7 L 307.6,59.0 L 306.1,59.9 L 285.8,60.1 L 257.2,60.3 L 227.8,60.6 L 196.2,60.9 L 170.7,61.2 L 158.4,61.3 L 155.5,61.3 L 155.5,59.9 L 144.2,59.7 L 144.4,60.5 L 144.0,61.4 L 144.8,64.0 L 146.3,66.3 L 147.0,68.8 L 146.3,71.9 L 144.5,73.8 L 142.5,75.4 L 140.7,77.4 L 139.7,80.2 L 138.3,86.3 L 136.1,89.9 L 135.6,92.9 L 134.9,94.2 L 133.5,95.5 L 133.1,96.3 L 133.4,97.7 L 133.6,98.3 L 133.8,98.3 L 134.4,98.4 L 135.0,98.6 L 135.4,99.2 L 135.4,100.1 L 135.1,100.7 L 134.7,101.2 L 133.9,103.3 L 132.2,106.5 L 131.8,107.8 L 132.3,110.3 L 136.3,117.3 L 136.6,118.6 L 136.8,121.4 L 137.1,122.7 L 137.7,123.5 L 139.5,125.2 L 139.9,125.9 L 140.3,128.4 L 141.3,130.1 L 145.9,134.2 L 147.5,135.0 L 149.6,135.3 L 152.8,135.4 L 153.3,136.0 L 152.8,137.2 L 151.6,138.5 L 150.1,139.0 L 148.5,139.2 L 147.2,139.6 L 146.2,140.4 L 145.2,141.7 L 144.4,143.6 L 143.7,146.3 L 143.7,149.1 L 144.8,151.2 L 145.9,151.7 L 147.2,151.9 L 148.4,152.1 L 148.8,153.0 L 149.1,154.5 L 150.0,154.8 L 151.1,154.8 L 152.4,155.3 L 153.7,156.1 L 154.5,156.5 L 155.0,157.2 L 155.1,158.9 L 154.6,160.6 L 153.7,161.8 L 151.0,163.9 L 149.3,166.6 L 149.2,169.2 L 150.6,175.2 L 150.6,186.5 L 151.2,189.2 L 154.2,193.7 L 155.1,196.0 L 154.9,199.4 L 153.7,205.4 L 154.3,208.8 L 157.4,213.8 L 157.7,215.1 L 156.9,216.4 L 152.4,221.5 L 150.2,225.9 L 149.7,228.7 L 150.6,231.4 L 151.7,232.6 L 152.4,232.7 L 153.1,232.6 L 154.3,233.2 L 154.9,234.3 L 155.1,235.5 L 155.5,236.7 L 156.5,237.5 L 156.9,237.8 L 155.2,239.2 L 154.1,241.2 L 153.5,243.3 L 153.3,245.5 L 153.5,247.6 L 154.2,249.0 L 158.9,253.3 L 163.6,259.2 L 159.5,263.1 L 156.3,269.9 L 153.8,272.0 L 150.7,271.8 L 147.7,269.5 L 134.7,252.1 L 128.2,239.4 L 125.9,233.3 L 124.3,230.2 L 122.2,228.1 L 119.7,227.5 L 115.2,228.9 L 112.9,228.7 L 110.6,226.8 L 109.3,223.8 L 107.7,217.4 L 105.1,214.2 L 102.0,213.5 L 99.1,213.4 L 96.8,212.1 L 96.2,209.4 L 96.5,206.3 L 96.5,203.8 L 94.9,202.8 L 92.9,204.2 L 88.4,210.5 L 86.6,212.3 L 83.5,212.7 L 82.2,210.9 L 82.0,208.2 L 82.1,205.6 L 81.5,204.7 L 80.2,205.2 L 78.6,206.2 L 77.4,206.6 L 76.0,205.9 L 73.7,203.7 L 72.1,203.1 L 51.5,201.4 L 43.7,202.5 L 41.5,202.0 L 40.1,201.0 L 39.2,199.9 L 38.2,199.0 L 36.5,198.4 L 36.0,198.7 L 34.8,200.2 L 34.1,200.6 L 33.3,200.4 L 31.6,199.5 L 30.6,199.3 L 24.3,200.1 L 22.4,200.7 L 21.0,201.6 L 19.0,203.9 L 17.8,204.7 L 15.3,205.4 L 6.7,205.6 L 6.4,205.7 L 4.0,206.4 L -0.9,209.6 L -3.7,210.3 L -5.7,211.3 L -6.2,213.5 L -7.0,215.3 L -11.2,215.4 L -12.3,215.8 L -14.3,216.7 L -14.4,217.1 L -14.5,217.8 L -14.8,218.4 L -15.6,218.6 L -16.3,218.3 L -17.7,217.6 L -25.1,215.4 L -27.4,215.7 L -29.7,217.4 L -33.5,222.7 L -35.9,224.1 L -40.8,224.7 L -43.1,225.5 L -44.8,227.1 L -44.2,227.2 L -42.7,227.7 L -46.7,231.9 L -47.4,233.1 L -47.4,234.2 L -47.0,237.3 L -47.3,239.0 L -49.0,242.3 L -49.9,243.3 L -49.9,243.3 L -53.4,241.9 L -55.4,241.3 L -55.8,243.4 L -55.8,245.6 L -56.2,246.8 L -58.0,245.9 L -58.9,244.5 L -60.0,240.1 L -61.2,238.2 L -64.4,237.5 L -69.1,237.7 L -73.3,237.2 L -75.2,234.5 L -74.9,232.1 L -73.6,228.7 L -73.3,226.4 L -73.6,225.8 L -74.4,225.3 L -75.4,225.1 L -77.8,225.1 L -78.2,225.4 L -78.3,225.9 L -78.7,226.8 L -79.4,228.6 L -79.4,230.4 L -79.9,231.8 L -81.8,232.3 L -83.3,231.8 L -85.2,228.9 L -86.7,227.7 L -88.4,229.5 L -89.9,230.3 L -91.5,230.5 L -93.5,230.5 L -93.3,230.8 L -93.8,231.6 L -94.6,232.5 L -95.7,233.2 L -96.8,233.7 L -96.8,233.6 L -96.8,233.1 L -97.5,232.3 L -99.2,231.6 L -99.9,231.0 L -100.2,230.0 L -100.4,228.6 L -100.9,227.8 L -102.4,226.4 L -103.1,225.5 L -103.6,224.7 L -104.2,224.3 L -105.6,224.1 L -106.9,224.3 L -107.3,224.7 L -107.1,225.3 L -106.4,226.0 L -108.4,226.4 L -110.1,223.6 L -111.8,224.1 L -112.2,223.0 L -112.5,222.5 L -113.6,221.5 L -113.6,220.5 L -112.3,220.6 L -111.2,220.4 L -109.1,219.7 L -110.4,217.4 L -111.0,214.5 L -112.1,212.5 L -114.6,213.3 L -115.5,210.6 L -117.3,208.9 L -119.9,208.1 L -123.0,207.9 L -124.1,207.6 L -124.5,207.0 L -125.1,206.3 L -126.6,206.1 L -127.6,206.7 L -128.3,207.8 L -129.0,208.7 L -130.2,208.3 L -134.0,204.7 L -134.2,203.2 L -132.3,197.8 L -132.5,197.0 L -134.0,193.9 L -135.4,192.0 L -136.0,190.6 L -133.2,190.5 L -132.7,188.7 L -133.6,186.3 L -135.1,184.3 L -136.7,183.3 L -138.4,182.5 L -139.8,181.2 L -140.5,178.8 L -141.8,179.9 L -143.3,180.6 L -144.8,180.4 L -145.8,178.8 L -144.0,178.0 L -144.9,177.7 L -145.6,177.4 L -146.5,177.1 L -147.6,177.1 L -146.4,176.0 L -143.3,174.9 L -143.6,173.9 L -146.9,171.7 L -147.7,170.4 L -146.8,168.0 L -150.3,168.1 L -150.2,166.7 L -149.1,164.3 L -149.5,161.6 L -149.8,162.5 L -150.4,163.3 L -151.2,164.0 L -152.1,164.3 L -153.7,164.2 L -153.9,163.6 L -153.4,162.8 L -153.0,162.1 L -153.0,154.8 L -154.0,152.9 L -154.1,152.8 L -156.2,151.4 L -158.3,151.3 L -159.3,153.0 L -160.4,153.1 L -166.9,149.4 L -169.0,149.9 L -175.0,149.0 L -177.2,149.0 L -178.2,149.6 L -178.8,150.5 L -179.7,151.3 L -181.2,151.7 L -182.7,151.7 L -183.4,151.6 L -183.9,151.2 L -184.6,150.9 L -185.1,151.4 L -185.6,152.2 L -186.2,152.6 L -188.8,152.5 L -191.0,151.9 L -192.8,151.0 L -194.2,149.8 L -194.6,149.0 L -195.1,147.8 L -195.7,146.7 L -196.4,146.2 L -197.6,146.2 L -198.5,146.0 L -200.4,145.3 L -200.6,143.0 L -202.1,139.7 L -204.5,136.7 L -206.7,135.4 L -206.0,133.5 L -205.0,126.8 L -204.5,125.7 L -201.4,120.9 L -199.6,114.0 L -200.0,112.7 L -201.0,111.8 L -200.8,109.8 L -199.9,107.6 L -198.6,106.5 L -200.6,105.7 L -200.8,104.6 L -201.4,102.4 L -201.5,101.2 L -200.3,94.1 L -199.6,92.2 L -198.7,91.2 L -197.6,90.7 L -196.8,90.1 L -196.6,88.7 L -196.6,87.6 L -194.8,80.0 L -195.3,78.4 L -196.9,75.6 L -199.3,66.4 L -201.1,62.7 L -204.0,63.4 L -203.2,60.0 L -204.5,53.1 L -204.7,52.0 L -204.3,49.9 L -202.4,48.6 L -189.4,47.0 L -187.2,46.3 L -185.0,45.3 L -181.9,43.4 L -180.6,41.6 L -179.8,36.2 L -178.5,33.1 L -174.4,29.0 L -172.8,26.2 L -172.5,24.1 L -173.4,10.3 L -172.9,7.9 L -170.9,6.2 L -168.0,4.8 L -167.0,3.7 L -167.1,2.0 L -167.8,-1.1 L -167.8,-12.0 L -169.0,-16.7 L -173.7,-20.4 L -175.1,-20.6 L -176.5,-20.4 L -177.6,-20.7 L -178.6,-22.2 L -178.7,-23.7 L -177.9,-25.1 L -177.0,-26.5 L -176.2,-27.8 L -175.1,-33.0 L -174.8,-35.9 L -175.0,-38.2 L -176.0,-40.8 L -177.5,-42.6 L -179.6,-43.9 L -182.1,-45.0 L -183.5,-45.5 L -184.6,-45.5 L -186.9,-45.1 L -187.4,-45.6 L -190.8,-47.6 L -191.5,-47.9 L -192.3,-49.4 L -192.3,-50.0 L -191.5,-50.3 L -189.7,-50.5 L -189.1,-50.3 L -187.5,-49.2 L -186.8,-48.9 L -186.1,-49.1 L -185.1,-50.2 L -184.7,-50.5 L -180.1,-51.2 L -179.6,-51.5 L -179.1,-51.9 L -178.5,-52.3 L -177.7,-52.4 L -176.8,-52.0 L -176.1,-51.4 L -175.4,-51.1 L -174.4,-51.2 L -173.5,-52.0 L -170.9,-55.6 L -165.8,-59.7 L -162.3,-63.6 L -160.4,-65.2 L -156.3,-66.5 L -152.0,-69.1 L -150.1,-70.0 L -148.1,-70.1 L -142.9,-70.0 L -140.5,-70.2 L -139.0,-70.1 L -137.7,-70.5 L -136.4,-71.2 L -135.2,-72.2 L -132.4,-73.4 L -129.6,-73.1 L -126.8,-72.4 L -124.1,-72.4 L -118.5,-74.4 L -115.7,-74.4 L -113.2,-72.2 L -110.9,-72.9 L -107.2,-73.6 L -105.4,-74.7 L -104.3,-76.0 L -103.4,-77.6 L -102.5,-79.3 L -101.1,-80.5 L -99.8,-80.8 L -97.1,-80.5 L -95.8,-80.6 L -93.2,-81.8 L -93.0,-82.2 L -92.5,-83.5 L -92.3,-85.7 L -90.9,-88.2 L -86.2,-90.9 L -82.3,-91.1 L -81.0,-92.5 L -84.3,-98.8 L -72.7,-108.2 L -72.2,-108.8 L -72.1,-109.6 L -72.3,-111.0 L -71.8,-113.1 L -71.9,-114.2 L -71.5,-115.1 L -70.1,-116.0 L -68.2,-116.1 L -66.9,-115.0 L -65.9,-113.6 L -64.7,-112.6 L -60.8,-113.3 L -62.0,-119.0 L -66.8,-130.2 L -65.7,-133.4 L -63.5,-136.1 L -61.0,-138.5 L -59.2,-141.0 L -58.3,-142.8 L -58.4,-143.3 L -59.1,-143.7 L -60.2,-145.4 L -63.0,-151.6 L -65.1,-153.8 L -70.8,-158.1 L -72.0,-160.3 L -71.2,-167.2 L -70.7,-167.5 L -69.8,-167.3 L -68.4,-167.5 L -64.6,-169.0 L -60.3,-170.0 L -55.9,-170.4 L -52.1,-169.6 L -48.4,-167.3 L -46.6,-166.8 L -43.8,-167.2 L -41.4,-168.0 L -39.8,-169.0 L -39.6,-169.2 L -38.3,-170.8 L -35.6,-179.4 L -35.4,-181.0 L -37.1,-187.0 L -36.7,-194.5 L -37.7,-198.1 L -40.1,-201.2 L -43.9,-204.4 L -45.6,-206.6 L -49.1,-214.2 L -52.9,-217.7 L -53.6,-218.9 L -53.6,-220.5 L -52.9,-221.7 L -52.1,-222.8 L -50.5,-227.1 L -48.3,-228.1 L -39.9,-227.7 L -38.4,-228.1 L -37.5,-229.2 L -37.8,-230.4 L -40.6,-231.9 L -41.5,-233.2 L -40.9,-235.1 L -38.9,-237.5 L -36.6,-239.6 L -34.6,-241.0 L -33.3,-241.2 L -32.1,-240.9 L -30.9,-240.9 L -29.4,-241.6 L -27.0,-244.5 L -24.9,-247.7 L -22.7,-253.1 L -21.4,-255.5 L -19.2,-257.5 L -18.1,-258.0 L -14.6,-258.9 L -13.4,-259.6 L -11.4,-261.9 L -9.8,-262.5 L -8.4,-263.0 L -6.5,-264.2 L -4.7,-265.8 L -4.0,-267.0 L -5.1,-267.7 L -6.7,-267.8 L -7.5,-268.4 L -5.7,-270.4 L -5.3,-270.8 L -4.8,-270.9 L -4.4,-270.8 L -3.9,-270.4 L -3.2,-269.5 L -3.1,-269.3 L -2.4,-266.7 L -2.0,-265.9 L -0.9,-265.4 L 2.3,-264.8 L 3.0,-264.5 L 2.9,-263.1 L 2.0,-262.5 L 0.8,-262.4 L -0.3,-262.0 L -2.9,-259.5 L -4.0,-258.8 L -5.7,-257.3 L -4.0,-256.0 L -1.0,-255.2 L 1.6,-255.1 L 4.2,-255.4 L 6.3,-255.0 L 10.8,-253.2 L 16.2,-251.8 L 18.6,-250.8 L 28.3,-243.0 L 34.3,-239.5 L 44.9,-231.2 L 45.9,-231.0 L 47.6,-231.2 L 48.5,-230.9 L 50.6,-228.7 L 51.7,-227.9 L 52.6,-227.8 L 55.5,-227.9 L 61.0,-227.0 L 62.6,-226.8 L 64.2,-227.2 L 65.5,-229.3 L 65.4,-231.7 L 63.8,-236.3 L 64.3,-240.0 L 67.2,-241.1 L 88.7,-242.4 L 90.5,-243.6 L 85.8,-276.5 L 87.8,-281.4 L 88.5,-284.5 L 89.0,-291.9 L 88.2,-295.1 L 85.5,-297.1 L 88.1,-299.6 L 91.5,-298.4 L 97.4,-294.1 L 101.0,-293.7 L 103.9,-294.3 L 106.6,-294.4 L 109.9,-292.5 L 112.2,-290.3 L 112.9,-289.0 L 113.2,-287.1 L 114.1,-285.1 L 115.6,-285.6 L 117.9,-288.1 L 119.4,-288.8 L 120.5,-289.1 L 123.6,-288.8 L 124.7,-288.4 L 125.7,-287.8 L 126.6,-287.4 L 127.5,-287.6 L 132.0,-289.3 L 136.6,-291.0 L 133.0,-303.5 L 132.4,-310.6 L 134.4,-315.6 L 136.8,-319.4 L 141.9,-336.5 L 141.6,-336.7 L 141.4,-337.1 L 141.1,-337.3 L 140.3,-337.1 L 143.8,-342.7 L 163.1,-353.3 L 165.3,-355.8 L 172.7,-364.0 L 175.6,-366.4 L 186.2,-372.4 L 193.3,-374.2 L 203.3,-372.0 L 233.8,-357.7 L 238.0,-356.7 L 240.0,-357.0 L 242.5,-358.1 L 249.0,-361.0 L 250.1,-361.9 L 250.6,-363.3 L 253.0,-395.8 L 254.0,-399.3 L 258.0,-401.0 L 264.2,-401.3 L 275.0,-400.4 L 284.1,-400.9 L 293.3,-402.6 L 338.6,-431.5 L 344.1,-434.1 L 369.1,-440.2 L 374.1,-442.3 L 378.7,-445.1 L 378.7,-445.2 L 405.7,-468.7 L 405.8,-468.7 L 412.7,-475.6 L 414.2,-476.7 L 416.6,-478.4 L 421.0,-479.6 L 449.7,-479.8 L 453.9,-479.8 L 455.1,-479.2 L 458.1,-471.2 L 459.4,-469.6 L 463.1,-469.5 L 467.8,-471.6 L 475.9,-476.5 L 484.1,-477.9 L 493.2,-475.8 L 510.7,-468.7 L 510.7,-468.7 L 543.6,-457.5 L 543.9,-454.4 L 542.7,-452.7 L 540.9,-451.2 L 539.3,-449.2 L 539.1,-445.4 L 542.9,-437.7 L 543.8,-433.7 L 535.0,-409.3 L 535.8,-402.6 L 539.7,-396.2 L 541.5,-394.6 L 560.3,-377.7 L 565.9,-370.3 L 566.2,-369.5 L 566.1,-368.5 L 564.9,-366.9 L 564.4,-365.7 L 563.7,-361.6 L 563.1,-360.0 L 559.9,-355.2 L 559.4,-353.7 L 560.0,-352.2 L 561.6,-349.7 L 562.4,-348.8 L 563.2,-348.2 L 564.0,-347.5 L 564.5,-346.4 L 564.4,-345.5 L 563.3,-343.4 L 563.3,-342.2 L 564.5,-340.9 L 566.2,-340.0 L 567.6,-338.9 L 567.8,-336.5 L 568.9,-334.2 L 571.0,-332.7 L 573.3,-331.6 L 574.7,-330.0 L 574.7,-328.9 L 573.6,-326.5 L 573.7,-325.1 L 574.5,-324.1 L 577.2,-322.4 L 578.2,-321.2 L 579.3,-318.8 L 580.4,-317.4 L 580.9,-316.6 L 582.9,-314.8 L 587.3,-311.9 L 588.7,-310.2 L 590.1,-308.6 L 592.6,-307.7 L 593.5,-306.5 L 592.7,-304.0 L 591.5,-301.2 L 590.9,-299.2 L 592.7,-295.9 L 596.2,-294.7 L 613.5,-295.3 L 614.8,-295.0 L 615.2,-294.1 L 615.2,-293.0 L 615.3,-292.2 L 615.2,-291.7 L 614.8,-291.2 L 614.9,-290.3 L 616.4,-288.8 L 619.0,-287.6 L 621.3,-287.5 L 626.2,-288.0 L 632.3,-286.1 L 639.3,-282.0 L 644.6,-276.4 L 645.3,-270.4 L 647.7,-266.4 L 652.0,-263.3 L 666.3,-256.8 L 668.6,-256.0 L 674.2,-255.3 L 676.4,-254.8 L 678.4,-253.4 L 680.9,-250.6 L 677.3,-249.2 L 674.8,-250.4 L 672.6,-252.3 L 670.3,-253.0 L 669.6,-252.3 L 669.0,-250.8 L 667.6,-246.3 L 666.7,-246.0 L 663.8,-247.2 L 656.8,-249.0 L 646.4,-253.1 L 643.6,-253.6 L 641.9,-248.3 L 641.9,-237.1 L 642.0,-224.6 L 642.0,-216.2 L 642.1,-213.8 L 642.4,-211.3 L 643.6,-209.1 L 647.3,-207.1 L 656.7,-206.3 L 660.6,-204.4 L 668.1,-198.2 L 675.9,-191.6 L 685.6,-183.5 L 689.0,-180.7 L 699.6,-171.8 L 706.8,-165.8 L 715.8,-158.3 L 719.4,-156.2 L 723.8,-155.1 L 737.2,-154.0 L 753.7,-152.6 L 756.0,-152.8 L 758.2,-154.3 L 759.8,-156.5 L 761.2,-159.1 L 763.4,-162.4 L 764.3,-164.1 L 764.9,-164.8 L 765.9,-165.0 L 766.9,-164.6 L 767.9,-164.4 L 769.3,-165.3 L 771.5,-167.7 L 772.7,-168.4 L 785.5,-167.4 L 790.7,-166.0 L 794.1,-162.0 L 794.9,-159.4 L 795.4,-158.7 L 796.8,-157.3 L 798.1,-156.2 L 800.5,-154.7 L 801.7,-153.3 L 802.6,-151.5 L 803.0,-149.8 L 804.0,-141.8 L 804.6,-140.2 L 805.7,-138.1 L 806.4,-137.1 L 808.1,-135.3 L 808.6,-134.3 L 808.6,-133.7 L 808.2,-132.3 L 808.2,-131.7 L 808.5,-128.8 L 807.5,-127.3 L 805.6,-126.9 L 797.9,-126.2 L 797.2,-126.3 L 795.8,-127.0 L 795.4,-127.1 L 794.6,-126.7 L 793.6,-125.4 L 793.0,-124.9 L 785.5,-123.4 L 783.5,-121.7 L 783.2,-117.9 L 785.7,-113.3 L 791.3,-105.5 L 801.1,-91.9 L 810.3,-79.1 L 820.6,-64.8 L 827.4,-59.0 Z"/></g>
<path d="M 493.3,41.6 L 500.0,43.0 L 506.8,44.4 L 522.8,47.7 L 552.6,53.7 L 564.0,56.1 L 578.6,59.1 L 578.9,59.2 L 579.1,59.5 L 579.2,60.0 L 579.0,60.5 L 578.9,61.1 L 578.7,61.6 L 578.3,62.2 L 580.4,62.7 L 578.8,68.3 L 595.1,62.6 L 603.3,61.0 L 615.9,60.8 L 632.9,60.4 L 629.5,68.6 L 629.1,71.2 L 629.4,72.6 L 630.5,75.3 L 630.7,76.7 L 628.7,80.6 L 628.4,82.1 L 628.2,85.1 L 627.8,86.4 L 626.1,88.9 L 619.0,95.6 L 617.2,100.0 L 618.2,112.0 L 618.1,117.1 L 616.2,124.5 L 614.4,138.1 L 614.5,141.1 L 615.5,143.1 L 625.4,149.7 L 637.8,158.0 L 645.4,163.0 L 656.5,170.4 L 675.2,182.9 L 689.0,192.1 L 690.7,196.6 L 690.7,197.6 L 690.8,207.4 L 691.1,221.8 L 691.2,232.1 L 692.3,238.2 L 692.1,239.9 L 691.8,241.2 L 691.8,243.8 L 691.7,245.2 L 690.8,246.8 L 688.5,250.4 L 688.0,252.1 L 688.4,254.8 L 689.7,258.1 L 691.7,260.0 L 693.9,258.9 L 695.4,262.7 L 696.3,276.1 L 698.2,281.4 L 700.7,285.2 L 701.3,286.2 L 711.8,297.2 L 719.9,305.8 L 722.6,310.5 L 723.6,313.7 L 724.3,317.3 L 724.5,333.8 L 724.7,348.2 L 724.9,360.5 L 725.1,378.2 L 725.2,382.1 L 725.3,383.7 L 726.0,385.2 L 729.4,389.5 L 729.9,390.8 L 729.4,393.1 L 725.2,400.2 L 724.9,401.4 L 724.9,403.7 L 724.3,406.9 L 724.7,407.4 L 725.4,407.7 L 726.1,408.9 L 727.5,420.2 L 727.3,435.4 L 726.9,456.5 L 727.0,477.4 L 727.1,503.6 L 727.1,505.9 L 727.2,517.3 L 727.3,530.3 L 727.3,550.0 L 727.4,569.2 L 727.5,588.6 L 725.1,589.3 L 715.3,589.2 L 717.8,598.6 L 719.3,600.8 L 719.5,601.0 L 721.4,602.4 L 722.6,603.9 L 722.9,605.7 L 721.9,611.3 L 722.0,613.5 L 722.5,615.8 L 723.5,618.5 L 724.3,621.7 L 723.8,623.7 L 722.7,625.1 L 720.8,627.8 L 719.7,630.7 L 720.6,632.2 L 722.2,633.6 L 723.7,636.2 L 723.7,637.3 L 723.5,638.4 L 723.4,639.6 L 723.8,640.9 L 724.6,642.0 L 725.6,643.1 L 726.7,644.0 L 727.7,644.6 L 729.0,644.7 L 730.3,644.6 L 731.2,644.9 L 731.4,646.4 L 731.7,647.4 L 733.9,649.2 L 734.7,650.3 L 734.9,651.6 L 734.6,654.4 L 734.8,655.6 L 735.7,656.3 L 738.5,657.8 L 739.6,658.6 L 743.0,664.1 L 745.5,674.0 L 748.0,683.7 L 745.3,683.9 L 728.5,687.9 L 725.8,689.3 L 726.7,692.1 L 726.7,692.1 L 701.9,696.3 L 681.2,702.7 L 671.8,706.8 L 670.8,706.9 L 670.0,707.1 L 670.3,702.4 L 668.8,700.3 L 658.0,699.1 L 656.2,698.2 L 654.7,696.5 L 653.0,693.8 L 652.0,692.7 L 651.0,692.1 L 650.1,691.7 L 649.0,691.0 L 647.0,688.0 L 643.6,677.4 L 633.6,677.4 L 630.9,676.7 L 629.3,675.4 L 625.0,670.2 L 621.7,668.1 L 615.3,664.9 L 612.5,662.1 L 610.4,658.9 L 608.9,655.7 L 608.1,652.5 L 608.2,649.8 L 608.3,649.0 L 609.1,647.3 L 610.0,646.1 L 610.1,644.8 L 608.4,643.2 L 607.3,642.9 L 603.6,643.0 L 602.4,642.9 L 601.2,640.8 L 599.4,639.5 L 597.7,637.9 L 596.9,635.1 L 598.1,628.4 L 597.9,626.3 L 596.8,624.2 L 594.9,622.3 L 592.7,621.1 L 590.4,620.6 L 589.5,619.4 L 585.8,612.3 L 584.2,611.1 L 582.9,610.3 L 582.5,609.1 L 583.4,606.3 L 586.1,601.7 L 586.4,599.4 L 584.9,596.6 L 581.2,593.7 L 579.7,591.7 L 581.6,591.1 L 583.5,591.0 L 589.0,589.5 L 590.7,588.6 L 593.2,584.1 L 593.3,578.3 L 592.7,572.3 L 593.2,567.2 L 596.3,559.2 L 597.5,553.1 L 599.3,548.3 L 599.4,545.4 L 597.3,536.7 L 596.5,535.6 L 591.7,537.4 L 589.1,537.8 L 586.7,537.5 L 582.6,533.8 L 580.5,528.0 L 579.8,521.5 L 580.3,513.8 L 580.8,512.2 L 581.6,510.8 L 582.9,509.5 L 584.6,508.7 L 586.7,508.2 L 588.5,507.2 L 589.2,505.5 L 589.2,501.9 L 589.6,497.8 L 591.3,495.1 L 595.1,495.7 L 594.7,493.1 L 595.0,486.2 L 593.8,478.7 L 593.9,470.8 L 593.8,470.1 L 592.5,461.4 L 592.6,456.5 L 592.6,453.9 L 591.4,449.0 L 590.9,442.8 L 590.2,439.5 L 590.8,438.6 L 591.9,437.8 L 592.6,436.1 L 592.4,434.3 L 591.5,433.1 L 590.4,432.1 L 589.9,430.8 L 590.0,429.0 L 590.7,428.5 L 591.7,428.4 L 592.8,427.9 L 597.2,424.0 L 599.4,422.5 L 605.1,419.9 L 607.2,418.6 L 608.2,416.6 L 607.7,413.4 L 607.2,412.9 L 605.6,412.7 L 605.1,412.2 L 605.0,411.6 L 605.1,410.3 L 604.8,408.3 L 604.9,406.8 L 604.6,405.4 L 599.6,401.3 L 597.9,396.3 L 595.6,391.4 L 587.0,387.4 L 583.6,384.9 L 580.5,382.0 L 578.2,379.4 L 573.0,375.8 L 567.8,368.5 L 564.0,360.2 L 563.2,355.4 L 562.9,353.7 L 563.8,352.4 L 565.4,352.1 L 566.9,352.7 L 568.3,355.7 L 569.7,354.1 L 570.6,351.9 L 569.9,351.4 L 571.3,351.0 L 572.5,351.1 L 573.8,351.5 L 575.5,351.8 L 576.9,351.1 L 577.4,349.4 L 577.6,347.3 L 578.2,345.7 L 578.3,345.6 L 581.1,341.5 L 579.5,335.0 L 573.2,324.3 L 573.2,324.3 L 573.2,324.3 L 571.4,320.2 L 572.8,316.1 L 575.0,312.0 L 575.7,307.8 L 575.6,305.7 L 576.5,304.4 L 579.4,301.8 L 581.0,299.1 L 581.0,297.0 L 579.3,292.3 L 579.5,289.6 L 580.5,288.4 L 582.0,287.5 L 583.3,286.1 L 583.9,284.5 L 584.1,280.6 L 585.3,273.9 L 584.5,270.8 L 582.1,268.7 L 578.2,267.4 L 578.1,267.3 L 578.1,267.1 L 578.1,267.0 L 579.0,265.5 L 579.3,264.2 L 579.1,262.9 L 578.2,261.7 L 571.3,259.2 L 568.8,258.8 L 563.6,259.1 L 560.7,259.6 L 558.7,260.5 L 558.0,261.5 L 557.6,264.2 L 557.1,265.3 L 556.1,266.1 L 550.1,268.2 L 547.7,268.7 L 545.3,268.5 L 544.7,266.7 L 545.8,265.2 L 544.8,263.1 L 544.9,261.2 L 550.3,260.1 L 552.3,259.3 L 554.0,258.1 L 554.5,256.8 L 553.4,255.3 L 551.5,255.2 L 548.2,255.9 L 546.8,255.3 L 545.5,254.4 L 544.6,253.5 L 544.2,253.1 L 544.2,252.3 L 544.8,248.6 L 545.1,247.7 L 551.7,248.5 L 554.9,248.3 L 557.2,246.8 L 559.0,247.9 L 561.4,248.3 L 563.5,247.7 L 564.4,245.9 L 563.3,243.2 L 560.7,242.7 L 555.4,244.0 L 551.3,243.6 L 549.2,240.8 L 549.2,237.0 L 551.0,233.2 L 554.5,236.9 L 556.7,238.1 L 559.0,237.8 L 560.4,236.2 L 560.8,233.9 L 560.5,231.5 L 559.9,229.5 L 559.0,228.2 L 558.1,227.2 L 557.4,225.7 L 557.2,223.3 L 560.0,213.0 L 560.0,211.5 L 559.4,206.2 L 559.7,204.4 L 560.8,202.4 L 562.4,200.6 L 563.3,199.7 L 563.4,198.7 L 562.5,196.0 L 561.0,192.9 L 560.8,192.0 L 561.0,190.8 L 561.5,190.0 L 561.5,189.1 L 560.8,187.8 L 563.1,187.4 L 565.1,187.7 L 566.5,187.4 L 566.6,187.0 L 567.1,184.8 L 566.7,182.1 L 565.6,181.2 L 564.2,180.9 L 562.5,179.8 L 561.3,176.4 L 561.9,167.0 L 561.7,162.6 L 562.7,160.8 L 563.1,158.6 L 563.7,156.6 L 566.9,154.2 L 564.2,152.0 L 563.0,151.4 L 557.2,152.4 L 555.4,152.4 L 556.6,149.7 L 555.2,147.6 L 553.0,145.6 L 551.5,143.2 L 551.7,142.1 L 552.1,140.7 L 552.0,139.2 L 550.8,137.9 L 549.4,137.6 L 548.2,138.0 L 547.0,138.6 L 545.5,139.0 L 544.3,138.8 L 540.8,137.4 L 540.5,137.8 L 540.1,138.7 L 539.6,139.5 L 538.6,139.6 L 538.2,139.1 L 531.5,126.7 L 529.4,124.5 L 522.5,120.1 L 521.5,118.8 L 519.9,115.9 L 518.9,114.7 L 517.7,113.9 L 513.6,112.6 L 512.4,111.8 L 511.6,111.0 L 510.7,110.4 L 507.7,110.0 L 506.1,109.6 L 504.7,108.9 L 503.5,107.9 L 502.2,105.2 L 502.3,102.4 L 503.1,99.1 L 503.5,97.2 L 504.2,91.7 L 505.2,89.4 L 507.1,87.1 L 509.7,85.2 L 510.9,84.2 L 511.1,82.8 L 510.4,80.2 L 510.3,78.9 L 513.2,65.6 L 513.8,64.4 L 514.8,63.3 L 516.0,62.5 L 516.9,61.6 L 517.2,60.0 L 517.6,55.3 L 517.2,51.2 L 515.2,48.1 L 510.8,46.4 L 508.4,46.5 L 503.9,47.7 L 501.5,47.9 L 499.1,47.3 L 496.5,45.8 L 494.3,43.8 L 493.3,41.6 Z" fill="url(#land)" fill-rule="evenodd" stroke="#31576a" stroke-width="1.5" stroke-linejoin="round" stroke-linecap="round" filter="url(#shadow)"/>
</svg>
