<svg xmlns="http://www.w3.org/2000/svg" viewBox="0 0 1200 760" role="img" aria-label="Map of Mali" data-map-style="journey-atlas-map-v3-clean-background" data-map-projection="local-equirectangular-fit-v1">
<metadata>Target and surrounding national geometry: Natural Earth 1:10m Admin-0 MLI/MRT/DZA/NER/BFA/CIV/GIN/SEN, WGS84, public domain, via LonnyGomes/CountryGeoJSONCollection commit 5120290da88f3f205f74aa55f3c8fa1f19d1bc8b. Shared JOURNEY ATLAS 1200×760 local-equirectangular-fit map-v3 styling; generated 2026-09-27.</metadata>
<defs><linearGradient id="sea" x1="0" y1="0" x2="1" y2="1"><stop offset="0" stop-color="#eaf2f4"/><stop offset=".55" stop-color="#dcebf0"/><stop offset="1" stop-color="#d0e3eb"/></linearGradient><linearGradient id="land" x1=".12" y1=".08" x2=".88" y2=".92"><stop offset="0" stop-color="#e2dbad"/><stop offset=".52" stop-color="#d4cc9b"/><stop offset="1" stop-color="#c8bf8a"/></linearGradient><filter id="shadow" x="-10%" y="-10%" width="120%" height="120%"><feGaussianBlur in="SourceAlpha" stdDeviation="4" result="b"/><feOffset in="b" dy="3" result="o"/><feColorMatrix in="o" type="matrix" values="0 0 0 0 .12 0 0 0 0 .22 0 0 0 0 .28 0 0 0 .14 0"/><feBlend in="SourceGraphic" mode="normal"/></filter></defs>
<rect width="1200" height="760" fill="url(#sea)"/>
<g id="geographic-context"><path d="M 400.9,-35.1 L 535.5,48.1 L 565.1,67.3 L 489.7,67.3 L 493.5,99.7 L 517.1,313.1 L 531.0,445.8 L 531.7,447.2 L 542.0,454.4 L 542.4,454.9 L 542.5,455.5 L 535.8,492.0 L 372.6,492.0 L 372.8,487.9 L 373.4,484.8 L 373.3,483.4 L 372.3,482.9 L 371.4,483.5 L 368.8,486.6 L 368.2,487.8 L 368.2,489.1 L 369.4,494.4 L 358.8,494.9 L 356.8,495.3 L 353.5,497.1 L 351.9,497.5 L 347.0,497.1 L 342.0,497.8 L 340.3,497.8 L 339.3,497.5 L 336.9,496.0 L 335.4,496.1 L 331.8,494.7 L 331.2,494.6 L 329.1,494.7 L 328.0,494.5 L 323.0,494.5 L 322.1,494.4 L 319.1,495.1 L 317.3,495.1 L 314.7,494.7 L 314.1,494.8 L 313.6,495.2 L 313.4,496.1 L 313.5,497.9 L 313.1,498.9 L 312.1,499.6 L 311.7,500.3 L 310.4,500.6 L 309.7,501.3 L 309.0,503.6 L 308.5,504.4 L 307.4,505.5 L 307.0,506.2 L 306.4,508.8 L 306.0,509.5 L 304.6,507.3 L 303.0,505.7 L 301.8,503.4 L 300.4,502.0 L 289.7,494.0 L 288.9,493.0 L 285.0,487.2 L 283.9,486.2 L 282.9,485.8 L 280.1,485.4 L 280.0,485.4 L 280.0,485.6 L 280.6,486.2 L 280.5,486.8 L 280.1,487.3 L 277.7,488.3 L 276.2,489.9 L 275.0,490.6 L 273.9,490.5 L 271.5,489.9 L 271.4,491.9 L 270.3,493.1 L 269.7,494.6 L 269.1,497.8 L 267.6,500.9 L 267.2,503.7 L 266.4,506.1 L 266.3,507.0 L 266.4,508.5 L 265.9,510.4 L 265.8,511.9 L 266.2,512.2 L 267.0,511.9 L 267.8,512.8 L 267.8,514.3 L 267.3,515.8 L 267.0,517.4 L 267.5,518.6 L 266.8,518.9 L 265.7,520.6 L 265.1,521.2 L 264.3,521.6 L 262.6,522.0 L 262.0,522.5 L 261.0,524.0 L 260.2,524.5 L 259.4,524.7 L 257.7,524.5 L 257.4,524.8 L 256.9,526.0 L 254.6,524.1 L 254.0,523.8 L 251.2,524.6 L 250.3,524.7 L 249.4,524.5 L 248.6,524.2 L 246.3,522.3 L 243.6,521.0 L 242.8,520.4 L 241.4,518.6 L 240.8,518.3 L 239.8,514.2 L 239.2,513.3 L 237.8,512.9 L 234.3,510.6 L 233.4,509.5 L 233.0,509.4 L 230.5,510.0 L 229.4,509.5 L 227.8,507.9 L 226.7,507.6 L 226.5,506.7 L 226.7,505.2 L 226.4,504.5 L 225.6,504.1 L 224.2,504.3 L 223.4,504.2 L 222.1,502.9 L 221.8,502.3 L 222.3,502.0 L 223.7,502.2 L 224.4,502.0 L 224.7,501.4 L 224.4,500.7 L 223.8,500.1 L 221.3,498.4 L 220.8,497.8 L 220.3,496.4 L 220.2,494.5 L 219.4,493.3 L 219.3,492.1 L 218.9,491.4 L 218.2,491.0 L 217.5,491.1 L 215.7,492.4 L 215.1,492.4 L 213.8,492.1 L 213.5,491.9 L 213.3,491.1 L 213.5,489.0 L 213.4,488.4 L 212.7,487.5 L 210.9,486.7 L 209.8,486.0 L 207.2,486.2 L 206.8,484.8 L 207.0,484.0 L 207.6,483.0 L 207.6,482.3 L 206.7,480.9 L 205.2,479.7 L 205.1,479.3 L 205.4,478.2 L 205.4,477.3 L 204.9,475.9 L 203.9,474.7 L 203.9,472.5 L 202.2,471.0 L 201.6,470.1 L 201.0,468.6 L 200.8,467.1 L 199.4,466.0 L 198.6,464.9 L 198.0,464.8 L 196.4,465.5 L 196.0,465.2 L 196.1,464.5 L 196.8,463.1 L 196.7,462.5 L 196.2,462.4 L 193.1,463.2 L 191.5,463.9 L 190.3,464.0 L 188.9,464.7 L 188.5,464.6 L 187.7,464.1 L 187.4,463.7 L 186.7,463.3 L 186.6,462.9 L 187.1,461.0 L 186.3,460.9 L 185.6,461.3 L 184.2,463.0 L 183.5,463.5 L 182.5,464.1 L 181.8,464.0 L 180.8,463.1 L 180.3,461.4 L 179.8,460.8 L 178.7,460.0 L 177.1,459.5 L 176.3,459.1 L 176.2,458.4 L 176.4,457.2 L 175.7,456.0 L 176.0,454.9 L 175.8,454.3 L 174.2,453.5 L 173.1,452.3 L 171.7,451.5 L 169.2,449.2 L 167.7,447.5 L 166.4,446.5 L 165.7,445.5 L 165.4,445.3 L 163.9,445.1 L 163.4,444.9 L 163.2,444.6 L 163.0,443.4 L 162.6,443.2 L 161.0,443.4 L 160.6,443.2 L 160.5,442.9 L 160.7,441.5 L 160.6,441.2 L 157.5,439.9 L 156.7,439.9 L 154.8,441.0 L 153.9,441.1 L 151.2,440.8 L 149.0,441.3 L 146.9,440.5 L 144.6,441.0 L 137.3,440.5 L 136.0,440.8 L 135.2,440.6 L 134.4,439.4 L 133.9,438.8 L 133.4,438.5 L 132.0,439.2 L 131.7,439.6 L 131.5,440.5 L 130.7,441.1 L 130.1,441.1 L 128.9,439.7 L 128.3,439.5 L 127.7,439.7 L 127.4,440.1 L 127.3,440.7 L 127.5,441.3 L 128.2,442.0 L 128.3,442.6 L 127.9,443.0 L 127.0,443.4 L 122.4,444.1 L 119.7,443.8 L 118.4,443.8 L 115.9,444.7 L 114.7,444.9 L 114.2,444.7 L 113.6,443.8 L 113.2,443.5 L 112.6,443.4 L 111.4,444.2 L 110.0,446.1 L 108.9,446.4 L 107.0,446.0 L 106.4,446.1 L 104.9,447.3 L 103.7,447.9 L 103.1,447.9 L 101.0,447.2 L 99.7,447.1 L 97.7,446.4 L 95.7,446.6 L 94.2,446.2 L 93.6,446.3 L 91.6,447.1 L 90.4,446.8 L 89.5,447.2 L 88.5,447.4 L 87.5,447.3 L 86.6,446.8 L 85.1,445.0 L 84.2,444.6 L 83.2,444.9 L 81.5,446.0 L 80.5,446.1 L 79.1,445.8 L 78.1,446.0 L 77.2,446.6 L 76.5,447.4 L 75.9,448.2 L 75.5,449.0 L 75.3,450.8 L 73.4,458.9 L 73.1,459.4 L 72.5,459.8 L 70.9,460.2 L 70.3,460.7 L 70.0,461.6 L 69.8,464.7 L 68.2,468.9 L 68.1,473.8 L 67.7,476.3 L 66.7,478.0 L 67.4,470.4 L 66.9,457.5 L 67.3,454.5 L 68.8,451.5 L 69.1,449.2 L 69.9,447.4 L 69.9,442.6 L 70.3,440.6 L 73.7,431.8 L 74.6,430.3 L 75.2,427.3 L 75.9,425.8 L 78.0,422.9 L 81.6,414.9 L 81.8,413.8 L 82.4,413.0 L 86.4,400.3 L 87.7,394.9 L 88.0,388.9 L 88.8,381.8 L 88.3,373.7 L 86.8,358.4 L 86.4,356.8 L 84.2,351.9 L 83.2,346.4 L 82.4,344.5 L 82.8,343.5 L 82.7,342.3 L 81.1,336.1 L 79.6,332.6 L 77.8,329.5 L 74.1,325.4 L 73.4,325.3 L 72.3,324.6 L 70.6,324.1 L 69.9,323.7 L 68.3,319.6 L 67.0,318.3 L 67.6,317.6 L 70.1,318.2 L 72.4,317.9 L 74.5,316.7 L 76.0,314.8 L 77.0,313.1 L 77.3,312.2 L 77.7,311.6 L 77.8,311.3 L 77.6,311.0 L 77.1,310.8 L 76.7,311.0 L 74.4,313.6 L 73.1,314.5 L 74.9,310.9 L 74.3,311.2 L 72.6,312.6 L 71.7,313.7 L 71.3,314.7 L 71.5,315.5 L 71.1,316.8 L 70.4,317.0 L 70.0,316.9 L 69.9,316.0 L 69.9,314.5 L 70.3,313.8 L 71.4,312.7 L 71.8,311.0 L 73.4,309.6 L 77.5,303.5 L 78.3,302.8 L 78.5,301.2 L 79.8,299.8 L 79.8,298.9 L 79.2,298.3 L 79.8,297.6 L 79.8,296.8 L 78.9,297.4 L 78.8,296.7 L 79.4,295.6 L 79.2,294.9 L 78.5,294.4 L 77.9,294.8 L 77.5,295.8 L 76.8,296.3 L 76.5,296.1 L 76.5,295.5 L 77.1,294.1 L 79.6,291.5 L 80.3,290.4 L 80.7,289.1 L 80.5,288.0 L 78.7,284.5 L 79.6,284.4 L 80.8,282.7 L 81.3,281.0 L 81.2,280.2 L 79.7,277.6 L 78.4,277.3 L 78.1,276.4 L 77.2,275.8 L 76.0,272.9 L 75.0,271.9 L 74.9,271.5 L 75.4,271.1 L 75.3,270.9 L 74.9,270.1 L 74.8,269.3 L 73.2,265.1 L 72.7,264.5 L 72.1,264.3 L 71.8,263.7 L 71.5,261.8 L 70.8,262.1 L 69.9,261.5 L 69.9,261.2 L 72.4,260.4 L 71.5,260.3 L 70.0,260.5 L 69.3,260.4 L 68.8,259.7 L 69.1,259.4 L 68.5,258.1 L 67.3,257.6 L 67.0,259.5 L 67.3,263.8 L 66.7,265.5 L 66.3,264.8 L 64.3,263.3 L 63.4,261.7 L 61.2,260.3 L 61.2,259.8 L 61.8,259.4 L 61.3,257.6 L 59.6,256.2 L 59.4,255.8 L 59.4,255.0 L 58.6,253.9 L 58.1,251.8 L 57.1,250.0 L 56.8,248.7 L 56.3,249.3 L 55.6,248.7 L 55.1,246.5 L 54.1,245.5 L 53.7,244.4 L 52.7,243.0 L 52.1,241.0 L 51.6,239.8 L 50.8,238.8 L 50.2,239.1 L 49.1,241.1 L 47.3,243.6 L 46.8,244.0 L 46.6,244.5 L 46.9,245.3 L 47.4,245.1 L 47.4,245.8 L 47.1,248.9 L 46.9,249.3 L 45.5,249.8 L 45.2,250.2 L 45.1,250.6 L 45.7,251.4 L 46.1,252.4 L 45.6,254.8 L 45.3,255.8 L 44.9,256.3 L 43.8,251.5 L 44.0,250.2 L 45.3,244.7 L 47.1,239.5 L 48.6,231.4 L 49.0,231.0 L 216.7,231.0 L 213.4,179.0 L 212.8,176.1 L 210.8,170.4 L 210.3,167.5 L 210.9,164.5 L 212.2,161.7 L 216.7,155.7 L 233.5,144.4 L 236.1,143.5 L 243.3,142.5 L 244.8,142.1 L 254.1,137.7 L 258.5,136.6 L 259.0,135.9 L 259.2,134.3 L 259.2,22.6 L 399.9,22.6 L 400.7,22.4 L 401.0,21.8 L 400.9,-35.1 Z M 73.7,298.9 L 74.5,297.2 L 75.1,296.5 L 75.5,297.0 L 74.2,303.1 L 73.1,305.9 L 71.4,308.4 L 70.5,307.2 L 70.6,305.9 L 70.1,304.7 L 70.3,303.9 L 71.7,301.8 L 71.7,300.1 L 72.0,299.3 L 72.6,298.6 L 73.2,298.4 L 73.7,298.9 Z M 76.1,302.7 L 76.6,302.6 L 77.0,303.0 L 76.5,303.8 L 75.2,305.1 L 74.5,306.3 L 72.9,308.5 L 73.1,307.7 L 74.5,305.0 L 76.1,302.7 Z M 69.5,302.6 L 69.8,302.7 L 69.7,304.0 L 69.2,305.0 L 68.9,304.7 L 68.7,303.8 L 68.9,302.9 L 69.5,302.6 Z M 70.3,263.1 L 70.8,263.4 L 70.7,264.9 L 70.5,265.1 L 69.9,264.8 L 69.6,264.0 L 69.8,263.4 L 70.3,263.1 Z M 565.1,67.3 L 535.5,48.1 L 400.9,-35.1 L 400.9,-96.8 L 401.1,-98.0 L 401.5,-98.9 L 402.3,-99.5 L 407.8,-102.2 L 409.7,-103.7 L 411.6,-104.7 L 412.2,-105.2 L 413.6,-107.6 L 414.3,-108.0 L 416.5,-109.0 L 419.3,-111.5 L 422.2,-113.4 L 427.0,-115.3 L 428.4,-116.2 L 432.3,-119.6 L 436.8,-122.5 L 439.4,-124.7 L 441.4,-125.7 L 444.7,-128.6 L 446.1,-129.2 L 450.9,-128.8 L 452.7,-129.2 L 457.6,-128.9 L 461.4,-132.7 L 466.2,-134.5 L 469.5,-134.8 L 474.2,-134.5 L 481.7,-131.7 L 485.2,-134.8 L 491.2,-135.5 L 497.4,-137.0 L 503.3,-137.7 L 514.9,-137.7 L 520.0,-138.6 L 525.3,-139.2 L 526.8,-135.2 L 530.4,-133.9 L 534.5,-135.2 L 539.0,-140.5 L 542.9,-146.1 L 545.8,-151.4 L 550.0,-155.5 L 554.5,-158.3 L 559.2,-162.0 L 562.8,-164.5 L 567.2,-166.7 L 573.5,-169.2 L 579.4,-173.6 L 584.2,-179.2 L 588.3,-181.4 L 593.4,-182.6 L 599.9,-183.0 L 607.0,-184.5 L 615.1,-188.3 L 614.5,-193.9 L 616.6,-195.8 L 618.9,-199.2 L 616.6,-202.6 L 616.4,-204.2 L 616.0,-205.0 L 615.5,-205.5 L 613.9,-206.1 L 613.2,-206.8 L 612.0,-208.5 L 611.4,-209.1 L 610.7,-209.2 L 610.0,-208.9 L 608.8,-207.9 L 608.0,-207.6 L 607.3,-207.6 L 606.8,-208.0 L 606.7,-208.8 L 607.0,-209.7 L 607.9,-211.0 L 608.0,-212.1 L 607.7,-215.4 L 607.9,-216.2 L 608.4,-216.9 L 610.7,-218.4 L 613.9,-218.6 L 614.5,-230.1 L 617.4,-231.5 L 619.2,-231.1 L 620.8,-231.3 L 633.2,-233.3 L 642.4,-235.8 L 649.8,-236.7 L 645.1,-248.1 L 647.6,-249.3 L 655.5,-249.9 L 663.1,-251.8 L 716.9,-249.5 L 718.6,-249.9 L 719.4,-251.5 L 719.2,-252.4 L 718.5,-253.0 L 717.7,-253.2 L 716.8,-253.2 L 715.3,-252.6 L 714.6,-252.6 L 714.4,-253.4 L 715.5,-254.4 L 715.8,-254.9 L 716.6,-260.2 L 717.2,-261.8 L 718.3,-263.4 L 719.0,-263.8 L 720.7,-264.0 L 722.3,-264.6 L 723.7,-265.5 L 726.2,-268.0 L 725.5,-269.0 L 713.6,-277.1 L 710.9,-278.0 L 709.6,-279.1 L 703.8,-287.6 L 705.6,-288.8 L 706.2,-289.5 L 706.6,-291.3 L 706.6,-292.4 L 706.3,-293.3 L 703.3,-295.6 L 702.4,-296.7 L 701.8,-298.1 L 701.0,-299.4 L 698.9,-301.2 L 698.5,-302.7 L 698.5,-307.1 L 699.5,-309.4 L 700.3,-311.8 L 701.0,-312.7 L 701.5,-313.9 L 701.3,-315.4 L 699.4,-319.4 L 698.2,-320.4 L 696.7,-320.9 L 696.1,-321.3 L 695.8,-322.0 L 696.0,-322.7 L 697.3,-324.0 L 697.7,-324.6 L 697.7,-325.1 L 697.2,-326.4 L 696.9,-328.6 L 697.0,-330.7 L 699.0,-337.9 L 699.1,-338.8 L 698.9,-340.0 L 695.8,-348.3 L 694.8,-350.3 L 693.1,-351.9 L 697.7,-356.7 L 695.6,-357.4 L 690.5,-362.0 L 690.9,-362.7 L 693.1,-365.7 L 694.1,-367.7 L 694.7,-368.1 L 694.8,-368.4 L 694.1,-369.1 L 689.6,-371.6 L 688.2,-372.8 L 685.9,-374.0 L 685.3,-374.6 L 684.9,-376.3 L 684.3,-376.7 L 682.4,-376.9 L 681.0,-377.7 L 679.7,-378.7 L 678.1,-379.7 L 676.8,-380.2 L 676.0,-381.0 L 675.6,-382.2 L 675.6,-384.0 L 676.5,-384.3 L 677.1,-384.0 L 678.4,-384.5 L 682.8,-383.4 L 685.6,-383.7 L 686.9,-383.4 L 687.9,-384.0 L 691.9,-385.0 L 693.0,-385.7 L 695.2,-385.8 L 695.9,-386.2 L 697.2,-387.6 L 700.4,-388.7 L 700.8,-389.5 L 705.9,-393.2 L 706.7,-393.5 L 710.7,-393.8 L 711.8,-394.1 L 713.4,-395.6 L 714.2,-395.8 L 715.0,-396.3 L 716.2,-397.4 L 717.0,-400.5 L 718.0,-402.0 L 719.8,-405.8 L 720.3,-406.0 L 721.3,-406.0 L 722.6,-407.6 L 725.3,-409.5 L 726.2,-410.5 L 727.7,-410.8 L 729.8,-412.2 L 730.8,-412.4 L 731.4,-412.4 L 731.8,-411.8 L 732.3,-412.0 L 734.0,-412.8 L 735.0,-414.4 L 736.0,-414.6 L 737.0,-413.8 L 739.8,-413.2 L 740.6,-412.2 L 742.7,-412.2 L 743.4,-412.3 L 745.0,-413.2 L 745.5,-414.5 L 746.0,-414.5 L 747.1,-414.3 L 747.8,-414.9 L 749.8,-418.4 L 749.7,-419.8 L 749.9,-419.8 L 750.6,-419.5 L 752.3,-419.5 L 755.3,-420.6 L 755.8,-420.3 L 756.0,-419.8 L 757.2,-419.2 L 757.4,-418.8 L 757.1,-418.2 L 757.2,-417.7 L 757.9,-417.0 L 759.0,-416.5 L 762.1,-416.0 L 763.9,-415.3 L 764.8,-415.2 L 766.5,-415.5 L 768.4,-416.4 L 770.2,-417.5 L 771.5,-418.6 L 773.0,-421.2 L 774.9,-425.2 L 775.5,-427.0 L 776.6,-427.6 L 778.7,-429.5 L 779.4,-429.9 L 782.1,-430.7 L 783.7,-431.8 L 784.1,-432.1 L 784.6,-433.9 L 785.4,-434.3 L 786.4,-434.5 L 789.3,-434.7 L 793.7,-437.4 L 795.4,-437.8 L 797.5,-439.4 L 802.1,-439.8 L 804.2,-441.0 L 806.8,-441.6 L 809.4,-443.4 L 809.9,-444.5 L 810.3,-444.9 L 812.9,-445.6 L 814.5,-446.5 L 817.6,-446.5 L 820.2,-447.5 L 823.9,-447.7 L 827.3,-449.1 L 828.2,-449.2 L 829.0,-449.1 L 831.8,-448.3 L 832.8,-448.4 L 834.6,-448.8 L 843.1,-449.2 L 845.0,-449.8 L 846.7,-449.5 L 849.1,-450.1 L 851.4,-450.2 L 854.0,-449.8 L 857.7,-450.2 L 869.1,-453.2 L 870.1,-453.2 L 871.0,-453.0 L 871.8,-452.6 L 872.3,-451.5 L 874.1,-451.1 L 880.6,-451.4 L 882.0,-451.8 L 886.0,-454.4 L 888.8,-455.7 L 889.9,-456.5 L 891.0,-457.8 L 891.2,-458.4 L 892.3,-459.3 L 894.8,-460.9 L 896.6,-461.2 L 898.2,-461.0 L 899.7,-460.2 L 902.0,-458.3 L 903.6,-457.9 L 905.3,-457.9 L 906.6,-458.6 L 907.0,-459.2 L 907.2,-459.9 L 907.3,-461.0 L 907.7,-461.1 L 910.5,-460.0 L 912.1,-459.6 L 917.2,-459.4 L 918.1,-459.5 L 921.0,-460.1 L 921.9,-460.9 L 923.6,-460.9 L 925.2,-461.5 L 927.8,-463.7 L 929.2,-464.5 L 932.8,-465.5 L 934.8,-465.7 L 936.4,-465.5 L 937.9,-464.6 L 938.6,-464.5 L 940.0,-464.8 L 941.5,-464.8 L 943.8,-464.6 L 944.6,-464.2 L 946.9,-465.1 L 949.1,-464.5 L 951.3,-465.5 L 952.0,-465.4 L 953.8,-464.9 L 958.9,-465.5 L 960.0,-465.2 L 961.6,-464.5 L 962.9,-464.4 L 963.6,-464.2 L 964.9,-464.7 L 966.6,-464.8 L 969.8,-464.5 L 972.8,-464.9 L 973.6,-464.7 L 980.5,-462.2 L 981.5,-461.3 L 983.1,-461.2 L 983.9,-460.2 L 984.6,-460.0 L 986.3,-459.6 L 987.1,-459.6 L 986.3,-457.5 L 986.5,-456.8 L 987.7,-456.0 L 992.7,-453.8 L 994.1,-453.5 L 995.6,-453.5 L 998.5,-453.8 L 1001.1,-454.4 L 1002.4,-454.4 L 1003.5,-455.3 L 1005.2,-455.9 L 1006.0,-456.4 L 1006.6,-458.1 L 1007.2,-458.7 L 1007.9,-459.3 L 1010.5,-460.1 L 1011.3,-460.5 L 1012.9,-461.6 L 1013.9,-461.9 L 1014.9,-462.0 L 1017.9,-461.4 L 1019.6,-461.5 L 1026.8,-462.9 L 1033.6,-465.0 L 1035.2,-465.9 L 1036.1,-467.0 L 1036.2,-467.9 L 1036.0,-469.4 L 1036.5,-470.2 L 1038.6,-471.6 L 1039.6,-472.5 L 1041.0,-473.1 L 1042.9,-473.6 L 1044.8,-473.6 L 1046.6,-473.1 L 1048.3,-472.0 L 1048.4,-471.3 L 1049.5,-470.7 L 1050.0,-469.0 L 1050.7,-468.2 L 1051.3,-468.4 L 1053.7,-467.6 L 1060.1,-467.3 L 1061.4,-466.7 L 1062.2,-466.2 L 1062.6,-465.8 L 1062.6,-465.0 L 1063.8,-464.6 L 1065.5,-464.5 L 1066.7,-464.5 L 1070.4,-465.5 L 1071.6,-466.1 L 1073.4,-465.6 L 1074.4,-465.6 L 1075.2,-466.4 L 1077.6,-467.9 L 1078.5,-469.2 L 1078.6,-470.1 L 1076.7,-472.0 L 1075.4,-472.8 L 1075.4,-473.1 L 1077.2,-473.4 L 1079.4,-472.5 L 1080.1,-473.1 L 1082.0,-472.5 L 1083.4,-473.1 L 1084.0,-473.1 L 1084.9,-471.7 L 1086.3,-471.6 L 1087.1,-471.3 L 1088.5,-471.9 L 1092.7,-468.9 L 1094.6,-468.5 L 1095.8,-468.9 L 1096.4,-468.8 L 1097.3,-468.4 L 1098.0,-467.8 L 1100.5,-468.1 L 1101.7,-469.1 L 1100.8,-467.2 L 1100.6,-466.3 L 1101.3,-465.8 L 1100.6,-464.5 L 1102.1,-463.5 L 1104.5,-462.9 L 1106.3,-462.7 L 1112.3,-463.9 L 1113.3,-464.4 L 1114.2,-465.0 L 1120.1,-467.5 L 1121.6,-466.4 L 1122.5,-466.1 L 1125.3,-466.1 L 1126.1,-465.8 L 1126.7,-466.0 L 1128.4,-465.1 L 1129.9,-465.0 L 1131.4,-465.1 L 1135.8,-466.7 L 1136.1,-464.5 L 1137.5,-462.6 L 1137.5,-462.1 L 1136.7,-461.6 L 1133.8,-460.6 L 1132.3,-460.4 L 1130.7,-460.5 L 1129.1,-460.3 L 1127.8,-459.8 L 1127.5,-459.0 L 1129.0,-458.4 L 1129.8,-457.5 L 1129.5,-455.9 L 1128.5,-454.3 L 1127.6,-453.4 L 1122.4,-450.8 L 1119.7,-449.9 L 1118.4,-449.2 L 1117.4,-448.2 L 1117.4,-446.7 L 1119.1,-446.1 L 1122.8,-445.7 L 1125.1,-444.8 L 1125.4,-443.9 L 1125.4,-441.2 L 1125.3,-440.4 L 1123.3,-435.6 L 1123.1,-433.8 L 1123.7,-431.2 L 1122.8,-429.6 L 1121.9,-426.4 L 1121.8,-423.9 L 1120.7,-420.6 L 1120.5,-417.0 L 1120.7,-415.1 L 1121.2,-413.5 L 1123.2,-410.6 L 1124.0,-409.2 L 1124.5,-404.0 L 1124.5,-402.7 L 1123.0,-399.6 L 1122.5,-398.0 L 1122.5,-396.4 L 1122.7,-394.5 L 1123.7,-392.9 L 1125.3,-392.3 L 1127.1,-391.8 L 1128.6,-390.8 L 1128.1,-389.9 L 1125.6,-386.5 L 1123.6,-384.6 L 1123.0,-383.0 L 1122.2,-379.7 L 1121.2,-377.3 L 1120.8,-375.6 L 1120.9,-374.0 L 1121.7,-369.4 L 1121.5,-368.8 L 1119.8,-367.1 L 1119.3,-366.4 L 1119.2,-365.7 L 1120.3,-364.2 L 1119.9,-363.7 L 1118.4,-362.9 L 1117.7,-361.5 L 1117.3,-361.2 L 1116.3,-360.6 L 1114.2,-359.0 L 1110.2,-357.4 L 1108.4,-356.3 L 1104.7,-354.9 L 1103.1,-353.8 L 1102.2,-352.2 L 1100.6,-347.0 L 1100.2,-346.2 L 1099.7,-345.7 L 1098.9,-345.3 L 1096.2,-344.9 L 1094.5,-344.2 L 1089.7,-339.5 L 1089.1,-338.3 L 1089.0,-335.0 L 1088.1,-330.6 L 1088.3,-328.8 L 1088.9,-326.4 L 1090.4,-323.5 L 1091.2,-320.0 L 1097.2,-310.9 L 1097.8,-309.1 L 1097.9,-303.0 L 1098.5,-300.9 L 1099.6,-299.9 L 1101.2,-299.5 L 1103.2,-299.3 L 1104.8,-298.8 L 1110.3,-295.4 L 1112.1,-295.1 L 1113.0,-295.3 L 1113.9,-294.8 L 1122.2,-283.3 L 1122.8,-281.8 L 1123.8,-270.9 L 1124.3,-269.5 L 1125.5,-268.3 L 1130.7,-265.3 L 1153.6,-250.6 L 1154.6,-249.1 L 1174.8,-166.7 L 1164.9,-161.7 L 1165.9,-160.2 L 1170.7,-155.1 L 1176.1,-147.6 L 1181.1,-139.0 L 1187.9,-117.5 L 1188.8,-110.7 L 1188.9,-102.2 L 1185.8,-79.0 L 1186.3,-76.4 L 1192.5,-61.1 L 1192.5,-59.3 L 1189.4,-50.0 L 1188.7,-49.1 L 1186.5,-47.8 L 1186.6,-46.9 L 1187.7,-45.0 L 1187.3,-44.1 L 1185.5,-42.2 L 1184.9,-41.3 L 1184.3,-38.6 L 1183.4,-36.1 L 1183.4,-35.4 L 1187.0,-23.5 L 1187.8,-18.8 L 1188.2,-17.9 L 1188.7,-17.5 L 1190.6,-16.5 L 1191.3,-16.0 L 1191.4,-15.3 L 1190.4,-10.6 L 1190.3,-9.0 L 1190.7,-7.8 L 1190.8,-6.8 L 1189.1,-1.1 L 1188.3,-0.2 L 1173.3,6.6 L 1173.0,8.2 L 1172.7,8.9 L 1171.2,10.2 L 1170.4,12.0 L 1169.8,12.7 L 1168.8,14.8 L 1169.8,17.3 L 1194.0,49.4 L 1195.6,52.2 L 1196.2,55.1 L 1196.6,73.5 L 1197.1,74.7 L 1203.5,78.2 L 1204.3,79.4 L 1205.0,83.6 L 1205.5,85.2 L 1206.3,86.0 L 1211.9,90.3 L 1212.7,90.6 L 1214.4,90.4 L 1224.0,87.0 L 1225.0,86.9 L 1225.9,87.1 L 1259.4,97.7 L 1260.8,98.5 L 1261.9,99.8 L 1279.0,133.3 L 1088.2,251.6 L 1068.6,268.4 L 1018.3,313.9 L 1016.4,315.2 L 1014.5,315.9 L 949.9,328.9 L 916.3,335.5 L 912.9,336.3 L 911.8,336.4 L 910.7,336.1 L 909.7,335.5 L 907.2,333.0 L 904.4,331.6 L 902.8,330.3 L 902.1,329.2 L 902.0,328.4 L 903.5,325.4 L 905.0,324.0 L 905.4,321.5 L 905.8,320.7 L 908.3,319.0 L 908.7,317.9 L 908.6,316.9 L 907.6,315.6 L 907.2,314.7 L 907.5,313.1 L 907.3,312.8 L 906.6,312.2 L 906.1,310.5 L 906.1,308.8 L 906.8,299.8 L 906.7,299.2 L 906.1,298.6 L 903.2,297.5 L 900.7,295.6 L 895.3,293.2 L 883.7,290.8 L 881.3,290.7 L 877.0,289.9 L 876.2,289.7 L 873.8,288.5 L 872.1,288.1 L 871.6,287.6 L 869.9,284.4 L 868.6,282.5 L 867.0,280.8 L 863.6,278.3 L 862.9,278.1 L 862.0,278.3 L 861.0,278.9 L 859.3,280.6 L 858.1,281.1 L 854.8,280.0 L 853.7,279.3 L 853.2,279.2 L 852.6,279.4 L 851.4,280.3 L 850.5,280.2 L 849.6,277.9 L 848.9,277.4 L 846.6,277.4 L 845.7,277.0 L 840.6,272.8 L 840.2,272.2 L 840.2,268.8 L 840.0,267.2 L 839.1,265.9 L 836.4,263.9 L 834.7,263.0 L 833.1,262.8 L 832.4,262.3 L 828.1,261.2 L 827.3,260.7 L 825.8,258.3 L 825.2,257.8 L 824.2,257.5 L 823.3,257.6 L 821.6,257.9 L 820.7,257.9 L 819.2,257.6 L 818.8,257.0 L 818.8,255.0 L 819.7,251.0 L 820.2,246.1 L 820.2,245.1 L 819.4,242.2 L 818.8,241.3 L 578.1,75.8 L 565.1,67.3 Z M 923.0,661.8 L 922.3,660.9 L 921.9,660.7 L 921.2,658.5 L 920.5,657.9 L 918.7,655.5 L 918.2,655.2 L 916.7,654.6 L 913.8,652.9 L 913.3,652.8 L 912.2,653.5 L 911.6,653.3 L 910.7,652.6 L 910.1,651.9 L 909.1,650.2 L 908.3,647.2 L 900.3,639.6 L 898.0,635.9 L 896.3,635.6 L 895.3,635.2 L 894.9,634.8 L 894.7,633.8 L 893.9,632.8 L 893.0,632.3 L 891.0,630.4 L 890.5,631.1 L 887.8,631.2 L 886.2,632.7 L 885.8,632.8 L 885.3,632.5 L 884.9,632.7 L 883.7,635.0 L 883.3,635.2 L 881.8,634.8 L 880.8,635.4 L 880.0,635.1 L 878.5,635.5 L 877.7,636.2 L 877.4,636.2 L 877.1,635.7 L 876.2,635.6 L 875.9,635.7 L 875.4,636.7 L 874.6,636.3 L 874.0,637.1 L 871.9,637.2 L 870.8,637.7 L 870.5,638.4 L 870.9,642.0 L 872.4,646.1 L 873.3,647.3 L 874.5,647.8 L 874.6,648.4 L 874.5,649.2 L 873.3,649.1 L 872.4,650.4 L 871.3,650.6 L 871.1,651.1 L 871.1,651.6 L 871.6,652.4 L 871.7,652.9 L 869.5,650.9 L 858.1,634.5 L 857.3,632.9 L 857.4,631.7 L 858.1,631.1 L 860.5,630.6 L 861.3,629.8 L 862.1,630.1 L 864.6,629.9 L 865.2,629.8 L 865.5,629.3 L 865.4,628.1 L 865.6,627.4 L 864.6,626.1 L 864.1,624.9 L 863.6,621.6 L 862.9,620.5 L 861.3,619.1 L 860.9,618.0 L 859.7,616.7 L 858.0,616.2 L 853.9,615.9 L 852.3,617.2 L 851.7,617.0 L 851.3,617.1 L 849.2,620.6 L 848.5,621.1 L 847.7,621.2 L 838.0,620.4 L 836.6,620.0 L 835.4,619.3 L 817.4,603.7 L 816.2,603.0 L 813.1,602.8 L 811.9,602.1 L 811.5,601.4 L 811.4,600.5 L 811.3,588.9 L 811.9,587.1 L 812.8,587.2 L 816.2,588.6 L 819.4,589.6 L 819.7,589.5 L 820.1,588.0 L 820.6,587.3 L 821.3,587.5 L 822.0,588.1 L 822.9,588.5 L 824.0,588.1 L 823.2,587.1 L 822.5,586.6 L 819.3,586.0 L 814.6,583.8 L 813.2,582.7 L 812.4,581.4 L 812.2,579.3 L 810.5,577.5 L 808.2,576.0 L 806.2,575.4 L 803.9,575.5 L 803.1,575.1 L 802.5,574.6 L 802.7,574.0 L 802.5,573.0 L 796.5,573.1 L 795.3,572.7 L 794.8,571.6 L 795.6,569.2 L 795.3,568.7 L 794.5,568.4 L 793.6,567.3 L 791.5,565.7 L 790.6,564.2 L 789.4,563.2 L 789.1,562.9 L 789.1,562.4 L 789.5,561.2 L 789.0,560.7 L 787.6,559.8 L 787.2,559.0 L 787.2,558.2 L 785.8,557.1 L 785.8,556.7 L 786.2,555.7 L 785.2,554.5 L 784.5,553.2 L 785.9,550.5 L 786.1,549.1 L 786.7,548.2 L 786.6,547.6 L 784.8,545.1 L 778.1,538.8 L 776.8,536.6 L 776.6,534.4 L 779.4,526.1 L 779.1,524.8 L 777.9,522.2 L 778.0,520.9 L 779.5,519.1 L 779.1,515.9 L 779.1,514.8 L 779.5,514.3 L 785.1,515.8 L 786.5,515.8 L 787.9,515.5 L 790.6,514.5 L 792.0,514.4 L 798.6,516.8 L 800.3,516.5 L 802.8,515.5 L 809.3,515.3 L 810.4,515.0 L 811.5,514.5 L 824.1,502.5 L 825.3,501.8 L 826.7,501.4 L 897.6,499.0 L 897.9,498.4 L 898.1,495.4 L 899.1,495.1 L 900.7,495.0 L 919.2,498.3 L 919.6,493.1 L 920.0,491.9 L 923.7,489.6 L 927.1,485.9 L 928.6,485.0 L 932.0,484.4 L 933.6,483.5 L 934.7,482.2 L 935.3,480.6 L 935.7,478.9 L 936.0,474.5 L 936.3,473.7 L 937.0,472.6 L 939.4,470.1 L 939.5,469.5 L 938.9,468.0 L 938.7,466.8 L 938.9,465.6 L 942.7,456.1 L 943.4,455.1 L 944.2,454.2 L 945.2,453.4 L 947.0,452.4 L 947.6,451.9 L 948.0,450.8 L 947.9,433.2 L 948.7,431.5 L 948.6,426.3 L 948.8,425.5 L 949.6,425.3 L 950.2,424.9 L 949.9,328.9 L 1014.5,315.9 L 1016.4,315.2 L 1018.3,313.9 L 1068.6,268.4 L 1088.2,251.6 L 1279.0,133.3 L 1343.3,148.4 L 1348.3,151.1 L 1373.9,173.3 L 1374.5,173.6 L 1375.2,173.6 L 1407.0,156.7 L 1415.2,201.5 L 1415.5,223.2 L 1415.7,223.9 L 1416.4,224.6 L 1419.2,226.2 L 1420.6,227.9 L 1433.7,248.1 L 1432.0,249.1 L 1431.0,250.8 L 1430.6,252.9 L 1431.0,254.9 L 1432.1,257.0 L 1432.8,257.8 L 1436.3,260.6 L 1448.4,273.8 L 1449.0,274.8 L 1449.1,275.6 L 1440.5,291.4 L 1439.1,294.9 L 1427.9,428.4 L 1427.6,429.4 L 1427.1,430.2 L 1381.0,480.6 L 1358.3,513.2 L 1355.1,520.1 L 1354.9,520.9 L 1354.9,521.9 L 1355.0,522.8 L 1355.6,524.7 L 1355.7,525.6 L 1355.3,526.7 L 1354.7,527.0 L 1353.0,527.3 L 1350.2,530.0 L 1350.9,530.9 L 1351.2,532.6 L 1351.1,533.5 L 1350.8,534.3 L 1349.3,535.5 L 1345.9,536.0 L 1343.3,537.2 L 1341.9,539.2 L 1341.9,541.8 L 1343.3,547.2 L 1348.6,572.1 L 1338.1,571.6 L 1336.8,571.8 L 1336.4,572.1 L 1336.5,572.9 L 1333.8,575.4 L 1333.6,576.0 L 1333.9,576.6 L 1333.7,577.0 L 1333.0,577.1 L 1332.6,577.7 L 1332.7,577.9 L 1333.3,578.0 L 1332.5,579.0 L 1330.3,579.6 L 1329.2,580.2 L 1329.4,579.4 L 1329.3,579.0 L 1328.9,578.9 L 1328.1,580.2 L 1328.1,579.5 L 1326.6,579.8 L 1326.1,579.6 L 1326.3,578.9 L 1325.1,579.0 L 1320.2,581.4 L 1319.1,581.6 L 1317.9,581.4 L 1317.7,582.1 L 1317.3,582.1 L 1316.1,581.7 L 1316.1,582.0 L 1316.7,582.3 L 1317.3,582.9 L 1315.5,584.7 L 1315.5,585.4 L 1314.9,585.4 L 1314.1,585.8 L 1314.5,586.9 L 1313.9,586.9 L 1313.3,586.2 L 1312.9,587.2 L 1311.8,588.6 L 1311.1,589.1 L 1309.6,589.6 L 1309.3,590.6 L 1309.0,590.8 L 1308.3,590.7 L 1307.1,589.7 L 1306.9,590.6 L 1306.7,590.9 L 1306.1,591.3 L 1305.9,591.0 L 1304.1,592.7 L 1304.0,593.4 L 1303.2,594.9 L 1303.9,595.1 L 1303.6,596.1 L 1303.0,597.0 L 1301.5,597.5 L 1301.2,599.8 L 1301.0,600.4 L 1300.4,600.7 L 1297.9,600.1 L 1295.2,600.0 L 1294.5,599.8 L 1294.1,600.0 L 1293.1,599.1 L 1292.7,599.2 L 1292.1,599.8 L 1291.7,599.7 L 1291.5,599.0 L 1288.8,597.9 L 1288.1,598.1 L 1287.2,598.7 L 1285.2,598.9 L 1282.7,598.3 L 1281.9,597.9 L 1279.9,596.3 L 1274.0,592.6 L 1269.3,590.6 L 1256.5,587.2 L 1235.8,587.4 L 1228.0,586.4 L 1223.9,586.8 L 1202.1,591.6 L 1200.3,592.3 L 1192.3,597.0 L 1191.5,597.8 L 1191.2,599.3 L 1190.6,600.1 L 1189.8,600.3 L 1189.0,600.8 L 1187.6,602.2 L 1180.0,611.5 L 1179.0,612.2 L 1177.8,612.4 L 1168.8,611.3 L 1168.0,611.4 L 1165.8,612.0 L 1164.2,612.0 L 1150.3,610.4 L 1139.1,606.9 L 1137.5,606.0 L 1136.8,605.1 L 1135.6,603.0 L 1134.8,602.1 L 1132.9,600.6 L 1131.9,600.1 L 1130.7,599.9 L 1129.2,600.0 L 1128.0,600.5 L 1127.4,600.4 L 1122.9,596.2 L 1121.3,594.4 L 1118.8,593.4 L 1116.2,591.5 L 1114.7,590.1 L 1113.5,589.7 L 1102.7,588.1 L 1101.3,588.2 L 1099.8,588.9 L 1084.4,598.5 L 1083.0,598.9 L 1081.5,598.9 L 1077.1,598.1 L 1076.1,598.3 L 1073.5,601.4 L 1071.5,603.2 L 1070.6,603.7 L 1069.6,603.9 L 1066.4,603.9 L 1065.0,603.7 L 1063.7,603.2 L 1062.3,602.2 L 1060.8,600.7 L 1058.3,597.7 L 1053.8,589.2 L 1046.8,581.4 L 1040.9,575.5 L 1038.0,573.9 L 1035.0,573.2 L 1034.1,573.3 L 1031.2,574.9 L 1030.3,574.3 L 1006.2,564.5 L 1004.8,564.2 L 998.6,565.3 L 997.4,565.9 L 996.9,566.6 L 996.2,568.2 L 995.6,568.9 L 994.3,569.9 L 992.3,570.4 L 986.2,570.1 L 981.9,570.9 L 979.5,570.8 L 978.5,570.3 L 977.6,569.4 L 976.6,568.9 L 975.2,569.1 L 961.7,572.5 L 959.4,573.4 L 957.4,574.9 L 950.7,581.4 L 949.5,582.0 L 948.2,582.3 L 945.5,582.4 L 945.4,593.1 L 943.9,603.7 L 937.1,614.7 L 934.4,617.4 L 925.1,624.6 L 924.9,625.1 L 925.3,636.2 L 924.2,642.1 L 924.2,644.0 L 925.2,647.3 L 925.4,648.8 L 924.7,650.3 L 923.5,651.7 L 923.3,652.5 L 923.7,655.4 L 923.9,655.9 L 925.2,657.3 L 925.8,658.1 L 926.0,659.0 L 925.7,659.9 L 925.2,660.5 L 923.0,661.8 Z M 871.7,652.9 L 870.2,657.2 L 869.6,658.3 L 867.9,660.2 L 867.5,661.5 L 867.5,662.8 L 867.3,663.2 L 866.7,663.8 L 864.5,665.1 L 861.4,667.7 L 855.6,673.9 L 854.4,674.4 L 852.9,674.3 L 850.0,673.1 L 849.5,673.0 L 849.1,673.3 L 848.3,673.0 L 845.8,673.9 L 843.2,673.8 L 841.7,674.4 L 839.7,674.9 L 838.2,675.6 L 837.3,673.8 L 836.5,673.9 L 836.8,672.7 L 832.8,672.3 L 832.0,672.2 L 831.3,671.8 L 831.0,672.4 L 830.1,672.8 L 829.5,673.3 L 829.2,673.8 L 829.1,674.2 L 829.5,675.1 L 827.0,676.6 L 826.6,677.4 L 826.9,678.2 L 827.3,678.8 L 827.4,679.4 L 826.6,680.0 L 826.0,679.5 L 825.5,680.0 L 824.7,679.0 L 824.2,678.7 L 824.0,679.3 L 824.1,679.6 L 824.5,680.0 L 824.6,680.5 L 824.0,681.9 L 821.9,681.0 L 821.1,680.9 L 819.9,681.3 L 820.0,681.0 L 819.2,680.2 L 818.4,681.3 L 818.1,681.9 L 818.9,683.2 L 819.3,685.5 L 818.0,684.9 L 817.6,684.9 L 817.1,686.0 L 816.9,686.2 L 815.2,686.6 L 815.3,687.3 L 815.7,687.0 L 816.1,687.0 L 816.1,688.0 L 816.7,688.3 L 816.9,689.8 L 817.6,690.8 L 817.6,691.5 L 817.4,691.7 L 816.7,690.7 L 816.3,690.6 L 815.0,690.4 L 814.1,690.7 L 813.8,690.2 L 812.9,689.6 L 811.8,689.4 L 810.6,691.0 L 810.5,692.0 L 810.7,692.4 L 811.3,692.8 L 811.3,693.3 L 811.0,694.1 L 809.7,694.0 L 808.4,693.3 L 798.8,693.5 L 796.1,694.0 L 790.8,695.9 L 791.3,694.0 L 790.6,693.8 L 790.9,693.1 L 790.8,692.8 L 757.2,685.7 L 757.1,686.4 L 757.4,687.2 L 757.1,687.9 L 756.5,688.4 L 754.4,690.0 L 753.6,689.1 L 752.8,688.4 L 752.0,688.4 L 751.2,689.5 L 750.9,691.1 L 750.7,691.6 L 749.0,692.6 L 748.3,693.4 L 746.5,693.4 L 745.0,693.7 L 743.8,696.6 L 743.1,697.1 L 741.0,695.0 L 741.7,694.0 L 741.4,693.7 L 740.5,693.7 L 740.5,693.2 L 735.3,693.1 L 734.9,692.7 L 734.4,693.1 L 733.5,693.3 L 732.5,694.3 L 731.8,694.5 L 732.1,693.8 L 731.6,693.9 L 731.1,693.1 L 730.4,692.8 L 724.6,692.3 L 723.4,692.5 L 723.0,693.2 L 712.4,693.1 L 711.4,692.9 L 709.0,691.9 L 703.6,691.8 L 702.9,692.0 L 702.6,692.8 L 702.1,693.1 L 653.1,693.6 L 653.1,693.1 L 649.4,693.0 L 649.4,693.6 L 650.4,696.1 L 650.1,697.1 L 648.3,699.0 L 647.5,702.0 L 646.8,703.2 L 646.6,704.2 L 645.8,705.4 L 646.0,706.1 L 646.4,706.2 L 646.6,706.7 L 645.4,709.3 L 645.6,710.1 L 646.8,712.5 L 647.1,714.3 L 648.0,715.4 L 648.2,716.3 L 648.5,716.8 L 650.0,718.2 L 650.5,718.5 L 652.2,718.6 L 652.4,718.8 L 651.8,719.7 L 650.4,720.0 L 650.1,720.3 L 649.5,721.4 L 649.3,722.3 L 649.3,723.2 L 649.6,724.0 L 650.8,724.3 L 651.0,725.1 L 652.1,725.3 L 652.9,726.0 L 652.8,727.2 L 651.6,728.3 L 651.1,729.2 L 651.1,730.1 L 651.5,732.1 L 651.5,735.9 L 651.7,736.8 L 652.7,738.3 L 653.0,739.1 L 652.9,740.3 L 652.5,742.3 L 652.7,743.4 L 653.8,745.6 L 652.1,747.7 L 651.4,749.2 L 651.2,750.2 L 651.5,751.1 L 651.9,751.5 L 652.7,751.7 L 653.1,752.9 L 653.6,753.3 L 653.0,753.7 L 652.7,754.4 L 652.4,755.1 L 652.5,756.6 L 652.7,757.0 L 654.2,758.5 L 655.7,760.5 L 654.4,761.8 L 653.4,764.1 L 652.6,764.8 L 651.5,764.8 L 650.6,764.0 L 646.3,758.1 L 644.2,753.8 L 642.9,750.7 L 642.3,750.0 L 641.5,749.8 L 640.0,750.2 L 639.2,750.2 L 638.5,749.5 L 637.5,746.4 L 636.7,745.3 L 634.8,745.0 L 634.0,744.6 L 633.8,743.7 L 633.9,741.7 L 633.4,741.4 L 632.7,741.9 L 631.3,744.0 L 630.7,744.6 L 629.7,744.7 L 629.3,744.2 L 629.2,742.4 L 629.0,742.1 L 627.7,742.7 L 626.5,741.7 L 626.0,741.5 L 619.3,740.9 L 616.7,741.3 L 616.0,741.1 L 615.0,740.1 L 614.4,739.9 L 613.6,740.7 L 612.5,740.2 L 610.4,740.5 L 609.4,741.0 L 608.3,742.1 L 607.5,742.3 L 604.7,742.4 L 603.8,742.6 L 602.2,743.7 L 600.7,744.3 L 600.2,745.7 L 598.5,745.8 L 597.9,746.1 L 597.7,746.7 L 597.5,746.8 L 594.3,745.7 L 593.6,745.8 L 592.8,746.4 L 591.6,748.2 L 590.8,748.6 L 589.2,748.8 L 588.5,749.1 L 587.9,749.6 L 588.6,749.8 L 587.1,751.7 L 587.2,753.1 L 586.6,754.8 L 586.3,755.1 L 584.5,754.4 L 584.2,756.3 L 583.6,756.0 L 583.4,755.5 L 583.0,754.0 L 582.6,753.4 L 581.6,753.1 L 580.1,753.2 L 578.7,753.1 L 578.1,752.1 L 578.7,749.4 L 578.3,749.0 L 577.1,749.1 L 576.5,751.2 L 575.9,751.4 L 575.4,751.2 L 574.8,750.3 L 574.3,749.8 L 573.3,750.7 L 572.1,750.8 L 571.7,751.5 L 571.0,751.9 L 570.8,751.4 L 570.0,751.0 L 569.7,749.9 L 568.6,748.7 L 567.7,748.7 L 567.6,748.8 L 567.9,749.3 L 567.3,749.4 L 566.7,748.4 L 566.1,748.6 L 565.9,748.1 L 565.6,747.7 L 565.6,747.4 L 566.3,747.4 L 567.0,747.1 L 566.1,744.7 L 565.2,745.0 L 565.0,744.0 L 564.4,743.5 L 562.2,743.0 L 561.8,742.6 L 561.3,742.5 L 561.0,742.7 L 560.5,743.4 L 560.2,743.3 L 558.9,742.1 L 558.9,741.6 L 559.5,739.7 L 558.3,737.3 L 559.2,737.3 L 559.3,736.7 L 559.0,735.8 L 558.6,735.2 L 557.0,734.1 L 556.8,733.3 L 555.9,733.9 L 555.4,733.8 L 555.1,733.3 L 555.7,733.0 L 554.5,732.7 L 554.9,732.4 L 555.9,732.0 L 555.8,731.6 L 554.7,730.9 L 554.5,730.4 L 554.8,729.6 L 553.6,729.7 L 553.6,729.2 L 554.0,728.4 L 553.9,727.5 L 553.3,728.3 L 552.5,728.3 L 552.7,727.6 L 552.7,725.2 L 552.4,724.5 L 551.7,724.0 L 551.0,724.0 L 550.7,724.6 L 550.3,724.6 L 548.2,723.3 L 547.6,723.5 L 544.9,723.2 L 544.1,724.0 L 543.6,724.1 L 542.9,724.1 L 542.5,723.9 L 541.9,724.4 L 540.4,724.2 L 539.3,723.5 L 538.9,722.4 L 537.3,722.0 L 537.3,721.2 L 536.8,720.1 L 536.0,719.1 L 535.3,718.6 L 535.8,715.7 L 537.0,713.7 L 537.6,711.4 L 537.5,710.9 L 537.1,710.6 L 537.2,709.9 L 537.5,709.2 L 537.9,708.8 L 537.2,708.6 L 537.0,707.1 L 537.6,704.0 L 538.5,703.3 L 539.1,699.9 L 538.5,698.4 L 537.7,695.3 L 537.1,694.0 L 536.1,694.3 L 536.4,693.1 L 535.9,690.4 L 536.0,689.7 L 536.7,689.3 L 540.9,688.7 L 542.3,688.2 L 543.3,687.5 L 543.8,686.9 L 544.0,685.1 L 544.4,684.0 L 545.8,682.6 L 546.3,681.7 L 546.4,681.0 L 546.1,676.3 L 546.3,675.5 L 548.2,674.1 L 547.9,672.5 L 547.9,668.8 L 547.5,667.2 L 546.0,665.9 L 544.7,665.8 L 544.4,665.3 L 544.4,664.8 L 545.2,663.4 L 545.5,661.7 L 545.6,659.9 L 545.3,659.0 L 544.8,658.4 L 543.3,657.6 L 542.5,657.4 L 541.7,657.6 L 540.2,656.6 L 539.9,655.9 L 540.8,655.7 L 541.8,656.3 L 542.4,655.8 L 543.9,655.5 L 544.4,655.1 L 544.7,655.1 L 545.5,655.5 L 545.8,655.5 L 546.9,654.0 L 548.6,652.6 L 550.3,650.8 L 551.7,650.3 L 553.7,649.2 L 557.3,649.1 L 559.4,648.0 L 562.2,648.3 L 564.0,647.7 L 564.9,647.7 L 565.7,648.4 L 567.6,647.9 L 568.2,647.6 L 569.2,646.0 L 569.6,645.6 L 571.4,645.6 L 572.2,645.1 L 572.5,643.9 L 573.0,643.0 L 574.5,642.1 L 575.8,642.0 L 576.2,641.6 L 575.1,639.4 L 579.0,636.0 L 579.2,633.9 L 579.7,633.6 L 580.3,633.6 L 581.5,634.7 L 582.7,634.5 L 582.3,632.6 L 580.8,628.8 L 581.1,627.7 L 583.3,625.1 L 583.5,624.4 L 582.9,623.6 L 582.0,621.5 L 579.5,619.3 L 579.1,618.6 L 579.4,616.3 L 580.3,616.2 L 582.9,615.3 L 584.3,615.2 L 585.6,615.5 L 586.8,616.2 L 587.4,616.4 L 589.0,616.0 L 589.6,615.6 L 590.0,615.0 L 591.0,611.6 L 590.4,609.6 L 590.6,607.0 L 590.2,605.8 L 589.5,604.8 L 588.2,603.7 L 587.7,602.9 L 586.5,600.4 L 585.1,598.8 L 585.1,598.2 L 585.6,597.5 L 586.1,596.0 L 586.8,595.7 L 589.5,595.8 L 590.0,595.7 L 590.3,595.3 L 590.2,594.9 L 589.3,594.4 L 589.0,594.0 L 589.2,593.3 L 589.8,592.5 L 591.3,591.3 L 592.5,591.4 L 592.9,591.1 L 594.4,589.1 L 595.6,586.4 L 596.3,585.7 L 597.8,585.2 L 598.8,584.2 L 599.8,583.9 L 601.0,582.9 L 601.2,582.5 L 600.1,582.0 L 600.9,581.2 L 601.5,581.7 L 601.9,582.9 L 603.5,583.4 L 603.5,583.8 L 602.4,584.2 L 600.7,585.8 L 601.2,586.2 L 602.2,586.5 L 604.6,586.6 L 608.6,588.0 L 611.7,590.6 L 613.7,591.8 L 617.1,594.6 L 618.3,594.7 L 619.3,595.7 L 622.9,596.1 L 623.4,596.0 L 623.8,595.3 L 623.8,594.5 L 623.3,592.9 L 623.4,591.6 L 624.4,591.3 L 631.4,590.8 L 631.9,590.4 L 630.4,579.3 L 631.3,576.6 L 631.5,574.1 L 631.2,573.0 L 630.3,572.3 L 631.2,571.5 L 632.3,571.9 L 634.2,573.4 L 635.4,573.5 L 637.2,573.3 L 638.3,573.9 L 639.0,574.6 L 639.6,576.4 L 640.1,576.2 L 640.9,575.4 L 641.7,575.0 L 642.7,575.1 L 643.7,575.6 L 647.0,574.4 L 645.8,570.2 L 645.6,567.8 L 646.3,566.1 L 647.0,564.8 L 648.7,559.0 L 648.4,558.7 L 648.2,558.8 L 649.3,556.9 L 655.6,553.3 L 658.7,549.7 L 659.6,548.9 L 663.1,546.8 L 665.4,546.3 L 668.6,547.0 L 678.6,551.8 L 679.9,552.2 L 680.6,552.1 L 683.5,550.7 L 683.9,550.4 L 684.0,549.9 L 684.8,539.0 L 685.2,537.8 L 686.4,537.2 L 688.5,537.1 L 692.0,537.4 L 695.0,537.2 L 697.9,536.6 L 712.7,526.9 L 714.5,526.0 L 722.6,523.9 L 724.2,523.2 L 725.7,522.3 L 734.5,514.3 L 736.8,512.0 L 738.1,511.0 L 739.5,510.6 L 750.2,510.5 L 750.6,510.7 L 751.6,513.4 L 752.0,514.0 L 753.2,514.0 L 754.7,513.3 L 757.4,511.7 L 760.0,511.2 L 763.0,511.9 L 768.7,514.3 L 779.4,518.1 L 779.5,519.1 L 778.0,520.9 L 777.9,522.2 L 779.1,524.8 L 779.4,526.1 L 776.6,534.4 L 776.8,536.6 L 778.1,538.8 L 784.8,545.1 L 786.6,547.6 L 786.7,548.2 L 786.1,549.1 L 785.9,550.5 L 784.5,553.2 L 785.2,554.5 L 786.2,555.7 L 785.8,556.7 L 785.8,557.1 L 787.2,558.2 L 787.2,559.0 L 787.6,559.8 L 789.0,560.7 L 789.5,561.2 L 789.1,562.4 L 789.1,562.9 L 789.4,563.2 L 790.6,564.2 L 791.5,565.7 L 793.6,567.3 L 794.5,568.4 L 795.3,568.7 L 795.6,569.2 L 794.8,571.6 L 795.3,572.7 L 796.5,573.1 L 802.5,573.0 L 802.7,574.0 L 802.5,574.6 L 803.1,575.1 L 803.9,575.5 L 806.2,575.4 L 808.2,576.0 L 810.5,577.5 L 812.2,579.3 L 812.4,581.4 L 813.2,582.7 L 814.6,583.8 L 819.3,586.0 L 822.5,586.6 L 823.2,587.1 L 824.0,588.1 L 822.9,588.5 L 822.0,588.1 L 821.3,587.5 L 820.6,587.3 L 820.1,588.0 L 819.7,589.5 L 819.4,589.6 L 816.2,588.6 L 812.8,587.2 L 811.9,587.1 L 811.3,588.9 L 811.4,600.5 L 811.5,601.4 L 811.9,602.1 L 813.1,602.8 L 816.2,603.0 L 817.4,603.7 L 835.4,619.3 L 836.6,620.0 L 838.0,620.4 L 847.7,621.2 L 848.5,621.1 L 849.2,620.6 L 851.3,617.1 L 851.7,617.0 L 852.3,617.2 L 853.9,615.9 L 858.0,616.2 L 859.7,616.7 L 860.9,618.0 L 861.3,619.1 L 862.9,620.5 L 863.6,621.6 L 864.1,624.9 L 864.6,626.1 L 865.6,627.4 L 865.4,628.1 L 865.5,629.3 L 865.2,629.8 L 864.6,629.9 L 862.1,630.1 L 861.3,629.8 L 860.5,630.6 L 858.1,631.1 L 857.4,631.7 L 857.3,632.9 L 858.1,634.5 L 869.5,650.9 L 871.7,652.9 Z M 430.4,730.4 L 431.2,730.7 L 432.1,730.7 L 432.9,730.5 L 433.7,730.1 L 434.9,729.1 L 436.4,728.8 L 437.2,728.2 L 438.2,726.8 L 438.5,726.0 L 439.4,725.2 L 439.4,724.6 L 439.9,723.7 L 439.4,722.9 L 440.2,722.7 L 441.2,722.1 L 441.7,721.4 L 441.2,720.7 L 441.7,720.5 L 441.7,720.2 L 442.3,719.7 L 443.6,719.5 L 444.2,718.1 L 445.1,718.0 L 446.6,718.9 L 448.8,719.0 L 449.5,718.5 L 450.5,717.2 L 451.1,717.1 L 452.0,717.5 L 452.6,718.4 L 452.7,719.8 L 453.5,721.5 L 453.6,722.7 L 454.1,722.7 L 455.7,722.2 L 456.6,722.2 L 456.9,722.9 L 456.6,724.7 L 456.6,725.8 L 457.0,726.4 L 457.7,726.6 L 460.4,726.6 L 463.7,727.2 L 467.9,728.4 L 468.6,728.8 L 470.0,730.7 L 470.7,731.4 L 471.8,731.3 L 472.8,731.0 L 473.7,730.3 L 474.2,729.4 L 474.1,728.2 L 472.7,726.9 L 472.6,726.3 L 473.6,722.8 L 474.1,722.2 L 475.1,722.1 L 477.5,722.4 L 478.3,722.3 L 480.8,721.1 L 481.7,721.0 L 482.6,721.3 L 484.2,722.3 L 485.2,722.4 L 486.2,722.0 L 486.5,721.5 L 486.7,719.9 L 487.4,718.8 L 487.4,718.3 L 487.2,718.0 L 485.9,717.5 L 485.4,716.6 L 485.3,715.8 L 485.7,714.4 L 485.9,712.3 L 485.6,711.3 L 485.7,710.5 L 485.9,709.6 L 486.6,708.5 L 486.5,708.4 L 487.5,708.1 L 488.0,708.5 L 488.9,710.0 L 489.5,710.6 L 492.1,712.2 L 495.1,712.9 L 496.0,713.0 L 497.0,712.8 L 497.8,712.2 L 498.0,711.2 L 497.7,710.7 L 496.7,710.2 L 496.4,709.5 L 496.5,707.8 L 496.8,707.0 L 497.5,706.6 L 500.4,706.7 L 503.1,705.3 L 504.1,705.2 L 504.5,705.4 L 504.4,707.9 L 504.5,708.2 L 505.7,708.8 L 506.3,709.5 L 506.0,710.0 L 505.2,710.5 L 504.8,710.9 L 505.2,712.1 L 505.1,712.6 L 504.1,713.6 L 503.9,714.0 L 503.9,714.7 L 504.8,714.7 L 505.5,715.5 L 506.6,715.5 L 506.9,715.7 L 507.1,716.1 L 506.4,717.6 L 506.6,718.0 L 507.3,718.9 L 506.6,720.2 L 506.5,721.1 L 507.1,721.6 L 506.1,722.8 L 506.3,723.5 L 506.2,723.8 L 505.8,723.9 L 505.3,723.5 L 504.7,724.1 L 504.6,724.7 L 504.8,726.4 L 505.4,726.2 L 505.9,726.6 L 506.7,727.6 L 507.3,728.0 L 510.5,729.2 L 514.3,729.2 L 515.1,728.3 L 515.6,727.5 L 516.0,725.4 L 516.5,725.0 L 518.5,725.7 L 519.0,725.3 L 518.8,722.9 L 519.0,722.1 L 519.5,721.3 L 520.1,720.8 L 523.2,719.2 L 528.7,717.9 L 531.0,717.7 L 532.2,717.4 L 533.2,717.5 L 534.1,718.2 L 536.0,719.1 L 536.8,720.1 L 537.3,721.2 L 537.3,722.0 L 538.9,722.4 L 539.3,723.5 L 540.4,724.2 L 541.9,724.4 L 542.5,723.9 L 542.9,724.1 L 543.6,724.1 L 544.1,724.0 L 544.9,723.2 L 547.6,723.5 L 548.2,723.3 L 550.3,724.6 L 550.7,724.6 L 551.0,724.0 L 551.7,724.0 L 552.4,724.5 L 552.7,725.2 L 552.7,727.6 L 552.5,728.3 L 553.3,728.3 L 553.9,727.5 L 554.0,728.4 L 553.6,729.2 L 553.6,729.7 L 554.8,729.6 L 554.5,730.4 L 554.7,730.9 L 555.8,731.6 L 555.9,732.0 L 554.9,732.4 L 554.5,732.7 L 555.7,733.0 L 555.1,733.3 L 555.4,733.8 L 555.9,733.9 L 556.8,733.3 L 557.0,734.1 L 558.6,735.2 L 559.0,735.8 L 559.3,736.7 L 559.2,737.3 L 558.3,737.3 L 559.5,739.7 L 558.9,741.6 L 558.9,742.1 L 560.2,743.3 L 560.5,743.4 L 561.0,742.7 L 561.3,742.5 L 561.8,742.6 L 562.2,743.0 L 564.4,743.5 L 565.0,744.0 L 565.2,745.0 L 566.1,744.7 L 567.0,747.1 L 566.3,747.4 L 565.6,747.4 L 565.6,747.7 L 565.9,748.1 L 566.1,748.6 L 566.7,748.4 L 567.3,749.4 L 567.9,749.3 L 567.6,748.8 L 567.7,748.7 L 568.6,748.7 L 569.7,749.9 L 570.0,751.0 L 570.8,751.4 L 571.0,751.9 L 571.7,751.5 L 572.1,750.8 L 573.3,750.7 L 574.3,749.8 L 574.8,750.3 L 575.4,751.2 L 575.9,751.4 L 576.5,751.2 L 577.1,749.1 L 578.3,749.0 L 578.7,749.4 L 578.1,752.1 L 578.7,753.1 L 580.1,753.2 L 581.6,753.1 L 582.6,753.4 L 583.0,754.0 L 583.4,755.5 L 583.6,756.0 L 584.2,756.3 L 584.5,754.4 L 586.3,755.1 L 586.6,754.8 L 587.2,753.1 L 587.1,751.7 L 588.6,749.8 L 587.9,749.6 L 588.5,749.1 L 589.2,748.8 L 590.8,748.6 L 591.6,748.2 L 592.8,746.4 L 593.6,745.8 L 594.3,745.7 L 597.5,746.8 L 597.7,746.7 L 597.9,746.1 L 598.5,745.8 L 600.2,745.7 L 600.7,744.3 L 602.2,743.7 L 603.8,742.6 L 604.7,742.4 L 607.5,742.3 L 608.3,742.1 L 609.4,741.0 L 610.4,740.5 L 612.5,740.2 L 613.6,740.7 L 614.4,739.9 L 615.0,740.1 L 616.0,741.1 L 616.7,741.3 L 619.3,740.9 L 626.0,741.5 L 626.5,741.7 L 627.7,742.7 L 629.0,742.1 L 629.2,742.4 L 629.3,744.2 L 629.7,744.7 L 630.7,744.6 L 631.3,744.0 L 632.7,741.9 L 633.4,741.4 L 633.9,741.7 L 633.8,743.7 L 634.0,744.6 L 634.8,745.0 L 636.7,745.3 L 637.5,746.4 L 638.5,749.5 L 639.2,750.2 L 640.0,750.2 L 641.5,749.8 L 642.3,750.0 L 642.9,750.7 L 644.2,753.8 L 646.3,758.1 L 650.6,764.0 L 651.5,764.8 L 652.6,764.8 L 653.4,764.1 L 654.4,761.8 L 655.7,760.5 L 656.3,761.3 L 656.2,763.3 L 656.4,764.4 L 656.4,765.6 L 656.2,766.4 L 655.1,767.0 L 654.7,767.6 L 654.6,768.4 L 655.0,769.1 L 655.6,769.6 L 656.3,769.8 L 657.0,770.2 L 656.9,771.0 L 656.4,771.9 L 655.1,772.6 L 653.8,775.0 L 652.9,776.0 L 652.7,776.3 L 652.7,778.6 L 652.5,779.3 L 652.1,779.9 L 653.1,780.7 L 655.9,781.1 L 656.9,781.7 L 657.2,782.4 L 657.3,783.3 L 657.9,785.4 L 658.7,785.8 L 658.8,786.9 L 659.7,790.0 L 659.7,790.7 L 658.9,791.2 L 658.8,791.8 L 659.0,792.1 L 659.4,792.0 L 659.6,792.7 L 663.5,817.7 L 663.2,818.4 L 661.3,819.6 L 660.7,819.8 L 659.3,819.4 L 659.1,819.7 L 658.6,821.0 L 659.5,823.9 L 659.5,824.7 L 659.1,825.3 L 655.7,826.6 L 654.9,827.2 L 652.9,829.5 L 652.2,830.2 L 651.7,829.6 L 651.4,829.6 L 651.0,833.8 L 649.3,835.1 L 649.4,836.1 L 648.6,837.3 L 645.6,844.2 L 645.0,846.0 L 642.9,859.7 L 643.0,860.2 L 643.7,861.5 L 643.7,862.2 L 643.3,863.0 L 641.1,866.0 L 640.8,868.3 L 640.6,868.6 L 638.5,869.3 L 637.9,869.7 L 633.0,878.5 L 632.2,880.2 L 632.2,881.8 L 633.6,884.5 L 632.7,886.9 L 631.7,887.7 L 631.4,888.1 L 631.4,888.9 L 634.7,904.7 L 636.6,906.7 L 637.5,909.2 L 638.8,916.6 L 639.4,918.2 L 641.0,921.4 L 641.6,923.0 L 641.7,924.6 L 641.3,929.7 L 644.0,929.4 L 643.6,932.2 L 643.8,933.4 L 644.8,934.0 L 645.7,933.9 L 647.7,932.7 L 650.8,933.5 L 651.3,934.0 L 651.6,934.6 L 651.9,937.6 L 652.6,940.8 L 654.0,944.5 L 653.9,945.3 L 653.5,945.8 L 652.9,945.9 L 651.5,945.7 L 651.2,948.4 L 651.3,949.1 L 652.1,950.5 L 651.9,952.2 L 652.8,953.1 L 652.4,954.0 L 651.8,954.4 L 650.9,954.6 L 649.2,954.5 L 649.1,953.3 L 647.6,953.1 L 644.8,953.3 L 645.1,954.2 L 644.9,955.1 L 644.3,955.8 L 643.5,956.0 L 640.5,954.7 L 639.8,954.2 L 639.0,954.4 L 637.3,954.5 L 636.6,954.8 L 636.3,954.0 L 635.6,952.9 L 634.8,952.1 L 633.8,951.4 L 634.3,950.7 L 635.2,949.9 L 635.5,947.9 L 635.8,947.4 L 637.1,946.7 L 637.1,945.1 L 636.8,944.8 L 636.3,944.7 L 635.6,944.7 L 634.4,945.3 L 633.1,945.0 L 631.4,945.9 L 632.0,947.9 L 631.7,948.5 L 630.5,948.7 L 630.7,949.3 L 630.2,949.9 L 630.9,950.4 L 632.3,950.5 L 632.3,950.8 L 631.9,951.0 L 630.8,951.1 L 630.1,951.8 L 629.6,952.7 L 629.2,952.4 L 628.9,952.5 L 629.0,952.9 L 629.6,953.3 L 629.4,953.9 L 629.6,954.2 L 630.8,954.5 L 629.2,955.8 L 626.4,955.7 L 615.6,953.3 L 613.7,953.1 L 612.3,952.9 L 611.8,952.5 L 612.0,951.8 L 612.0,951.5 L 611.5,951.1 L 611.8,950.5 L 611.1,951.5 L 610.7,952.7 L 609.1,952.3 L 607.3,952.3 L 606.8,952.2 L 604.9,951.1 L 601.9,950.7 L 600.6,950.3 L 599.9,949.3 L 600.7,949.5 L 601.6,949.4 L 602.4,949.0 L 602.8,948.3 L 603.8,949.5 L 604.1,949.6 L 604.4,949.5 L 604.5,949.2 L 604.3,948.3 L 606.3,949.1 L 607.1,949.0 L 609.6,950.2 L 609.3,949.3 L 611.1,949.4 L 611.5,949.3 L 612.1,948.6 L 611.8,948.2 L 611.3,947.8 L 611.0,947.3 L 610.3,944.8 L 609.4,944.5 L 609.0,944.7 L 608.3,944.4 L 607.9,944.4 L 607.8,944.8 L 607.9,945.1 L 608.8,945.8 L 610.5,948.0 L 611.3,948.3 L 610.9,948.9 L 609.5,948.7 L 608.7,949.0 L 608.1,948.3 L 606.6,948.1 L 605.7,947.6 L 605.3,947.2 L 605.2,946.6 L 604.6,947.2 L 604.3,946.4 L 604.3,945.6 L 604.0,945.6 L 603.7,946.8 L 603.4,947.0 L 602.8,946.8 L 602.5,947.1 L 602.1,947.2 L 601.1,946.8 L 599.6,947.2 L 600.0,947.6 L 600.7,947.7 L 601.4,947.7 L 601.9,947.4 L 602.5,948.1 L 601.2,949.0 L 600.5,949.1 L 597.4,947.8 L 597.0,947.9 L 596.7,948.3 L 595.9,948.1 L 594.7,947.4 L 593.2,948.1 L 592.6,947.8 L 592.4,948.0 L 592.1,948.0 L 591.5,947.4 L 589.8,948.5 L 589.1,948.3 L 589.4,947.4 L 588.3,947.2 L 587.9,947.3 L 587.4,947.8 L 586.7,947.3 L 586.3,947.3 L 586.1,948.0 L 585.1,949.0 L 584.2,948.2 L 583.3,947.8 L 582.0,948.6 L 581.6,948.1 L 581.9,947.8 L 580.3,947.8 L 579.7,948.2 L 579.5,949.0 L 579.9,948.8 L 580.3,948.8 L 580.7,949.6 L 579.9,949.4 L 576.9,949.3 L 576.0,947.8 L 575.8,948.5 L 576.3,949.0 L 576.3,949.3 L 574.9,949.7 L 574.0,950.5 L 573.2,950.0 L 572.3,950.0 L 571.5,950.4 L 571.1,950.8 L 570.8,950.8 L 570.1,950.5 L 569.6,949.9 L 570.1,949.7 L 571.6,949.9 L 571.4,949.2 L 570.8,949.0 L 570.8,948.7 L 571.5,948.1 L 571.6,947.2 L 571.4,947.2 L 570.8,948.2 L 570.1,948.7 L 568.1,949.0 L 569.3,949.9 L 568.4,950.7 L 565.8,952.0 L 565.6,952.7 L 565.6,953.1 L 566.7,953.6 L 568.2,953.5 L 568.6,953.2 L 568.4,952.3 L 570.0,951.7 L 570.4,952.2 L 570.8,952.3 L 572.2,951.8 L 574.1,951.7 L 574.5,951.8 L 575.1,952.3 L 576.2,952.4 L 577.2,952.0 L 576.2,952.0 L 575.8,951.8 L 575.7,951.4 L 576.0,951.2 L 577.5,950.8 L 577.5,951.4 L 577.8,951.4 L 578.7,951.0 L 581.2,951.1 L 582.4,950.5 L 582.6,951.2 L 583.6,949.9 L 584.4,949.9 L 585.6,950.4 L 586.2,949.9 L 587.0,950.2 L 590.4,949.4 L 591.5,948.8 L 592.2,948.7 L 597.4,948.5 L 598.8,949.0 L 597.9,949.3 L 597.0,949.3 L 600.2,950.8 L 573.6,953.1 L 566.6,954.7 L 562.8,955.1 L 562.0,955.4 L 561.1,955.1 L 558.2,955.1 L 558.2,954.8 L 558.8,954.8 L 558.8,954.5 L 557.6,954.5 L 557.3,954.0 L 557.3,953.2 L 557.1,952.3 L 557.6,951.7 L 557.1,951.5 L 554.7,951.8 L 554.0,952.1 L 552.7,953.0 L 552.0,952.3 L 550.8,951.7 L 549.3,951.4 L 548.1,951.7 L 547.5,951.1 L 547.2,951.1 L 546.7,951.6 L 545.2,951.0 L 544.3,951.1 L 543.8,950.9 L 543.6,951.1 L 543.5,951.5 L 543.7,952.0 L 543.1,951.7 L 543.1,952.3 L 543.4,952.2 L 543.7,952.7 L 544.8,952.3 L 544.8,952.7 L 544.5,953.1 L 543.1,953.9 L 543.1,953.0 L 542.2,955.4 L 540.8,953.3 L 540.5,953.3 L 540.5,953.9 L 539.9,953.6 L 540.5,954.8 L 542.3,955.7 L 544.4,955.9 L 546.0,955.4 L 545.3,954.9 L 543.9,955.0 L 543.1,954.8 L 543.1,954.5 L 544.2,954.4 L 545.4,953.3 L 547.5,954.0 L 548.1,953.6 L 549.1,954.0 L 549.5,953.8 L 549.8,953.3 L 549.0,953.4 L 548.4,952.5 L 547.8,952.3 L 547.8,952.0 L 548.4,952.3 L 549.8,952.1 L 552.3,953.7 L 553.4,953.4 L 554.0,952.9 L 554.6,952.8 L 556.1,953.0 L 556.8,954.9 L 557.4,955.4 L 546.6,955.8 L 545.0,956.4 L 536.4,956.9 L 535.2,956.7 L 534.1,956.0 L 532.9,956.9 L 534.1,957.3 L 530.7,958.4 L 521.3,959.8 L 516.2,961.5 L 515.5,961.9 L 515.2,962.3 L 514.6,962.3 L 512.4,963.2 L 509.1,965.0 L 497.4,969.1 L 497.1,969.4 L 496.8,970.0 L 496.2,970.4 L 490.1,971.9 L 488.3,973.5 L 482.9,975.2 L 478.7,975.5 L 477.6,976.0 L 476.6,976.3 L 476.1,976.6 L 474.9,978.1 L 472.6,980.1 L 470.0,981.8 L 468.2,982.3 L 465.1,982.7 L 462.5,983.8 L 462.0,984.2 L 461.6,985.1 L 460.2,985.3 L 459.4,986.0 L 457.1,987.3 L 453.8,990.2 L 453.0,990.5 L 450.2,990.0 L 449.5,990.1 L 448.1,989.1 L 447.8,988.6 L 447.9,988.1 L 448.5,986.8 L 448.1,985.5 L 448.2,984.4 L 447.9,983.1 L 448.1,973.5 L 447.8,970.8 L 446.9,969.9 L 446.7,969.4 L 447.0,967.6 L 446.7,965.8 L 448.0,964.7 L 449.1,965.0 L 448.8,963.5 L 448.1,962.3 L 448.2,961.3 L 447.9,958.7 L 448.0,958.0 L 448.5,957.1 L 449.2,956.8 L 449.9,956.8 L 450.5,957.1 L 451.7,954.9 L 451.9,953.4 L 451.6,951.2 L 452.2,949.4 L 452.5,949.0 L 453.7,948.2 L 454.2,948.3 L 453.9,948.7 L 454.2,949.7 L 454.6,949.5 L 455.1,948.2 L 455.9,947.0 L 455.8,945.6 L 455.6,944.8 L 454.8,944.8 L 454.2,944.4 L 453.8,943.8 L 453.3,942.3 L 453.3,941.6 L 453.9,941.9 L 454.1,941.4 L 454.1,939.7 L 454.4,939.1 L 455.1,938.3 L 454.6,937.8 L 455.7,937.8 L 455.1,937.0 L 454.9,936.1 L 455.2,935.6 L 456.1,935.7 L 455.6,935.0 L 454.1,931.9 L 453.3,928.4 L 453.4,926.8 L 453.7,924.9 L 453.5,923.4 L 452.1,922.7 L 452.0,924.1 L 451.8,924.8 L 451.4,925.1 L 451.0,924.9 L 450.5,923.7 L 449.9,923.5 L 450.0,922.8 L 448.7,923.6 L 447.5,922.4 L 447.8,922.0 L 447.6,921.7 L 446.6,921.2 L 445.6,920.6 L 444.9,920.4 L 443.5,919.1 L 442.5,920.6 L 442.0,920.9 L 440.7,919.3 L 439.0,918.3 L 438.4,917.6 L 438.4,917.3 L 438.4,916.0 L 439.0,915.3 L 438.9,915.1 L 438.3,914.7 L 438.0,913.3 L 437.6,912.9 L 437.2,912.9 L 436.3,913.2 L 436.3,913.5 L 435.8,912.8 L 435.7,911.9 L 435.8,910.9 L 436.6,908.2 L 436.5,907.6 L 435.8,906.8 L 433.9,905.2 L 433.6,904.3 L 432.7,904.3 L 430.0,903.7 L 429.3,903.2 L 428.5,903.0 L 425.4,903.3 L 424.0,904.1 L 422.7,904.2 L 421.1,903.4 L 417.4,902.5 L 417.3,901.6 L 417.1,901.2 L 416.7,901.1 L 416.2,901.4 L 415.4,900.5 L 414.9,900.3 L 414.4,900.8 L 413.4,900.6 L 412.9,900.8 L 412.4,901.3 L 411.9,900.7 L 412.7,899.8 L 412.1,898.2 L 412.3,897.5 L 412.7,897.0 L 412.1,896.3 L 410.8,895.6 L 410.1,894.7 L 409.3,896.7 L 408.8,897.2 L 408.0,896.9 L 406.3,894.7 L 403.6,894.4 L 404.7,893.0 L 405.6,892.7 L 405.8,891.9 L 406.7,891.4 L 407.2,890.7 L 410.3,888.2 L 415.0,882.7 L 415.6,881.7 L 416.5,879.1 L 416.5,877.9 L 415.7,877.0 L 416.3,875.8 L 416.3,873.6 L 417.7,872.0 L 417.8,871.0 L 417.1,865.6 L 416.7,864.7 L 415.9,863.8 L 415.9,862.6 L 415.1,861.3 L 414.5,859.3 L 413.4,857.7 L 412.7,852.5 L 411.8,849.3 L 411.1,847.8 L 409.3,846.8 L 411.2,844.9 L 412.3,844.4 L 413.3,845.6 L 414.1,845.5 L 415.6,845.0 L 417.0,845.4 L 418.6,846.7 L 420.2,847.4 L 421.4,846.0 L 421.3,844.6 L 421.5,844.1 L 422.4,843.0 L 423.2,842.3 L 423.1,841.5 L 424.5,839.9 L 425.0,837.0 L 425.8,836.4 L 425.8,835.9 L 425.6,835.4 L 424.4,834.1 L 424.4,832.3 L 426.6,829.0 L 427.0,827.2 L 427.0,825.7 L 429.4,825.5 L 430.8,826.3 L 431.5,826.4 L 431.3,825.4 L 430.8,824.4 L 430.1,823.6 L 429.3,823.1 L 429.0,822.5 L 429.3,820.4 L 429.8,819.3 L 429.8,818.8 L 429.3,818.8 L 426.3,819.8 L 422.2,818.5 L 418.6,816.1 L 418.7,815.6 L 419.4,814.8 L 419.5,814.3 L 419.4,812.6 L 419.9,810.1 L 419.9,809.2 L 419.1,807.6 L 419.1,807.1 L 421.4,805.1 L 422.0,805.0 L 423.5,805.3 L 424.4,805.2 L 425.8,804.6 L 426.7,804.6 L 427.8,805.3 L 429.3,805.3 L 431.2,804.8 L 431.8,805.0 L 432.3,805.4 L 433.2,807.2 L 434.2,808.0 L 435.6,808.2 L 436.4,807.9 L 436.3,806.5 L 436.5,805.9 L 437.4,805.7 L 438.3,807.0 L 439.7,809.8 L 440.6,810.4 L 441.8,810.6 L 444.3,810.3 L 443.4,808.4 L 443.1,807.4 L 443.6,805.3 L 443.6,804.5 L 443.0,802.6 L 443.0,800.0 L 442.8,799.1 L 440.9,797.4 L 439.9,795.5 L 438.8,794.4 L 438.3,793.6 L 437.7,793.4 L 437.1,793.6 L 431.7,792.1 L 431.2,790.7 L 432.0,786.8 L 432.2,784.7 L 432.8,782.5 L 433.5,781.8 L 437.3,779.8 L 440.0,779.5 L 440.7,778.9 L 440.2,778.3 L 438.4,777.2 L 437.4,776.5 L 437.0,776.0 L 436.4,774.8 L 436.0,774.7 L 435.1,775.0 L 432.9,774.1 L 432.9,772.5 L 434.4,768.6 L 434.5,767.6 L 435.7,764.0 L 435.4,763.6 L 433.7,763.6 L 432.8,763.8 L 430.3,765.1 L 428.6,765.2 L 427.6,765.0 L 426.9,764.6 L 426.2,763.8 L 423.7,760.1 L 423.2,758.6 L 423.1,756.6 L 424.7,744.6 L 424.5,743.6 L 423.5,743.6 L 423.3,743.2 L 423.7,742.9 L 423.6,741.9 L 423.4,741.6 L 422.8,741.5 L 422.5,740.6 L 422.5,740.2 L 423.4,739.9 L 424.0,739.4 L 424.1,739.0 L 423.6,738.8 L 423.2,738.3 L 423.6,737.2 L 424.5,736.0 L 425.3,735.2 L 427.5,734.4 L 428.4,733.8 L 429.3,732.7 L 429.6,731.5 L 430.4,730.4 Z M 637.6,956.4 L 637.4,957.1 L 635.6,956.6 L 631.4,956.2 L 630.8,955.9 L 630.9,955.3 L 632.6,953.9 L 633.7,954.2 L 634.0,954.4 L 634.3,955.1 L 634.7,955.3 L 635.6,955.6 L 635.9,955.5 L 636.9,956.3 L 637.6,956.4 Z M 204.5,780.5 L 203.7,779.8 L 203.5,779.3 L 203.6,778.6 L 204.6,778.6 L 204.5,778.1 L 205.7,776.8 L 207.0,774.8 L 207.7,774.3 L 208.5,774.3 L 209.9,774.6 L 210.6,774.3 L 210.6,774.1 L 208.0,774.2 L 206.8,774.0 L 206.3,773.6 L 206.9,772.8 L 206.9,772.2 L 207.4,770.4 L 206.5,771.4 L 205.4,775.0 L 203.9,774.2 L 203.6,773.7 L 204.0,773.5 L 204.0,771.9 L 204.2,771.2 L 203.6,770.7 L 203.5,768.4 L 203.8,767.6 L 204.5,768.2 L 204.4,767.3 L 204.5,766.4 L 204.2,766.4 L 203.6,766.9 L 202.6,767.0 L 202.3,767.2 L 201.7,769.7 L 201.4,770.2 L 200.0,769.5 L 199.8,769.2 L 200.2,768.6 L 199.3,767.5 L 199.0,766.6 L 199.0,765.8 L 199.3,764.9 L 200.2,763.7 L 200.5,762.7 L 200.2,762.7 L 199.1,763.5 L 197.6,763.7 L 196.1,763.2 L 195.5,762.3 L 195.2,760.2 L 196.4,758.4 L 196.6,756.9 L 196.4,756.9 L 195.4,758.9 L 194.8,759.7 L 194.1,760.0 L 193.5,759.6 L 192.9,758.8 L 192.4,757.8 L 192.3,756.9 L 191.0,757.5 L 188.5,759.0 L 187.3,759.4 L 187.0,759.7 L 186.6,759.7 L 186.5,759.5 L 186.6,759.1 L 187.3,758.7 L 189.6,755.7 L 190.7,753.4 L 190.8,749.8 L 191.6,749.4 L 192.0,748.6 L 193.3,747.9 L 193.5,747.1 L 192.1,747.7 L 191.7,747.5 L 189.8,745.2 L 189.7,744.7 L 189.1,745.0 L 189.5,746.4 L 189.7,747.6 L 189.2,748.6 L 187.9,749.3 L 186.3,749.1 L 185.6,748.0 L 185.5,746.6 L 185.9,745.3 L 187.6,743.0 L 188.3,741.5 L 188.2,740.0 L 187.8,739.7 L 187.5,741.6 L 187.0,741.9 L 186.2,743.2 L 185.6,743.4 L 185.6,743.6 L 185.5,743.8 L 183.8,744.4 L 182.9,744.3 L 181.5,743.9 L 180.4,742.3 L 179.7,741.6 L 177.9,740.5 L 177.1,739.1 L 175.7,738.8 L 174.5,737.6 L 173.0,737.1 L 172.3,736.5 L 172.2,735.4 L 172.9,734.1 L 174.0,733.4 L 175.1,734.2 L 174.2,733.0 L 173.6,732.4 L 173.4,732.6 L 173.1,733.1 L 172.4,732.9 L 171.9,732.4 L 172.0,732.1 L 173.0,731.7 L 173.7,730.8 L 174.8,728.7 L 174.2,729.0 L 172.9,730.4 L 171.0,731.5 L 171.0,734.1 L 170.9,734.6 L 170.5,735.0 L 170.0,735.4 L 169.3,735.5 L 168.3,735.2 L 167.6,734.5 L 167.2,733.6 L 167.2,732.7 L 168.9,731.2 L 169.6,730.4 L 169.0,729.6 L 168.8,730.3 L 168.3,730.7 L 167.0,730.9 L 167.1,731.9 L 166.3,732.6 L 165.4,732.9 L 164.9,732.6 L 164.2,731.4 L 164.0,730.7 L 164.6,729.8 L 164.5,729.5 L 164.2,729.4 L 163.8,729.6 L 163.3,730.5 L 162.4,730.0 L 159.8,727.5 L 158.8,727.2 L 157.0,727.5 L 156.5,727.2 L 155.6,728.1 L 155.2,727.6 L 155.0,726.5 L 155.0,725.5 L 155.3,724.0 L 155.1,722.9 L 152.0,719.6 L 151.5,718.6 L 151.4,716.5 L 151.6,715.5 L 152.1,714.9 L 151.4,715.0 L 150.0,716.1 L 149.5,716.4 L 148.7,716.5 L 148.1,716.4 L 147.7,715.8 L 147.4,715.8 L 147.1,716.4 L 146.9,716.2 L 146.6,715.6 L 146.6,714.0 L 147.2,712.2 L 147.6,712.3 L 149.5,710.7 L 148.4,710.6 L 148.1,710.1 L 148.7,706.7 L 149.0,706.1 L 149.7,706.4 L 149.8,705.7 L 150.6,705.0 L 151.2,703.0 L 152.2,700.8 L 152.8,700.6 L 153.2,700.0 L 153.2,699.3 L 153.0,698.7 L 153.6,697.8 L 152.7,698.1 L 152.7,699.6 L 150.4,701.3 L 149.7,702.5 L 148.6,705.1 L 148.0,706.1 L 146.9,707.6 L 145.7,708.7 L 145.1,708.9 L 144.8,708.4 L 144.9,707.7 L 145.1,707.2 L 146.0,706.7 L 145.4,706.6 L 144.8,707.0 L 144.2,706.4 L 145.1,703.8 L 145.6,703.1 L 146.7,702.2 L 147.1,701.4 L 146.6,701.1 L 146.0,701.9 L 144.1,703.4 L 143.6,704.2 L 143.1,705.9 L 142.5,706.4 L 142.1,705.5 L 141.1,704.3 L 141.0,703.3 L 141.6,703.3 L 142.1,702.9 L 142.8,701.7 L 143.3,698.7 L 142.6,699.3 L 142.0,700.3 L 140.8,700.8 L 140.4,700.8 L 140.4,699.8 L 140.8,699.0 L 140.5,698.2 L 141.0,697.5 L 140.2,697.4 L 140.0,696.9 L 140.1,696.2 L 140.4,695.6 L 141.7,695.0 L 143.2,694.7 L 143.7,694.4 L 144.4,692.9 L 145.1,692.7 L 145.9,691.7 L 146.6,691.3 L 146.0,690.8 L 145.7,690.1 L 145.3,691.2 L 143.9,691.8 L 143.7,692.7 L 143.3,693.4 L 142.6,693.8 L 141.9,693.5 L 141.5,693.8 L 140.8,693.8 L 141.0,693.0 L 140.8,692.4 L 140.4,692.3 L 139.0,694.4 L 137.6,694.1 L 136.8,691.6 L 135.8,691.6 L 136.5,692.4 L 136.6,693.2 L 136.1,694.7 L 135.2,694.0 L 134.0,693.8 L 135.9,695.5 L 136.1,696.3 L 135.7,697.1 L 134.9,697.9 L 134.1,698.5 L 133.7,698.5 L 133.4,698.4 L 133.2,698.5 L 133.4,699.5 L 133.4,701.0 L 134.4,701.7 L 134.6,702.2 L 134.0,703.3 L 133.3,702.9 L 131.7,702.7 L 131.0,702.2 L 129.4,700.2 L 128.9,699.3 L 128.9,698.4 L 129.1,697.6 L 129.8,696.7 L 131.1,696.1 L 131.3,695.5 L 131.7,695.0 L 131.7,694.7 L 131.5,694.7 L 131.4,694.4 L 134.0,691.3 L 138.1,683.2 L 139.0,679.7 L 139.6,678.0 L 143.8,671.6 L 144.6,670.7 L 145.6,670.1 L 147.4,669.9 L 150.9,670.3 L 152.7,670.0 L 160.4,665.6 L 160.9,665.2 L 161.7,663.7 L 162.5,663.0 L 163.0,663.2 L 166.5,663.4 L 167.9,663.4 L 169.1,664.3 L 169.8,664.4 L 172.3,664.1 L 174.2,664.5 L 175.0,664.2 L 177.1,662.7 L 178.1,663.2 L 178.9,663.2 L 179.7,662.7 L 180.3,661.5 L 180.4,660.4 L 180.2,659.9 L 180.3,659.7 L 181.0,659.7 L 181.4,660.0 L 181.5,660.9 L 182.5,661.3 L 182.4,661.9 L 182.7,662.2 L 183.5,662.4 L 184.6,662.2 L 185.6,661.7 L 186.3,661.2 L 186.5,660.6 L 186.7,658.7 L 186.1,652.6 L 186.2,650.8 L 186.6,649.0 L 186.6,648.1 L 186.1,647.4 L 184.2,646.9 L 183.0,646.3 L 182.1,645.2 L 181.5,644.2 L 180.4,643.7 L 178.3,642.1 L 176.0,641.5 L 176.3,639.6 L 177.2,638.5 L 179.8,637.2 L 181.6,635.8 L 182.8,635.6 L 183.5,635.8 L 183.0,636.8 L 185.8,636.7 L 187.1,636.3 L 187.8,635.1 L 188.0,634.0 L 188.3,633.1 L 188.3,630.7 L 189.2,627.7 L 189.1,627.0 L 188.7,626.1 L 186.5,623.3 L 186.1,622.1 L 186.0,621.1 L 186.4,618.1 L 200.1,618.7 L 202.2,619.2 L 202.9,619.7 L 203.6,619.3 L 205.3,619.0 L 206.5,619.5 L 207.9,619.2 L 208.8,619.9 L 210.1,619.7 L 210.8,619.9 L 211.2,619.4 L 211.9,619.9 L 213.4,619.7 L 214.1,619.8 L 214.6,620.4 L 214.8,621.3 L 214.6,622.9 L 213.8,625.2 L 214.0,626.1 L 214.5,626.8 L 215.1,627.1 L 216.7,627.1 L 217.4,627.4 L 218.1,627.4 L 218.6,626.9 L 218.8,626.1 L 219.5,624.3 L 221.0,624.3 L 222.7,625.1 L 223.8,626.1 L 223.8,627.0 L 224.2,627.4 L 225.9,627.6 L 226.5,628.0 L 227.0,628.8 L 227.9,628.9 L 230.6,628.7 L 231.5,628.8 L 232.3,629.2 L 234.2,631.2 L 234.6,632.1 L 235.6,632.0 L 236.8,631.3 L 238.4,630.8 L 240.0,631.0 L 241.9,631.7 L 242.6,632.3 L 243.8,634.2 L 244.5,634.6 L 251.7,632.6 L 253.3,631.7 L 254.7,630.4 L 255.4,630.0 L 256.5,630.0 L 259.1,630.9 L 260.0,631.0 L 260.5,630.8 L 262.6,629.6 L 263.1,629.5 L 265.8,630.8 L 266.7,630.9 L 270.2,631.1 L 271.8,630.8 L 275.0,629.6 L 276.8,629.2 L 280.5,628.9 L 281.9,629.1 L 284.7,630.1 L 285.9,630.2 L 285.9,631.0 L 284.0,631.1 L 283.4,631.5 L 283.2,632.5 L 283.5,635.3 L 282.7,637.1 L 281.5,638.4 L 280.8,639.7 L 281.6,641.5 L 282.4,642.2 L 285.0,643.4 L 285.7,644.0 L 287.4,646.4 L 288.1,647.1 L 289.0,647.6 L 290.7,648.4 L 291.5,648.4 L 292.9,647.8 L 294.2,647.6 L 294.9,646.9 L 295.3,646.1 L 295.6,644.8 L 296.6,644.4 L 297.4,643.2 L 298.8,642.1 L 299.3,641.6 L 299.8,639.6 L 300.2,639.2 L 301.7,639.1 L 303.6,638.5 L 304.4,638.4 L 305.5,638.7 L 306.2,639.3 L 307.9,642.0 L 310.7,643.9 L 310.9,645.2 L 310.4,646.4 L 310.4,646.7 L 310.5,647.2 L 311.7,648.4 L 313.4,651.8 L 314.6,653.1 L 316.4,653.1 L 317.0,652.8 L 317.9,651.6 L 318.5,650.1 L 318.8,649.7 L 319.6,649.1 L 321.1,648.5 L 320.8,647.5 L 321.3,646.9 L 323.0,645.9 L 322.9,644.6 L 323.4,644.3 L 323.1,643.4 L 323.1,643.0 L 323.9,642.7 L 325.9,642.8 L 326.7,641.8 L 328.7,640.2 L 329.9,640.8 L 329.8,640.1 L 330.9,639.7 L 331.1,639.2 L 331.7,639.7 L 331.9,639.2 L 333.5,638.5 L 334.4,639.2 L 335.8,639.5 L 337.3,640.3 L 339.4,640.4 L 340.8,641.4 L 342.3,641.6 L 343.7,642.6 L 346.5,643.9 L 348.2,644.3 L 349.6,645.5 L 350.4,645.9 L 352.0,645.8 L 353.5,646.8 L 354.3,647.0 L 356.7,647.1 L 358.2,645.2 L 358.4,644.6 L 358.4,642.9 L 358.7,642.2 L 359.3,641.5 L 360.7,640.6 L 365.5,639.0 L 367.0,637.7 L 368.8,636.8 L 369.5,636.7 L 372.1,637.2 L 373.1,636.2 L 373.3,635.6 L 373.2,634.5 L 373.7,634.4 L 374.1,633.7 L 374.3,632.2 L 373.0,631.7 L 372.7,630.5 L 371.5,629.9 L 370.7,629.1 L 369.9,627.9 L 370.5,627.1 L 372.5,626.6 L 373.2,626.0 L 373.7,626.0 L 374.9,626.6 L 375.6,626.1 L 376.1,626.1 L 379.4,626.8 L 381.1,627.4 L 387.7,630.9 L 388.4,631.8 L 388.9,632.8 L 389.0,633.7 L 387.6,636.6 L 387.5,637.7 L 387.7,638.2 L 388.5,639.8 L 389.0,639.8 L 389.9,639.5 L 390.5,639.9 L 391.1,640.6 L 391.4,641.6 L 391.4,642.6 L 390.5,645.4 L 390.7,646.2 L 391.5,646.9 L 393.4,646.8 L 394.3,647.0 L 395.1,647.7 L 395.3,648.4 L 395.3,650.2 L 396.0,651.6 L 396.0,652.1 L 393.9,663.5 L 394.7,663.5 L 396.9,664.5 L 397.8,664.4 L 399.0,663.9 L 399.6,664.3 L 400.7,668.4 L 401.1,669.3 L 402.0,670.7 L 404.3,671.8 L 405.5,671.9 L 406.6,671.0 L 407.2,673.4 L 407.5,674.0 L 408.0,674.2 L 409.2,674.2 L 411.7,675.1 L 413.0,675.7 L 414.0,676.5 L 412.3,677.1 L 411.8,677.7 L 412.2,678.4 L 412.9,678.5 L 413.7,678.4 L 414.2,678.6 L 413.9,679.8 L 413.4,680.4 L 412.6,680.6 L 411.0,680.6 L 409.4,680.2 L 409.0,680.5 L 408.5,681.5 L 408.8,682.2 L 408.7,682.5 L 408.0,682.7 L 406.5,683.5 L 406.0,684.3 L 405.7,685.9 L 405.3,686.6 L 405.0,686.8 L 403.8,686.9 L 403.4,687.5 L 403.4,688.9 L 403.0,689.8 L 401.0,691.8 L 400.3,693.1 L 400.1,693.9 L 400.3,694.6 L 401.0,695.1 L 402.4,694.5 L 404.7,694.5 L 406.1,694.2 L 406.9,693.7 L 408.4,690.6 L 409.1,690.6 L 410.0,690.9 L 411.3,690.7 L 412.5,691.1 L 413.7,690.5 L 414.2,690.5 L 415.2,691.0 L 416.0,691.9 L 416.7,692.9 L 417.0,693.9 L 417.0,698.5 L 416.9,699.4 L 416.4,700.1 L 415.5,702.6 L 415.4,703.5 L 416.5,704.0 L 416.7,704.8 L 417.4,713.6 L 417.8,714.8 L 419.1,716.6 L 420.2,718.7 L 421.0,719.1 L 421.9,719.2 L 422.9,719.0 L 423.9,718.4 L 424.2,718.5 L 424.6,719.2 L 424.8,721.0 L 425.0,721.5 L 425.8,722.1 L 429.3,722.5 L 430.1,723.0 L 430.7,723.9 L 431.2,725.0 L 431.4,726.1 L 431.5,727.2 L 431.3,728.3 L 430.4,730.4 L 429.6,731.5 L 429.3,732.7 L 428.4,733.8 L 427.5,734.4 L 425.3,735.2 L 424.5,736.0 L 423.6,737.2 L 423.2,738.3 L 423.6,738.8 L 424.1,739.0 L 424.0,739.4 L 423.4,739.9 L 422.5,740.2 L 422.5,740.6 L 422.8,741.5 L 423.4,741.6 L 423.6,741.9 L 423.7,742.9 L 423.3,743.2 L 423.5,743.6 L 424.5,743.6 L 424.7,744.6 L 423.1,756.6 L 423.2,758.6 L 423.7,760.1 L 426.2,763.8 L 426.9,764.6 L 427.6,765.0 L 428.6,765.2 L 430.3,765.1 L 432.8,763.8 L 433.7,763.6 L 435.4,763.6 L 435.7,764.0 L 434.5,767.6 L 434.4,768.6 L 432.9,772.5 L 432.9,774.1 L 435.1,775.0 L 436.0,774.7 L 436.4,774.8 L 437.0,776.0 L 437.4,776.5 L 438.4,777.2 L 440.2,778.3 L 440.7,778.9 L 440.0,779.5 L 437.3,779.8 L 433.5,781.8 L 432.8,782.5 L 432.2,784.7 L 432.0,786.8 L 431.2,790.7 L 431.7,792.1 L 437.1,793.6 L 437.7,793.4 L 438.3,793.6 L 438.8,794.4 L 439.9,795.5 L 440.9,797.4 L 442.8,799.1 L 443.0,800.0 L 443.0,802.6 L 443.6,804.5 L 443.6,805.3 L 443.1,807.4 L 443.4,808.4 L 444.3,810.3 L 441.8,810.6 L 440.6,810.4 L 439.7,809.8 L 438.3,807.0 L 437.4,805.7 L 436.5,805.9 L 436.3,806.5 L 436.4,807.9 L 435.6,808.2 L 434.9,808.2 L 433.6,807.6 L 433.2,807.2 L 432.3,805.4 L 431.8,805.0 L 431.2,804.8 L 429.3,805.3 L 427.8,805.3 L 426.7,804.6 L 425.8,804.6 L 424.4,805.2 L 423.5,805.3 L 422.0,805.0 L 421.4,805.1 L 419.3,806.8 L 419.1,807.1 L 419.1,807.6 L 419.9,809.2 L 419.9,810.1 L 419.4,812.6 L 419.5,814.3 L 419.4,814.8 L 418.7,815.6 L 418.6,816.1 L 422.2,818.5 L 426.3,819.8 L 429.3,818.8 L 429.8,818.8 L 429.8,819.3 L 429.3,820.4 L 429.0,822.5 L 429.3,823.1 L 430.1,823.6 L 430.8,824.4 L 431.3,825.4 L 431.5,826.4 L 430.8,826.3 L 429.4,825.5 L 427.0,825.7 L 427.0,827.2 L 426.6,829.0 L 424.4,832.3 L 424.4,834.1 L 425.6,835.4 L 425.8,835.9 L 425.8,836.4 L 425.0,837.0 L 424.5,839.9 L 423.1,841.5 L 423.2,842.3 L 422.4,843.0 L 421.5,844.1 L 421.3,844.6 L 421.4,846.0 L 420.2,847.4 L 418.6,846.7 L 417.0,845.4 L 415.6,845.0 L 414.1,845.5 L 413.3,845.6 L 412.3,844.4 L 411.2,844.9 L 409.3,846.8 L 406.6,844.9 L 405.8,843.9 L 405.6,842.7 L 405.8,841.0 L 400.7,840.7 L 400.4,841.6 L 399.3,843.0 L 399.0,844.0 L 398.9,845.5 L 398.5,846.5 L 398.5,846.8 L 399.0,847.1 L 399.1,848.1 L 398.9,849.0 L 398.5,849.8 L 397.8,850.6 L 396.3,851.6 L 395.9,853.3 L 395.6,853.7 L 394.5,854.2 L 393.1,856.3 L 393.7,858.7 L 393.5,859.6 L 391.1,860.6 L 390.6,860.7 L 389.8,859.3 L 389.2,859.0 L 389.0,860.0 L 388.4,859.9 L 388.2,860.6 L 386.7,861.1 L 386.0,861.0 L 384.3,862.3 L 382.6,862.8 L 382.1,863.3 L 382.5,861.7 L 382.3,861.1 L 381.2,860.4 L 381.1,859.6 L 380.9,859.4 L 379.7,859.4 L 378.6,858.4 L 378.1,855.6 L 377.4,854.7 L 376.8,854.6 L 375.3,855.0 L 374.7,854.9 L 373.8,853.3 L 373.2,853.0 L 372.6,852.9 L 371.5,853.0 L 371.2,853.7 L 370.7,853.9 L 370.1,854.9 L 369.6,854.4 L 368.8,852.9 L 368.3,853.7 L 367.1,854.9 L 366.7,855.1 L 366.5,855.0 L 367.3,854.1 L 367.6,852.4 L 368.9,851.3 L 369.8,849.8 L 370.2,848.8 L 370.0,848.2 L 371.1,846.7 L 371.6,844.9 L 372.4,843.9 L 371.5,842.8 L 371.4,841.3 L 372.3,838.6 L 369.7,834.9 L 368.8,833.0 L 368.3,831.2 L 368.4,829.3 L 369.0,827.4 L 369.4,826.8 L 369.4,825.9 L 368.7,824.8 L 368.2,824.7 L 367.2,825.8 L 367.3,825.3 L 367.9,824.0 L 366.9,819.7 L 365.5,819.2 L 364.9,818.8 L 364.8,817.6 L 365.1,816.3 L 365.8,815.2 L 364.9,813.4 L 364.5,813.0 L 365.2,812.3 L 366.2,811.7 L 364.9,810.7 L 362.8,809.7 L 361.9,808.7 L 361.1,809.5 L 359.0,809.7 L 358.6,809.6 L 358.7,808.7 L 360.0,807.2 L 359.8,806.3 L 359.2,805.7 L 358.3,805.3 L 357.5,805.3 L 357.0,805.9 L 356.9,807.5 L 356.7,807.6 L 355.7,806.1 L 355.2,803.2 L 355.0,802.5 L 354.5,801.9 L 353.8,801.8 L 353.8,802.3 L 353.0,803.4 L 353.1,804.4 L 350.9,805.3 L 350.3,804.7 L 347.3,805.2 L 343.2,808.0 L 342.3,808.2 L 341.7,808.0 L 341.5,807.4 L 341.9,805.3 L 341.7,804.6 L 341.0,804.3 L 338.6,803.6 L 337.9,803.6 L 337.2,803.8 L 335.7,805.3 L 335.0,805.7 L 334.7,805.0 L 333.8,805.3 L 332.4,805.5 L 330.5,804.8 L 329.0,804.9 L 328.3,805.2 L 327.3,806.0 L 325.8,808.8 L 325.3,809.5 L 322.8,812.1 L 321.3,813.1 L 320.5,813.4 L 320.1,813.3 L 318.2,812.2 L 316.8,812.2 L 315.6,812.6 L 314.8,813.5 L 314.5,815.0 L 313.6,814.2 L 314.1,812.8 L 316.4,809.2 L 317.1,805.4 L 317.5,805.3 L 317.7,803.8 L 318.0,803.3 L 318.7,802.6 L 320.0,800.4 L 320.9,799.7 L 322.7,799.4 L 323.5,798.8 L 324.1,798.0 L 324.4,797.0 L 322.3,794.0 L 321.7,793.5 L 320.0,791.1 L 319.4,790.6 L 319.4,789.8 L 319.0,788.1 L 318.9,784.8 L 319.1,783.3 L 319.7,780.6 L 319.6,779.9 L 319.1,779.5 L 318.1,779.2 L 316.4,779.0 L 314.7,779.1 L 313.2,778.6 L 312.9,777.0 L 313.3,775.1 L 314.1,773.7 L 315.4,772.8 L 315.8,772.3 L 315.6,770.8 L 316.2,769.2 L 316.2,768.7 L 314.4,767.0 L 313.4,766.4 L 312.3,765.1 L 310.1,765.0 L 309.5,764.8 L 310.4,764.1 L 308.5,762.0 L 308.4,761.2 L 308.6,759.5 L 307.9,759.0 L 307.6,758.5 L 307.2,756.9 L 305.7,755.7 L 305.4,755.3 L 304.9,753.8 L 303.7,753.1 L 301.9,749.1 L 300.5,747.2 L 298.7,745.4 L 295.6,743.3 L 295.2,742.8 L 294.4,738.9 L 293.9,738.4 L 290.8,737.8 L 263.7,738.0 L 263.5,740.7 L 263.2,741.1 L 253.8,743.2 L 253.1,743.2 L 251.6,742.7 L 249.1,740.8 L 248.1,740.8 L 241.7,742.2 L 239.8,743.0 L 238.2,743.9 L 238.0,744.3 L 238.0,745.3 L 237.4,748.7 L 237.6,749.5 L 237.1,749.6 L 237.0,750.5 L 235.5,751.4 L 235.1,751.8 L 234.3,753.2 L 234.2,755.1 L 234.1,755.5 L 232.9,755.6 L 232.2,757.7 L 231.4,758.1 L 231.5,758.7 L 230.0,763.6 L 229.1,764.8 L 228.5,764.6 L 227.6,765.2 L 227.2,765.7 L 227.4,766.8 L 226.0,767.4 L 225.0,769.1 L 224.3,769.7 L 221.8,769.9 L 220.8,770.4 L 220.0,769.5 L 219.1,770.2 L 218.5,771.6 L 218.3,772.8 L 219.0,774.0 L 219.1,774.4 L 218.0,774.6 L 217.3,775.9 L 216.7,777.3 L 216.1,778.1 L 213.7,779.4 L 212.4,780.4 L 211.8,780.5 L 210.8,780.1 L 209.2,779.1 L 208.5,778.9 L 205.5,779.7 L 204.5,780.5 Z M 248.6,524.2 L 249.0,525.5 L 249.8,526.3 L 250.4,527.4 L 251.0,527.7 L 252.2,527.9 L 251.7,529.0 L 251.8,529.5 L 252.8,530.1 L 252.8,530.9 L 251.4,532.6 L 251.2,534.0 L 250.1,534.8 L 249.8,535.6 L 250.5,539.4 L 250.4,541.3 L 254.9,542.9 L 255.2,543.5 L 255.1,544.1 L 254.4,544.3 L 254.8,544.9 L 255.7,545.9 L 257.4,546.6 L 258.0,547.0 L 258.4,547.6 L 260.0,551.4 L 260.1,552.4 L 259.7,554.2 L 258.8,557.6 L 258.8,559.5 L 259.2,560.6 L 260.7,562.0 L 261.4,562.9 L 261.7,563.7 L 261.4,566.4 L 260.8,568.4 L 259.3,569.9 L 255.7,572.0 L 256.3,572.5 L 256.9,573.4 L 257.7,575.2 L 258.3,576.8 L 259.2,578.3 L 260.0,579.2 L 262.4,581.0 L 263.3,582.3 L 264.5,582.7 L 264.8,583.3 L 264.1,586.4 L 264.2,586.9 L 266.0,587.9 L 266.5,589.1 L 267.2,589.8 L 267.4,589.8 L 269.4,588.2 L 269.8,586.4 L 270.2,585.7 L 270.9,585.3 L 271.5,585.4 L 272.4,586.5 L 274.7,586.4 L 274.9,586.6 L 275.0,587.6 L 275.5,587.7 L 276.3,587.4 L 276.3,588.4 L 276.6,589.2 L 277.7,590.7 L 278.6,591.6 L 278.8,592.0 L 278.7,592.5 L 278.0,593.8 L 278.2,594.6 L 279.5,596.2 L 279.5,597.8 L 279.7,598.5 L 280.5,598.7 L 282.1,599.8 L 283.2,600.2 L 282.9,601.1 L 283.9,602.8 L 284.4,603.1 L 283.9,603.7 L 283.7,605.4 L 284.4,605.5 L 284.9,605.3 L 285.2,604.8 L 285.3,604.0 L 285.6,604.4 L 285.9,605.4 L 286.0,606.5 L 285.2,607.3 L 284.5,607.0 L 284.2,607.2 L 284.2,607.4 L 284.7,608.1 L 284.2,609.5 L 284.3,610.3 L 284.0,610.9 L 284.0,611.2 L 284.7,611.6 L 285.0,612.3 L 285.1,613.3 L 284.7,614.3 L 285.3,615.5 L 284.9,616.1 L 283.8,616.4 L 283.3,617.6 L 282.7,618.1 L 282.8,618.8 L 283.6,619.3 L 283.8,619.7 L 283.6,621.6 L 283.8,622.7 L 283.7,623.2 L 282.5,623.9 L 283.3,624.3 L 284.1,625.5 L 284.1,625.2 L 284.3,624.7 L 284.6,624.6 L 285.3,626.8 L 285.8,626.0 L 286.3,626.8 L 285.9,630.2 L 284.7,630.1 L 281.9,629.1 L 280.5,628.9 L 276.8,629.2 L 275.0,629.6 L 271.8,630.8 L 270.2,631.1 L 266.7,630.9 L 265.8,630.8 L 263.1,629.5 L 262.6,629.6 L 260.5,630.8 L 260.0,631.0 L 259.1,630.9 L 256.5,630.0 L 255.4,630.0 L 254.7,630.4 L 253.3,631.7 L 251.7,632.6 L 244.5,634.6 L 243.8,634.2 L 242.6,632.3 L 241.9,631.7 L 240.0,631.0 L 238.4,630.8 L 236.8,631.3 L 235.6,632.0 L 234.6,632.1 L 234.2,631.2 L 232.3,629.2 L 231.5,628.8 L 230.6,628.7 L 227.9,628.9 L 227.0,628.8 L 226.5,628.0 L 225.9,627.6 L 224.2,627.4 L 223.8,627.0 L 223.8,626.1 L 222.7,625.1 L 221.0,624.3 L 219.5,624.3 L 218.8,626.1 L 218.6,626.9 L 218.1,627.4 L 217.4,627.4 L 216.7,627.1 L 215.1,627.1 L 214.5,626.8 L 214.0,626.1 L 213.8,625.2 L 214.8,622.2 L 214.8,621.3 L 214.6,620.4 L 214.1,619.8 L 213.4,619.7 L 211.9,619.9 L 211.2,619.4 L 210.8,619.9 L 210.1,619.7 L 208.8,619.9 L 207.9,619.2 L 206.5,619.5 L 205.3,619.0 L 203.6,619.3 L 202.9,619.7 L 202.2,619.2 L 200.1,618.7 L 186.4,618.1 L 124.0,617.9 L 122.8,618.1 L 121.7,618.6 L 119.2,620.4 L 116.6,621.6 L 114.3,623.4 L 103.5,628.6 L 102.1,628.9 L 94.3,628.4 L 90.9,628.7 L 87.4,627.6 L 85.9,627.5 L 82.7,628.1 L 82.1,628.4 L 80.3,627.9 L 79.9,628.0 L 73.5,631.5 L 72.3,632.1 L 70.1,632.1 L 67.9,632.7 L 67.1,632.7 L 61.3,632.3 L 59.8,632.7 L 58.8,633.4 L 58.1,631.3 L 55.8,629.0 L 55.6,628.4 L 55.7,626.1 L 56.2,625.7 L 56.6,624.9 L 58.7,623.6 L 60.9,623.6 L 62.3,622.7 L 62.8,622.3 L 63.5,621.2 L 65.1,619.9 L 65.9,620.9 L 66.5,622.6 L 67.1,623.0 L 67.1,622.3 L 67.6,621.7 L 68.3,621.5 L 69.2,621.7 L 70.6,622.5 L 71.9,622.9 L 73.3,623.6 L 74.0,623.6 L 74.8,623.2 L 75.9,621.9 L 76.6,621.5 L 77.6,621.5 L 79.3,622.0 L 80.8,621.1 L 81.6,622.4 L 84.9,621.1 L 87.3,620.7 L 88.5,619.9 L 89.5,620.0 L 90.2,620.4 L 92.4,622.3 L 95.6,622.4 L 96.6,623.3 L 98.1,623.0 L 99.6,621.7 L 100.5,622.1 L 101.3,621.8 L 101.9,622.2 L 102.6,622.1 L 103.7,623.9 L 104.4,624.2 L 104.9,624.2 L 107.3,623.3 L 109.4,620.7 L 110.6,619.8 L 110.7,619.2 L 109.8,618.5 L 110.1,618.1 L 109.3,615.7 L 109.2,614.3 L 109.6,613.2 L 110.1,612.9 L 111.9,612.9 L 112.5,612.6 L 112.9,612.3 L 113.3,611.4 L 114.2,612.2 L 115.0,612.5 L 115.6,612.0 L 115.7,610.8 L 115.0,611.5 L 113.0,611.1 L 111.4,612.2 L 109.5,612.4 L 108.9,612.7 L 108.7,613.4 L 108.7,616.0 L 109.2,617.7 L 109.2,619.2 L 107.8,620.9 L 105.0,623.2 L 104.5,623.2 L 103.7,622.7 L 104.0,621.4 L 102.7,620.8 L 99.7,620.3 L 97.6,621.6 L 96.9,621.8 L 96.2,621.0 L 95.7,620.9 L 95.2,621.0 L 94.5,621.4 L 94.0,621.5 L 93.5,621.4 L 91.8,620.3 L 91.8,619.5 L 90.6,619.1 L 89.7,617.5 L 89.2,617.1 L 88.8,615.6 L 88.6,615.6 L 88.5,616.2 L 87.9,617.4 L 87.7,618.9 L 86.5,619.7 L 84.8,620.0 L 83.2,620.9 L 81.7,620.6 L 80.1,620.6 L 78.4,621.2 L 76.5,620.9 L 76.0,621.0 L 75.0,621.5 L 74.4,622.7 L 74.0,623.0 L 72.3,622.4 L 70.9,621.6 L 70.2,621.0 L 69.9,620.4 L 69.0,620.0 L 68.8,619.7 L 68.8,619.2 L 69.5,618.5 L 69.9,618.4 L 69.9,618.1 L 69.3,618.1 L 68.9,617.8 L 68.5,616.6 L 68.2,620.3 L 67.9,620.3 L 67.3,619.5 L 65.7,618.1 L 65.5,617.2 L 64.3,618.6 L 63.7,618.7 L 63.1,618.6 L 62.8,618.3 L 62.6,617.8 L 62.7,617.2 L 63.3,616.1 L 64.1,615.2 L 64.7,614.2 L 64.4,612.6 L 64.1,614.1 L 63.9,614.5 L 62.6,615.7 L 62.3,616.1 L 62.1,616.7 L 62.1,617.7 L 62.4,619.2 L 62.3,620.0 L 61.0,620.5 L 59.1,622.1 L 57.7,622.7 L 56.9,622.2 L 56.6,621.0 L 56.5,619.5 L 56.7,617.9 L 57.4,616.4 L 58.5,615.5 L 60.0,616.0 L 60.1,615.3 L 59.5,614.8 L 58.6,614.6 L 57.8,614.9 L 57.0,616.0 L 56.5,616.4 L 55.9,616.3 L 56.3,615.5 L 55.9,614.8 L 56.9,613.4 L 57.0,612.8 L 56.8,612.0 L 56.5,612.0 L 56.3,612.5 L 56.0,612.7 L 55.8,612.5 L 55.6,611.8 L 56.0,610.7 L 57.5,608.4 L 57.7,607.8 L 57.4,605.7 L 58.0,601.7 L 57.7,600.6 L 57.8,599.6 L 58.0,599.1 L 58.9,598.0 L 59.7,596.5 L 61.1,596.2 L 96.9,596.5 L 97.2,596.3 L 97.3,589.2 L 97.5,588.6 L 98.0,588.3 L 101.0,588.0 L 102.9,587.4 L 107.0,587.6 L 110.2,586.2 L 111.5,586.3 L 116.2,587.3 L 117.7,587.3 L 119.1,587.1 L 120.5,586.5 L 121.7,585.7 L 122.6,584.5 L 122.9,583.3 L 123.0,580.5 L 123.6,579.5 L 125.5,577.6 L 126.5,577.2 L 127.6,577.9 L 129.5,579.8 L 131.6,581.4 L 134.4,582.8 L 138.1,583.5 L 139.6,584.4 L 141.2,584.9 L 141.7,585.2 L 142.5,586.4 L 143.7,587.5 L 145.1,588.1 L 146.7,588.3 L 149.6,587.7 L 150.1,587.9 L 151.7,589.5 L 152.3,589.8 L 154.8,590.2 L 155.6,591.2 L 156.5,591.8 L 158.0,592.7 L 159.1,593.0 L 160.3,593.1 L 162.7,592.9 L 165.0,593.3 L 166.2,593.3 L 167.2,592.8 L 169.2,591.2 L 169.9,590.9 L 170.6,590.9 L 172.4,590.2 L 174.1,590.2 L 175.8,589.8 L 179.0,589.5 L 181.2,588.5 L 182.4,586.6 L 182.5,584.3 L 181.5,582.2 L 179.7,580.9 L 179.0,579.3 L 178.3,578.7 L 177.3,578.2 L 175.3,577.6 L 174.7,577.7 L 173.4,578.5 L 171.7,578.5 L 170.9,578.7 L 168.9,579.8 L 166.5,580.3 L 163.3,582.2 L 160.8,583.1 L 160.1,583.3 L 159.3,583.2 L 158.3,582.7 L 154.8,580.2 L 154.1,579.1 L 153.1,576.3 L 152.6,575.6 L 151.8,574.9 L 149.9,574.0 L 148.2,573.9 L 146.5,574.3 L 143.3,576.0 L 141.0,574.7 L 140.7,574.4 L 139.9,571.5 L 139.5,570.6 L 138.9,569.9 L 137.4,568.6 L 135.9,568.1 L 131.6,567.9 L 129.1,566.9 L 128.1,566.9 L 125.0,568.0 L 121.8,570.1 L 120.9,570.4 L 119.4,568.6 L 117.5,568.3 L 115.5,569.0 L 113.8,570.4 L 112.4,571.9 L 111.5,573.6 L 111.2,574.5 L 110.9,577.2 L 110.3,577.5 L 65.9,577.3 L 65.3,576.2 L 65.3,574.9 L 66.0,574.2 L 67.1,573.6 L 68.2,572.8 L 67.3,572.2 L 68.2,571.0 L 68.1,570.4 L 67.3,570.3 L 67.4,571.0 L 67.2,571.9 L 66.7,572.5 L 66.1,572.5 L 65.8,573.4 L 65.2,574.0 L 64.3,574.3 L 63.5,574.0 L 62.8,573.2 L 62.6,572.4 L 63.0,569.5 L 63.1,569.1 L 65.0,566.7 L 65.3,566.0 L 66.4,566.7 L 66.1,565.7 L 67.6,565.4 L 67.7,566.3 L 68.0,567.2 L 68.5,567.7 L 69.1,567.6 L 68.8,566.5 L 68.5,564.5 L 67.9,564.2 L 69.1,558.7 L 67.8,561.0 L 67.4,562.8 L 67.0,563.9 L 66.4,564.7 L 65.5,564.5 L 65.1,565.1 L 62.7,565.7 L 62.2,566.1 L 61.8,567.3 L 60.8,568.0 L 60.0,569.1 L 59.6,568.9 L 59.4,567.5 L 58.4,566.9 L 58.2,566.0 L 58.3,565.1 L 58.6,564.5 L 58.1,563.2 L 58.0,561.0 L 58.4,560.3 L 59.4,559.5 L 59.9,559.3 L 61.7,559.4 L 62.3,559.6 L 62.7,559.9 L 62.7,560.5 L 63.7,559.3 L 64.3,559.0 L 65.3,559.3 L 65.3,558.3 L 65.6,557.9 L 66.7,557.2 L 65.6,557.5 L 65.1,557.4 L 64.7,556.9 L 66.6,555.6 L 69.0,553.1 L 70.4,552.7 L 71.0,551.8 L 71.5,551.6 L 72.6,552.3 L 74.3,551.3 L 71.6,551.2 L 70.5,550.8 L 70.5,549.8 L 69.9,550.2 L 69.6,550.8 L 69.7,551.5 L 70.2,551.9 L 69.7,552.2 L 68.3,551.9 L 68.0,552.1 L 67.6,553.2 L 66.1,555.6 L 64.8,556.1 L 64.3,556.4 L 63.4,557.9 L 62.9,558.4 L 62.0,558.7 L 60.2,558.2 L 59.1,558.1 L 60.1,556.3 L 60.2,555.9 L 60.9,555.7 L 62.1,554.4 L 61.5,554.5 L 60.9,555.4 L 58.8,555.9 L 59.3,556.5 L 59.3,556.9 L 58.6,557.8 L 58.3,558.8 L 57.1,560.5 L 56.9,561.8 L 57.1,566.0 L 56.8,566.0 L 56.6,557.4 L 56.4,556.2 L 55.7,554.0 L 54.9,552.4 L 54.5,551.9 L 52.8,551.4 L 52.4,551.0 L 51.6,547.2 L 50.4,545.8 L 49.6,545.3 L 49.5,544.8 L 49.8,542.9 L 49.6,542.2 L 49.1,541.4 L 47.8,540.0 L 44.7,538.5 L 44.3,538.0 L 42.5,535.1 L 41.4,532.0 L 39.7,529.6 L 37.7,528.0 L 36.9,527.6 L 35.3,527.2 L 33.5,526.2 L 33.2,525.9 L 29.5,525.8 L 28.6,526.5 L 28.9,527.0 L 29.4,527.1 L 29.1,527.8 L 28.6,528.0 L 29.1,528.7 L 28.6,529.6 L 28.0,529.2 L 25.2,525.6 L 24.5,525.0 L 31.5,523.0 L 33.6,521.3 L 39.9,518.6 L 41.4,517.3 L 48.1,509.1 L 49.5,507.1 L 52.4,503.7 L 58.4,493.0 L 61.3,489.0 L 67.1,479.1 L 66.7,478.0 L 67.7,476.3 L 68.1,473.8 L 68.2,468.9 L 69.8,464.7 L 70.0,461.6 L 70.3,460.7 L 70.9,460.2 L 72.5,459.8 L 73.1,459.4 L 73.4,458.9 L 75.3,450.8 L 75.5,449.0 L 75.9,448.2 L 77.2,446.6 L 78.1,446.0 L 79.1,445.8 L 80.5,446.1 L 81.5,446.0 L 83.2,444.9 L 84.2,444.6 L 85.1,445.0 L 86.6,446.8 L 87.5,447.3 L 88.5,447.4 L 89.5,447.2 L 90.4,446.8 L 91.6,447.1 L 93.6,446.3 L 94.2,446.2 L 95.7,446.6 L 97.7,446.4 L 99.7,447.1 L 101.0,447.2 L 103.1,447.9 L 103.7,447.9 L 104.9,447.3 L 106.4,446.1 L 107.0,446.0 L 108.9,446.4 L 110.0,446.1 L 111.4,444.2 L 112.6,443.4 L 113.2,443.5 L 113.6,443.8 L 114.2,444.7 L 114.7,444.9 L 115.9,444.7 L 118.4,443.8 L 119.7,443.8 L 122.4,444.1 L 127.0,443.4 L 127.9,443.0 L 128.3,442.6 L 128.2,442.0 L 127.5,441.3 L 127.3,440.7 L 127.4,440.1 L 127.7,439.7 L 128.3,439.5 L 128.9,439.7 L 130.1,441.1 L 130.7,441.1 L 131.5,440.5 L 131.7,439.6 L 132.0,439.2 L 133.4,438.5 L 133.9,438.8 L 134.4,439.4 L 135.2,440.6 L 136.0,440.8 L 137.3,440.5 L 144.6,441.0 L 146.9,440.5 L 149.0,441.3 L 151.2,440.8 L 153.9,441.1 L 154.8,441.0 L 156.7,439.9 L 157.5,439.9 L 160.6,441.2 L 160.7,441.5 L 160.5,442.9 L 160.6,443.2 L 161.0,443.4 L 162.6,443.2 L 163.0,443.4 L 163.2,444.6 L 163.4,444.9 L 163.9,445.1 L 165.4,445.3 L 165.7,445.5 L 166.4,446.5 L 167.7,447.5 L 169.2,449.2 L 171.7,451.5 L 173.1,452.3 L 174.2,453.5 L 175.8,454.3 L 176.0,454.9 L 175.7,456.0 L 176.4,457.2 L 176.2,458.4 L 176.3,459.1 L 177.1,459.5 L 178.7,460.0 L 179.8,460.8 L 180.3,461.4 L 180.8,463.1 L 181.8,464.0 L 182.5,464.1 L 183.5,463.5 L 184.2,463.0 L 185.6,461.3 L 186.3,460.9 L 187.1,461.0 L 186.6,462.9 L 186.7,463.3 L 187.4,463.7 L 187.7,464.1 L 188.5,464.6 L 188.9,464.7 L 190.3,464.0 L 191.5,463.9 L 193.1,463.2 L 196.2,462.4 L 196.7,462.5 L 196.8,463.1 L 196.1,464.5 L 196.0,465.2 L 196.4,465.5 L 198.0,464.8 L 198.6,464.9 L 199.4,466.0 L 200.8,467.1 L 201.0,468.6 L 201.6,470.1 L 202.2,471.0 L 203.9,472.5 L 203.9,474.7 L 204.9,475.9 L 205.4,477.3 L 205.4,478.2 L 205.1,479.3 L 205.2,479.7 L 206.7,480.9 L 207.6,482.3 L 207.6,483.0 L 207.0,484.0 L 206.8,484.8 L 207.2,486.2 L 209.8,486.0 L 210.9,486.7 L 212.7,487.5 L 213.4,488.4 L 213.5,489.0 L 213.3,491.1 L 213.5,491.9 L 213.8,492.1 L 215.1,492.4 L 215.7,492.4 L 217.5,491.1 L 218.2,491.0 L 218.9,491.4 L 219.3,492.1 L 219.4,493.3 L 220.2,494.5 L 220.3,496.4 L 220.8,497.8 L 221.3,498.4 L 223.8,500.1 L 224.4,500.7 L 224.7,501.4 L 224.4,502.0 L 223.7,502.2 L 222.3,502.0 L 221.8,502.3 L 222.1,502.9 L 223.4,504.2 L 224.2,504.3 L 225.6,504.1 L 226.4,504.5 L 226.7,505.2 L 226.5,506.7 L 226.7,507.6 L 227.8,507.9 L 229.4,509.5 L 230.5,510.0 L 233.0,509.4 L 233.4,509.5 L 234.3,510.6 L 237.8,512.9 L 239.2,513.3 L 239.8,514.2 L 240.8,518.3 L 241.4,518.6 L 242.8,520.4 L 243.6,521.0 L 246.3,522.3 L 248.6,524.2 Z" fill="#e4e0ce" fill-rule="evenodd" stroke="#b6bbaf" stroke-width="1" stroke-linejoin="round"/></g>
<path d="M 248.6,524.2 L 249.4,524.5 L 250.3,524.7 L 254.0,523.8 L 254.6,524.1 L 256.9,526.0 L 257.4,524.8 L 257.7,524.5 L 259.4,524.7 L 260.2,524.5 L 261.0,524.0 L 262.0,522.5 L 262.6,522.0 L 264.3,521.6 L 265.1,521.2 L 265.7,520.6 L 266.8,518.9 L 267.5,518.6 L 267.0,517.4 L 267.3,515.8 L 267.8,514.3 L 267.8,512.8 L 267.0,511.9 L 266.2,512.2 L 265.8,511.9 L 265.9,510.4 L 266.4,508.5 L 266.3,507.0 L 266.4,506.1 L 267.2,503.7 L 267.6,500.9 L 269.1,497.8 L 269.7,494.6 L 270.3,493.1 L 271.4,491.9 L 271.5,489.9 L 273.9,490.5 L 275.0,490.6 L 276.2,489.9 L 277.7,488.3 L 280.1,487.3 L 280.5,486.8 L 280.6,486.2 L 280.0,485.6 L 280.0,485.4 L 280.1,485.4 L 282.9,485.8 L 283.9,486.2 L 285.0,487.2 L 288.9,493.0 L 289.7,494.0 L 300.4,502.0 L 301.8,503.4 L 303.0,505.7 L 304.6,507.3 L 306.0,509.5 L 306.4,508.8 L 307.0,506.2 L 307.4,505.5 L 308.5,504.4 L 309.0,503.6 L 309.7,501.3 L 310.4,500.6 L 311.7,500.3 L 312.1,499.6 L 313.1,498.9 L 313.5,497.9 L 313.4,496.1 L 313.6,495.2 L 314.1,494.8 L 314.7,494.7 L 317.3,495.1 L 319.1,495.1 L 322.1,494.4 L 323.0,494.5 L 328.0,494.5 L 329.1,494.7 L 331.2,494.6 L 331.8,494.7 L 335.4,496.1 L 336.9,496.0 L 339.3,497.5 L 340.3,497.8 L 342.0,497.8 L 347.0,497.1 L 351.9,497.5 L 353.5,497.1 L 356.8,495.3 L 358.8,494.9 L 369.4,494.4 L 368.2,489.1 L 368.2,487.8 L 368.8,486.6 L 371.4,483.5 L 372.3,482.9 L 373.3,483.4 L 373.4,484.8 L 372.8,487.9 L 372.6,492.0 L 535.8,492.0 L 542.5,455.5 L 542.4,454.9 L 542.0,454.4 L 531.7,447.2 L 531.0,445.8 L 517.1,313.1 L 493.5,99.7 L 489.7,67.3 L 565.1,67.3 L 578.1,75.8 L 818.8,241.3 L 819.4,242.2 L 820.2,245.1 L 820.2,246.1 L 819.7,251.0 L 818.8,255.0 L 818.8,257.0 L 819.2,257.6 L 820.7,257.9 L 821.6,257.9 L 823.3,257.6 L 824.2,257.5 L 825.2,257.8 L 825.8,258.3 L 827.3,260.7 L 828.1,261.2 L 832.4,262.3 L 833.1,262.8 L 834.7,263.0 L 836.4,263.9 L 839.1,265.9 L 840.0,267.2 L 840.2,268.8 L 840.2,272.2 L 840.6,272.8 L 845.7,277.0 L 846.6,277.4 L 848.9,277.4 L 849.6,277.9 L 850.5,280.2 L 851.4,280.3 L 852.6,279.4 L 853.2,279.2 L 853.7,279.3 L 854.8,280.0 L 858.1,281.1 L 859.3,280.6 L 861.0,278.9 L 862.0,278.3 L 862.9,278.1 L 863.6,278.3 L 867.0,280.8 L 868.6,282.5 L 869.9,284.4 L 871.6,287.6 L 872.1,288.1 L 873.8,288.5 L 876.2,289.7 L 877.0,289.9 L 881.3,290.7 L 883.7,290.8 L 895.3,293.2 L 900.7,295.6 L 903.2,297.5 L 906.1,298.6 L 906.7,299.2 L 906.8,299.8 L 906.1,308.8 L 906.1,310.5 L 906.6,312.2 L 907.3,312.8 L 907.5,313.1 L 907.2,314.7 L 907.6,315.6 L 908.6,316.9 L 908.7,317.9 L 908.3,319.0 L 905.8,320.7 L 905.4,321.5 L 905.0,324.0 L 903.5,325.4 L 902.0,328.4 L 902.1,329.2 L 903.5,331.0 L 905.3,332.2 L 907.2,333.0 L 909.7,335.5 L 911.2,336.3 L 912.9,336.3 L 916.3,335.5 L 949.9,328.9 L 950.2,424.9 L 949.6,425.3 L 948.8,425.5 L 948.6,426.3 L 948.7,431.5 L 947.9,433.2 L 948.0,450.8 L 947.6,451.9 L 947.0,452.4 L 945.2,453.4 L 944.2,454.2 L 943.4,455.1 L 942.7,456.1 L 938.9,465.6 L 938.7,466.8 L 938.9,468.0 L 939.5,469.5 L 939.4,470.1 L 937.0,472.6 L 936.3,473.7 L 936.0,474.5 L 935.7,478.9 L 935.3,480.6 L 934.7,482.2 L 933.6,483.5 L 932.0,484.4 L 928.6,485.0 L 927.1,485.9 L 923.7,489.6 L 920.0,491.9 L 919.6,493.1 L 919.2,498.3 L 900.7,495.0 L 899.1,495.1 L 898.1,495.4 L 897.9,498.4 L 897.6,499.0 L 826.7,501.4 L 825.3,501.8 L 824.1,502.5 L 811.5,514.5 L 810.4,515.0 L 809.3,515.3 L 802.8,515.5 L 800.3,516.5 L 798.6,516.8 L 792.0,514.4 L 790.6,514.5 L 787.9,515.5 L 786.5,515.8 L 785.1,515.8 L 779.5,514.3 L 779.1,514.8 L 779.4,518.1 L 768.7,514.3 L 763.0,511.9 L 760.0,511.2 L 757.4,511.7 L 754.7,513.3 L 753.2,514.0 L 752.0,514.0 L 751.6,513.4 L 750.6,510.7 L 750.2,510.5 L 739.5,510.6 L 738.1,511.0 L 736.8,512.0 L 734.5,514.3 L 725.7,522.3 L 724.2,523.2 L 722.6,523.9 L 714.5,526.0 L 712.7,526.9 L 697.9,536.6 L 695.0,537.2 L 692.0,537.4 L 688.5,537.1 L 686.4,537.2 L 685.2,537.8 L 684.8,539.0 L 684.0,549.9 L 683.9,550.4 L 683.5,550.7 L 680.6,552.1 L 679.9,552.2 L 678.6,551.8 L 668.6,547.0 L 665.4,546.3 L 663.1,546.8 L 659.6,548.9 L 658.7,549.7 L 655.6,553.3 L 649.3,556.9 L 648.2,558.8 L 648.4,558.7 L 648.7,559.0 L 647.0,564.8 L 646.3,566.1 L 645.6,567.8 L 645.8,570.2 L 647.0,574.4 L 643.7,575.6 L 642.7,575.1 L 641.7,575.0 L 640.9,575.4 L 640.1,576.2 L 639.6,576.4 L 639.0,574.6 L 638.3,573.9 L 637.2,573.3 L 635.4,573.5 L 634.2,573.4 L 632.3,571.9 L 631.2,571.5 L 630.3,572.3 L 631.2,573.0 L 631.5,574.1 L 631.3,576.6 L 630.4,579.3 L 631.9,590.4 L 631.4,590.8 L 624.4,591.3 L 623.4,591.6 L 623.3,592.9 L 623.8,594.5 L 623.8,595.3 L 623.4,596.0 L 622.9,596.1 L 619.3,595.7 L 618.3,594.7 L 617.1,594.6 L 613.7,591.8 L 611.7,590.6 L 608.6,588.0 L 604.6,586.6 L 602.2,586.5 L 601.2,586.2 L 600.7,585.8 L 602.4,584.2 L 603.5,583.8 L 603.5,583.4 L 601.9,582.9 L 601.5,581.7 L 601.1,581.2 L 600.8,581.2 L 600.1,582.0 L 601.2,582.5 L 601.0,582.9 L 599.8,583.9 L 598.8,584.2 L 597.8,585.2 L 596.3,585.7 L 595.6,586.4 L 594.4,589.1 L 592.9,591.1 L 592.5,591.4 L 591.3,591.3 L 589.8,592.5 L 589.2,593.3 L 589.0,594.0 L 589.3,594.4 L 590.2,594.9 L 590.3,595.3 L 590.0,595.7 L 589.5,595.8 L 586.8,595.7 L 586.1,596.0 L 585.6,597.5 L 585.1,598.2 L 585.1,598.8 L 586.5,600.4 L 587.7,602.9 L 590.2,605.8 L 590.6,607.0 L 590.4,609.6 L 591.0,611.6 L 590.0,615.0 L 589.6,615.6 L 589.0,616.0 L 587.4,616.4 L 586.8,616.2 L 585.6,615.5 L 584.3,615.2 L 582.9,615.3 L 580.3,616.2 L 579.4,616.3 L 579.1,618.6 L 579.5,619.3 L 582.0,621.5 L 582.9,623.6 L 583.5,624.4 L 583.3,625.1 L 581.1,627.7 L 580.8,628.8 L 582.3,632.6 L 582.7,634.5 L 581.5,634.7 L 580.3,633.6 L 579.7,633.6 L 579.2,633.9 L 579.0,636.0 L 575.1,639.4 L 576.2,641.6 L 575.8,642.0 L 574.5,642.1 L 573.0,643.0 L 572.5,643.9 L 572.2,645.1 L 571.4,645.6 L 569.6,645.6 L 569.2,646.0 L 568.2,647.6 L 567.6,647.9 L 565.7,648.4 L 564.9,647.7 L 564.0,647.7 L 562.2,648.3 L 559.4,648.0 L 557.3,649.1 L 553.7,649.2 L 551.7,650.3 L 550.3,650.8 L 548.6,652.6 L 546.9,654.0 L 545.8,655.5 L 545.5,655.5 L 544.7,655.1 L 544.4,655.1 L 543.9,655.5 L 542.4,655.8 L 541.8,656.3 L 540.8,655.7 L 539.9,655.9 L 540.2,656.6 L 541.7,657.6 L 542.5,657.4 L 543.3,657.6 L 544.8,658.4 L 545.3,659.0 L 545.6,659.9 L 545.5,661.7 L 545.2,663.4 L 544.4,664.8 L 544.4,665.3 L 544.7,665.8 L 546.0,665.9 L 547.5,667.2 L 547.9,668.8 L 547.9,672.5 L 548.2,674.1 L 546.3,675.5 L 546.1,676.3 L 546.4,681.0 L 546.3,681.7 L 545.8,682.6 L 544.4,684.0 L 544.0,685.1 L 543.8,686.9 L 543.3,687.5 L 542.3,688.2 L 540.9,688.7 L 536.7,689.3 L 536.0,689.7 L 535.9,690.4 L 536.4,693.1 L 536.1,694.3 L 537.1,694.0 L 537.7,695.3 L 538.5,698.4 L 539.1,699.9 L 538.5,703.3 L 537.6,704.0 L 537.0,707.1 L 537.2,708.6 L 537.9,708.8 L 537.5,709.2 L 537.2,709.9 L 537.1,710.6 L 537.5,710.9 L 537.6,711.4 L 537.0,713.7 L 535.8,715.7 L 535.3,718.6 L 534.1,718.2 L 533.2,717.5 L 532.2,717.4 L 531.0,717.7 L 528.7,717.9 L 523.2,719.2 L 520.1,720.8 L 519.5,721.3 L 519.0,722.1 L 518.8,722.9 L 519.0,725.3 L 518.5,725.7 L 516.5,725.0 L 516.0,725.4 L 515.6,727.5 L 515.1,728.3 L 514.3,729.2 L 510.5,729.2 L 507.3,728.0 L 506.7,727.6 L 505.9,726.6 L 505.4,726.2 L 504.8,726.4 L 504.6,724.7 L 504.7,724.1 L 505.3,723.5 L 505.8,723.9 L 506.2,723.8 L 506.3,723.5 L 506.1,722.8 L 507.1,721.6 L 506.5,721.1 L 506.6,720.2 L 507.3,718.9 L 506.6,718.0 L 506.4,717.6 L 507.1,716.1 L 506.9,715.7 L 506.6,715.5 L 505.5,715.5 L 504.8,714.7 L 503.9,714.7 L 503.9,714.0 L 504.1,713.6 L 505.1,712.6 L 505.2,712.1 L 504.8,710.9 L 505.2,710.5 L 506.0,710.0 L 506.3,709.5 L 505.7,708.8 L 504.5,708.2 L 504.4,707.9 L 504.5,705.4 L 504.1,705.2 L 503.1,705.3 L 500.4,706.7 L 497.5,706.6 L 496.8,707.0 L 496.5,707.8 L 496.4,709.5 L 496.7,710.2 L 497.7,710.7 L 498.0,711.2 L 497.8,712.2 L 497.0,712.8 L 496.0,713.0 L 495.1,712.9 L 492.1,712.2 L 489.5,710.6 L 488.9,710.0 L 488.0,708.5 L 487.5,708.1 L 486.5,708.4 L 486.6,708.5 L 485.9,709.6 L 485.7,710.5 L 485.6,711.3 L 485.9,712.3 L 485.7,714.4 L 485.3,715.8 L 485.4,716.6 L 485.9,717.5 L 487.2,718.0 L 487.4,718.3 L 487.4,718.8 L 486.7,719.9 L 486.5,721.5 L 486.2,722.0 L 485.2,722.4 L 484.2,722.3 L 482.6,721.3 L 481.7,721.0 L 480.8,721.1 L 478.3,722.3 L 477.5,722.4 L 475.1,722.1 L 474.1,722.2 L 473.6,722.8 L 472.6,726.3 L 472.7,726.9 L 474.1,728.2 L 474.2,729.4 L 473.7,730.3 L 472.8,731.0 L 471.8,731.3 L 470.7,731.4 L 470.0,730.7 L 468.6,728.8 L 467.9,728.4 L 463.7,727.2 L 460.4,726.6 L 457.7,726.6 L 457.0,726.4 L 456.6,725.8 L 456.6,724.7 L 456.9,722.9 L 456.6,722.2 L 455.7,722.2 L 454.1,722.7 L 453.6,722.7 L 453.5,721.5 L 452.7,719.8 L 452.6,718.4 L 452.0,717.5 L 451.1,717.1 L 450.5,717.2 L 449.5,718.5 L 448.8,719.0 L 446.6,718.9 L 445.1,718.0 L 444.2,718.1 L 443.6,719.5 L 442.3,719.7 L 441.7,720.2 L 441.7,720.5 L 441.2,720.7 L 441.7,721.4 L 441.2,722.1 L 440.2,722.7 L 439.4,722.9 L 439.9,723.7 L 439.4,724.6 L 439.4,725.2 L 438.5,726.0 L 438.2,726.8 L 437.2,728.2 L 436.4,728.8 L 434.9,729.1 L 433.7,730.1 L 432.9,730.5 L 432.1,730.7 L 431.2,730.7 L 430.4,730.4 L 431.3,728.3 L 431.5,727.2 L 431.4,726.1 L 431.2,725.0 L 430.7,723.9 L 430.1,723.0 L 429.3,722.5 L 425.8,722.1 L 425.0,721.5 L 424.8,721.0 L 424.6,719.2 L 424.2,718.5 L 423.9,718.4 L 422.9,719.0 L 421.9,719.2 L 421.0,719.1 L 420.2,718.7 L 419.1,716.6 L 417.8,714.8 L 417.4,713.6 L 416.7,704.8 L 416.5,704.0 L 415.4,703.5 L 415.5,702.6 L 416.4,700.1 L 416.9,699.4 L 417.0,698.5 L 417.0,693.9 L 416.7,692.9 L 416.0,691.9 L 415.2,691.0 L 414.2,690.5 L 413.7,690.5 L 412.5,691.1 L 411.3,690.7 L 410.0,690.9 L 409.1,690.6 L 408.4,690.6 L 406.9,693.7 L 406.1,694.2 L 404.7,694.5 L 402.4,694.5 L 401.0,695.1 L 400.3,694.6 L 400.1,693.9 L 400.3,693.1 L 401.0,691.8 L 403.0,689.8 L 403.4,688.9 L 403.4,687.5 L 403.8,686.9 L 405.0,686.8 L 405.3,686.6 L 405.7,685.9 L 406.0,684.3 L 406.5,683.5 L 408.0,682.7 L 408.7,682.5 L 408.8,682.2 L 408.5,681.5 L 409.0,680.5 L 409.4,680.2 L 411.0,680.6 L 412.6,680.6 L 413.4,680.4 L 413.9,679.8 L 414.2,678.6 L 413.7,678.4 L 412.9,678.5 L 412.2,678.4 L 411.8,677.7 L 412.3,677.1 L 414.0,676.5 L 413.0,675.7 L 411.7,675.1 L 409.2,674.2 L 408.0,674.2 L 407.5,674.0 L 407.2,673.4 L 406.6,671.0 L 405.5,671.9 L 404.3,671.8 L 402.0,670.7 L 401.1,669.3 L 400.7,668.4 L 399.6,664.3 L 399.0,663.9 L 397.8,664.4 L 396.9,664.5 L 394.7,663.5 L 393.9,663.5 L 396.0,652.1 L 396.0,651.6 L 395.3,650.2 L 395.3,648.4 L 395.1,647.7 L 394.3,647.0 L 393.4,646.8 L 391.5,646.9 L 390.7,646.2 L 390.5,645.4 L 391.4,642.6 L 391.4,641.6 L 391.1,640.6 L 390.5,639.9 L 389.9,639.5 L 389.0,639.8 L 388.5,639.8 L 387.5,637.7 L 387.6,636.6 L 389.0,633.7 L 388.9,632.8 L 388.4,631.8 L 387.7,630.9 L 381.1,627.4 L 379.4,626.8 L 376.1,626.1 L 375.6,626.1 L 374.9,626.6 L 373.5,626.0 L 372.5,626.6 L 370.5,627.1 L 369.9,627.9 L 370.1,628.3 L 371.5,629.9 L 372.7,630.5 L 373.0,631.7 L 374.3,632.2 L 374.1,633.7 L 373.7,634.4 L 373.2,634.5 L 373.3,635.6 L 373.1,636.2 L 372.1,637.2 L 369.5,636.7 L 368.8,636.8 L 367.0,637.7 L 365.5,639.0 L 360.7,640.6 L 359.3,641.5 L 358.7,642.2 L 358.4,642.9 L 358.4,644.6 L 358.2,645.2 L 356.7,647.1 L 354.3,647.0 L 353.5,646.8 L 352.0,645.8 L 350.4,645.9 L 349.6,645.5 L 348.2,644.3 L 346.5,643.9 L 343.7,642.6 L 342.3,641.6 L 340.8,641.4 L 339.4,640.4 L 337.3,640.3 L 335.8,639.5 L 334.4,639.2 L 333.5,638.5 L 331.9,639.2 L 331.7,639.7 L 331.1,639.2 L 330.9,639.7 L 329.8,640.1 L 329.9,640.8 L 328.7,640.2 L 326.7,641.8 L 325.9,642.8 L 323.9,642.7 L 323.1,643.0 L 323.1,643.4 L 323.4,644.3 L 322.9,644.6 L 323.0,645.9 L 321.3,646.9 L 320.8,647.5 L 321.1,648.5 L 319.6,649.1 L 318.8,649.7 L 318.5,650.1 L 317.9,651.6 L 317.0,652.8 L 316.4,653.1 L 314.6,653.1 L 313.4,651.8 L 311.7,648.4 L 310.5,647.2 L 310.4,646.7 L 310.4,646.4 L 310.9,645.2 L 310.7,643.9 L 307.9,642.0 L 306.2,639.3 L 305.5,638.7 L 304.4,638.4 L 303.6,638.5 L 301.7,639.1 L 300.2,639.2 L 299.8,639.6 L 299.3,641.6 L 298.8,642.1 L 297.4,643.2 L 296.6,644.4 L 295.6,644.8 L 295.3,646.1 L 294.9,646.9 L 294.2,647.6 L 292.9,647.8 L 291.5,648.4 L 290.7,648.4 L 289.0,647.6 L 288.1,647.1 L 287.4,646.4 L 285.7,644.0 L 285.0,643.4 L 282.4,642.2 L 281.6,641.5 L 280.8,639.7 L 281.5,638.4 L 282.7,637.1 L 283.5,635.3 L 283.2,632.5 L 283.4,631.5 L 284.0,631.1 L 285.9,631.0 L 285.9,629.0 L 286.3,626.8 L 285.8,626.0 L 285.3,626.8 L 284.6,624.6 L 284.3,624.7 L 284.1,625.2 L 284.1,625.5 L 283.3,624.3 L 282.5,623.9 L 283.7,623.2 L 283.8,622.7 L 283.6,621.6 L 283.8,619.7 L 283.6,619.3 L 282.8,618.8 L 282.7,618.1 L 283.3,617.6 L 283.8,616.4 L 284.9,616.1 L 285.3,615.5 L 284.7,614.3 L 285.1,613.3 L 285.0,612.3 L 284.7,611.6 L 284.0,611.2 L 284.0,610.9 L 284.3,610.3 L 284.2,609.5 L 284.7,608.1 L 284.2,607.4 L 284.2,607.2 L 284.5,607.0 L 285.2,607.3 L 285.9,606.8 L 286.0,606.5 L 285.8,604.8 L 285.3,604.0 L 285.2,604.8 L 284.9,605.3 L 284.4,605.5 L 283.7,605.4 L 283.9,603.7 L 284.4,603.1 L 283.9,602.8 L 282.9,601.1 L 283.2,600.2 L 282.1,599.8 L 280.5,598.7 L 279.7,598.5 L 279.5,597.8 L 279.5,596.2 L 278.2,594.6 L 278.0,593.8 L 278.7,592.5 L 278.8,592.0 L 278.6,591.6 L 277.7,590.7 L 276.6,589.2 L 276.3,588.4 L 276.3,587.4 L 275.5,587.7 L 275.0,587.6 L 274.9,586.6 L 274.7,586.4 L 272.4,586.5 L 271.5,585.4 L 270.9,585.3 L 270.2,585.7 L 269.8,586.4 L 269.4,588.2 L 267.4,589.8 L 267.2,589.8 L 266.5,589.1 L 266.0,587.9 L 264.2,586.9 L 264.1,586.4 L 264.8,583.3 L 264.5,582.7 L 263.3,582.3 L 262.4,581.0 L 260.0,579.2 L 259.2,578.3 L 258.3,576.8 L 257.7,575.2 L 256.9,573.4 L 256.3,572.5 L 255.7,572.0 L 259.3,569.9 L 260.8,568.4 L 261.4,566.4 L 261.7,563.7 L 261.4,562.9 L 260.7,562.0 L 259.2,560.6 L 258.8,559.5 L 258.8,557.6 L 259.7,554.2 L 260.1,552.4 L 260.0,551.4 L 258.4,547.6 L 258.0,547.0 L 257.4,546.6 L 255.7,545.9 L 254.8,544.9 L 254.4,544.3 L 255.1,544.1 L 255.2,543.5 L 254.9,542.9 L 250.4,541.3 L 250.5,539.4 L 249.8,535.6 L 250.1,534.8 L 251.2,534.0 L 251.4,532.6 L 252.8,530.9 L 252.8,530.1 L 251.8,529.5 L 251.7,529.0 L 252.2,527.9 L 251.0,527.7 L 250.4,527.4 L 249.8,526.3 L 249.0,525.5 L 248.6,524.2 Z" fill="url(#land)" fill-rule="evenodd" stroke="#31576a" stroke-width="1.5" stroke-linejoin="round" stroke-linecap="round" filter="url(#shadow)"/>
</svg>