<svg xmlns="http://www.w3.org/2000/svg" viewBox="0 0 1200 720" role="img" aria-label="Watercolor-style illustration of the Wakhan Corridor and Panj River">
<defs><linearGradient id="sky" x1="0" y1="0" x2="0" y2="1"><stop stop-color="#cfe8f3"/><stop offset=".7" stop-color="#f8f5e8"/></linearGradient><linearGradient id="river" x1="0" y1="0" x2="1" y2="0"><stop stop-color="#7eb4c4"/><stop offset="1" stop-color="#4c8597"/></linearGradient><linearGradient id="rock" x1="0" y1="0" x2="1" y2="1"><stop stop-color="#b9a27b"/><stop offset="1" stop-color="#79694f"/></linearGradient><filter id="w"><feTurbulence type="fractalNoise" baseFrequency=".015" numOctaves="3" seed="8" result="n"/><feDisplacementMap in="SourceGraphic" in2="n" scale="5"/></filter></defs>
<rect width="1200" height="400" fill="url(#sky)"/><rect y="400" width="1200" height="320" fill="#d5c7a9"/>
<g filter="url(#w)"><path d="M0 400V120l145 100 96-132 125 145 91-99 119 153 75-79 95 124 112-158 142 149 100-117v194z" fill="url(#rock)"/><path d="M0 400l156-78 77 78 132-112 87 112 132-84 75 84 148-108 111 108 128-81 54 81z" fill="#e5d8bb" opacity=".82"/></g>
<path d="M0 579c157-86 303-82 437-28 111 44 216 43 320 5 148-54 294-44 443 34v130H0z" fill="url(#river)"/>
<path d="M34 639c185-63 365-63 540-15 151 42 309 40 472-5" fill="none" stroke="#d8eef2" stroke-width="8" opacity=".55"/>
<path d="M74 536c169-79 317-109 448-88 119 19 239 19 361-3 81-15 158-12 233 9" fill="none" stroke="#876f4f" stroke-width="15" opacity=".75"/>
<path d="M77 533c173-75 321-102 446-82 121 19 241 19 363-3 79-14 156-11 230 10" fill="none" stroke="#d4c09b" stroke-width="6"/>
<g fill="#f2f4ea"><path d="M225 218l48-66 43 66z"/><path d="M513 282l60-79 54 79z"/><path d="M824 307l56-76 50 76z"/></g>
<g fill="#8e7657"><rect x="880" y="472" width="42" height="25"/><rect x="935" y="465" width="34" height="21"/><rect x="978" y="476" width="29" height="19"/></g>
</svg>