<svg xmlns="http://www.w3.org/2000/svg" viewBox="0 0 1200 760" role="img" aria-label="Map of Tunisia" data-map-style="journey-atlas-map-v3-clean-background" data-map-projection="local-equirectangular-fit-v1">
<metadata>Target and surrounding national geometry: Natural Earth 1:10m cultural vectors, WGS84, public domain, via LonnyGomes/CountryGeoJSONCollection commit 5120290 (TUN/DZA/LBY/ITA GeoJSON). Shared JOURNEY ATLAS map-v3 clean-background styling; generated 2026-09-26.</metadata>
<defs>
<linearGradient id="sea" x1="0" y1="0" x2="1" y2="1"><stop offset="0" stop-color="#eaf2f4"/><stop offset=".55" stop-color="#dcebf0"/><stop offset="1" stop-color="#d0e3eb"/></linearGradient>
<linearGradient id="land" x1=".12" y1=".08" x2=".88" y2=".92"><stop offset="0" stop-color="#e2dbad"/><stop offset=".52" stop-color="#d4cc9b"/><stop offset="1" stop-color="#c8bf8a"/></linearGradient>
<filter id="shadow" x="-10%" y="-10%" width="120%" height="120%"><feGaussianBlur in="SourceAlpha" stdDeviation="4" result="b"/><feOffset in="b" dy="3" result="o"/><feColorMatrix in="o" type="matrix" values="0 0 0 0 .12 0 0 0 0 .22 0 0 0 0 .28 0 0 0 .14 0"/><feBlend in="SourceGraphic" mode="normal"/></filter>
</defs>
<rect width="1200" height="760" fill="url(#sea)"/>
<g id="geographic-context" fill="#e4e0ce" fill-rule="evenodd" stroke="#b6bbaf" stroke-width="1" stroke-linejoin="round">
<path data-country="DZA" d="M -2027.8,1184.6 L -2152.1,1146.8 L -2719.2,982.2 L -2719.2,860.2 L -2718.6,857.8 L -2716.6,856.2 L -2713.2,854.9 L -2690.3,849.5 L -2682.2,846.7 L -2674.1,844.7 L -2671.8,843.7 L -2665.7,839.0 L -2653.8,836.1 L -2641.9,831.2 L -2629.7,827.6 L -2609.5,823.7 L -2603.5,821.9 L -2587.2,815.1 L -2568.2,809.6 L -2557.3,805.1 L -2548.7,803.2 L -2545.9,802.3 L -2535.0,797.5 L -2528.9,796.3 L -2508.6,797.1 L -2504.6,796.9 L -2500.9,796.3 L -2480.5,796.8 L -2464.3,789.4 L -2444.2,785.7 L -2430.5,785.1 L -2410.4,785.7 L -2379.1,791.3 L -2364.1,785.1 L -2339.1,783.8 L -2312.8,780.8 L -2287.8,779.5 L -2261.5,779.5 L -2238.9,779.5 L -2217.7,777.7 L -2195.1,776.4 L -2188.9,784.5 L -2173.9,786.9 L -2156.3,784.5 L -2137.6,774.0 L -2121.3,762.8 L -2108.8,752.3 L -2091.2,744.3 L -2072.5,738.8 L -2052.4,731.3 L -2037.4,726.4 L -2018.6,722.1 L -1992.4,717.1 L -1967.3,708.5 L -1947.3,697.4 L -1929.8,693.1 L -1908.5,690.6 L -1880.9,690.0 L -1850.9,686.9 L -1817.1,679.5 L -1818.4,673.9 L -1819.6,668.3 L -1810.9,664.6 L -1800.8,657.8 L -1810.5,651.2 L -1810.8,649.5 L -1811.6,647.9 L -1813.3,646.3 L -1815.4,645.5 L -1821.8,644.2 L -1825.0,642.9 L -1829.9,639.5 L -1832.5,638.4 L -1835.6,638.0 L -1838.3,638.6 L -1843.5,640.7 L -1846.7,641.3 L -1849.7,641.2 L -1851.8,640.4 L -1852.4,638.9 L -1851.3,637.2 L -1847.5,634.5 L -1847.1,632.4 L -1848.2,625.8 L -1847.5,624.2 L -1845.2,623.0 L -1835.4,619.9 L -1822.1,619.6 L -1819.6,596.7 L -1807.4,594.0 L -1799.8,594.7 L -1793.1,594.5 L -1740.8,590.5 L -1702.0,585.6 L -1670.7,583.7 L -1678.2,575.1 L -1690.5,561.3 L -1680.2,558.8 L -1647.0,557.7 L -1614.8,553.9 L -1388.0,558.4 L -1381.0,557.7 L -1377.4,554.5 L -1378.3,552.7 L -1381.2,551.6 L -1385.0,551.1 L -1388.4,551.1 L -1395.0,552.2 L -1397.9,552.2 L -1398.7,550.8 L -1392.8,547.8 L -1389.4,537.2 L -1387.0,534.0 L -1385.2,532.5 L -1382.3,530.9 L -1365.3,528.6 L -1359.4,526.7 L -1349.0,521.9 L -1351.8,519.9 L -1401.9,503.8 L -1413.2,502.1 L -1419.1,500.0 L -1443.4,483.1 L -1435.8,480.8 L -1434.4,480.2 L -1433.4,479.5 L -1431.6,475.8 L -1431.6,473.7 L -1432.7,471.9 L -1445.6,467.3 L -1449.3,465.1 L -1451.8,462.4 L -1455.0,459.8 L -1464.0,456.2 L -1465.7,453.3 L -1465.7,444.6 L -1463.8,442.3 L -1461.3,440.1 L -1458.0,435.2 L -1455.3,433.5 L -1453.0,431.1 L -1453.9,428.2 L -1461.9,420.2 L -1463.9,419.2 L -1467.0,418.2 L -1473.2,417.3 L -1476.0,416.5 L -1477.0,415.1 L -1476.2,413.8 L -1470.6,411.2 L -1469.2,409.9 L -1472.6,402.0 L -1472.0,397.8 L -1463.7,383.6 L -1463.2,381.8 L -1463.7,380.7 L -1464.1,379.5 L -1476.9,363.2 L -1481.4,359.3 L -1488.3,355.9 L -1469.2,346.4 L -1471.2,346.0 L -1477.7,345.2 L -1499.3,336.1 L -1497.8,334.6 L -1488.4,328.7 L -1484.1,324.7 L -1481.8,324.0 L -1481.1,323.3 L -1484.4,322.0 L -1503.2,317.1 L -1509.3,314.8 L -1518.8,312.4 L -1521.2,311.2 L -1523.0,307.7 L -1525.3,307.0 L -1533.4,306.7 L -1551.6,301.0 L -1557.1,300.1 L -1560.3,298.4 L -1562.0,296.1 L -1562.3,292.6 L -1558.2,292.0 L -1555.8,292.6 L -1550.5,291.5 L -1531.8,293.8 L -1520.2,293.2 L -1516.1,293.7 L -1514.6,293.8 L -1513.4,293.6 L -1510.3,292.6 L -1493.5,290.7 L -1488.8,289.3 L -1479.6,289.0 L -1476.8,288.2 L -1470.9,285.4 L -1459.5,283.8 L -1457.5,283.3 L -1456.0,281.7 L -1434.7,274.4 L -1409.5,272.6 L -1402.9,269.6 L -1399.5,269.2 L -1396.1,268.2 L -1393.2,267.1 L -1391.2,266.0 L -1389.7,264.2 L -1387.6,260.0 L -1385.7,258.4 L -1383.7,257.0 L -1377.4,250.4 L -1376.1,249.5 L -1374.0,249.1 L -1369.8,249.0 L -1368.9,248.6 L -1364.2,245.9 L -1352.6,242.1 L -1350.5,240.7 L -1349.2,240.1 L -1342.7,239.5 L -1333.7,236.9 L -1329.4,236.4 L -1327.2,236.5 L -1326.2,237.2 L -1325.3,237.6 L -1323.1,237.2 L -1316.3,235.6 L -1311.9,232.5 L -1307.8,232.1 L -1303.4,233.6 L -1291.6,234.8 L -1288.2,236.9 L -1276.4,236.6 L -1272.7,235.9 L -1269.7,234.8 L -1267.6,232.3 L -1261.1,232.6 L -1259.2,232.2 L -1257.9,231.6 L -1249.6,224.5 L -1250.1,221.8 L -1246.4,222.4 L -1239.1,222.4 L -1231.5,220.9 L -1226.6,220.3 L -1224.4,220.9 L -1223.5,221.9 L -1218.3,222.9 L -1217.6,223.8 L -1218.7,225.0 L -1218.3,226.0 L -1215.3,227.3 L -1210.6,228.2 L -1197.9,229.3 L -1190.2,230.6 L -1186.4,230.9 L -1184.5,230.8 L -1179.1,230.3 L -1171.1,228.6 L -1163.7,226.4 L -1158.0,224.2 L -1151.6,219.0 L -1149.8,216.8 L -1143.8,211.2 L -1141.4,207.6 L -1136.6,206.3 L -1128.0,202.7 L -1124.9,201.8 L -1113.4,200.2 L -1106.7,198.1 L -1105.2,197.5 L -1102.9,193.9 L -1099.7,193.2 L -1095.3,192.8 L -1087.5,192.7 L -1083.3,192.4 L -1064.5,187.0 L -1057.7,186.2 L -1048.8,183.0 L -1029.3,182.2 L -1026.5,181.6 L -1020.5,180.0 L -1009.3,178.7 L -998.5,175.1 L -996.5,172.9 L -994.8,172.1 L -991.8,171.6 L -983.8,170.8 L -977.1,169.1 L -964.1,169.0 L -960.2,168.5 L -953.1,166.9 L -937.5,166.6 L -933.4,166.0 L -923.0,163.9 L -919.2,163.7 L -915.9,163.9 L -908.1,165.1 L -904.0,165.4 L -899.8,165.3 L -892.4,164.5 L -859.5,163.7 L -856.7,163.7 L -848.7,162.5 L -841.3,163.0 L -831.5,161.9 L -821.4,161.7 L -813.1,162.4 L -810.8,162.5 L -795.2,161.7 L -750.5,156.4 L -746.9,155.8 L -743.0,155.7 L -739.1,156.1 L -735.8,156.9 L -733.6,159.1 L -725.9,159.9 L -724.1,160.0 L -698.4,159.4 L -692.6,158.6 L -675.7,153.3 L -663.9,150.9 L -659.3,149.3 L -654.9,146.7 L -653.8,145.5 L -649.1,143.6 L -638.8,140.6 L -631.0,140.0 L -629.6,140.1 L -624.3,140.4 L -618.3,141.8 L -613.6,143.9 L -608.6,145.6 L -601.8,146.6 L -595.8,146.5 L -594.7,146.4 L -589.2,145.2 L -587.2,143.9 L -586.4,142.6 L -586.2,140.3 L -584.3,140.2 L -572.6,142.4 L -565.9,143.1 L -544.4,143.6 L -540.8,143.4 L -528.3,142.2 L -524.7,140.6 L -517.2,140.6 L -510.5,139.3 L -499.8,134.9 L -494.0,133.3 L -478.7,131.4 L -470.4,131.0 L -463.4,131.5 L -457.0,133.2 L -442.1,132.8 L -440.7,132.8 L -432.5,133.3 L -429.0,134.0 L -421.5,132.4 L -419.2,132.2 L -410.1,133.3 L -400.8,131.5 L -390.4,132.7 L -368.8,131.5 L -366.6,131.7 L -363.9,132.0 L -357.5,133.5 L -351.7,133.6 L -349.2,134.0 L -343.6,133.0 L -322.7,133.3 L -310.0,132.7 L -306.8,133.0 L -277.6,137.9 L -274.3,139.1 L -273.4,139.7 L -267.0,140.0 L -263.4,141.8 L -260.4,142.4 L -249.9,143.0 L -253.5,147.4 L -252.5,148.7 L -247.4,150.3 L -226.4,154.6 L -220.5,155.2 L -214.1,155.3 L -202.0,154.6 L -192.0,153.4 L -191.0,153.3 L -185.4,153.3 L -181.1,151.5 L -173.9,150.4 L -170.3,149.4 L -167.9,146.2 L -165.5,144.8 L -162.3,143.7 L -159.0,143.0 L -151.2,142.1 L -147.8,141.4 L -141.4,139.1 L -137.2,138.5 L -132.8,138.4 L -120.4,139.5 L -113.0,139.4 L -82.9,136.7 L -54.3,132.4 L -47.3,130.7 L -43.5,128.5 L -44.0,123.8 L -41.8,122.2 L -28.9,117.6 L -23.0,116.3 L -15.1,115.5 L -6.7,115.4 L 0.5,116.4 L 6.9,118.4 L 7.9,118.5 L 8.0,119.4 L 8.4,120.1 L 13.0,121.3 L 14.9,124.6 L 17.8,126.1 L 20.4,125.7 L 30.7,127.3 L 57.7,127.9 L 66.2,130.0 L 68.1,130.9 L 68.0,132.4 L 73.3,133.2 L 80.3,133.4 L 85.2,133.3 L 101.1,131.4 L 106.1,130.3 L 108.9,130.8 L 113.4,131.2 L 117.7,131.3 L 119.6,130.6 L 121.2,129.7 L 128.7,127.2 L 131.3,126.6 L 135.1,124.2 L 135.6,123.4 L 135.3,122.4 L 134.4,121.7 L 127.4,118.7 L 122.1,116.9 L 122.1,116.4 L 129.4,115.8 L 138.8,117.6 L 142.0,116.4 L 149.7,117.6 L 151.2,117.4 L 155.8,116.4 L 158.2,116.4 L 162.0,119.2 L 164.5,119.4 L 168.1,119.4 L 169.6,119.6 L 171.2,120.0 L 174.2,119.3 L 177.4,118.9 L 195.0,124.8 L 203.0,125.4 L 208.1,124.7 L 210.4,124.9 L 217.2,127.0 L 225.8,126.6 L 227.6,126.4 L 230.9,124.9 L 232.6,124.3 L 231.2,126.1 L 229.0,128.0 L 228.2,129.8 L 231.3,130.9 L 228.1,133.4 L 228.1,133.5 L 234.6,135.4 L 244.7,136.6 L 252.3,137.0 L 277.6,134.5 L 281.7,133.7 L 285.3,132.4 L 310.4,127.4 L 313.6,128.3 L 316.8,129.6 L 320.3,130.3 L 328.3,130.1 L 332.4,130.3 L 335.6,130.9 L 338.3,130.5 L 345.4,132.2 L 351.6,132.4 L 357.8,132.2 L 376.5,129.1 L 376.6,129.1 L 377.6,133.4 L 383.7,137.1 L 383.6,138.2 L 380.4,139.1 L 368.0,141.1 L 361.8,141.6 L 355.1,141.4 L 348.2,141.7 L 342.6,142.8 L 341.5,144.2 L 347.8,145.5 L 351.4,147.3 L 349.8,150.4 L 345.7,153.5 L 341.7,155.3 L 320.0,160.5 L 308.5,162.3 L 303.3,163.6 L 299.1,165.6 L 298.7,168.6 L 298.7,168.7 L 306.1,169.9 L 321.6,170.7 L 331.2,172.4 L 332.7,174.1 L 332.1,181.1 L 323.7,190.6 L 322.8,194.2 L 325.4,199.2 L 323.8,200.9 L 321.8,202.3 L 318.0,208.8 L 317.5,213.7 L 316.7,214.8 L 312.9,220.3 L 311.9,227.3 L 312.7,231.1 L 314.8,234.2 L 323.6,239.9 L 326.6,242.8 L 327.3,245.6 L 329.0,252.9 L 329.0,255.5 L 322.5,261.8 L 320.6,264.9 L 320.2,268.1 L 321.4,271.7 L 325.5,274.9 L 332.3,276.2 L 339.7,277.2 L 345.9,279.1 L 344.1,280.8 L 333.3,287.6 L 324.8,291.4 L 322.5,294.5 L 319.3,301.0 L 315.0,305.7 L 313.2,309.1 L 313.6,312.4 L 316.9,321.3 L 316.4,322.5 L 309.0,325.9 L 306.9,327.3 L 306.4,328.6 L 311.0,331.6 L 309.6,332.6 L 303.2,334.2 L 298.6,337.7 L 294.4,338.8 L 287.0,341.4 L 285.5,342.0 L 268.5,345.2 L 261.0,347.4 L 245.5,350.1 L 238.5,352.2 L 235.0,355.3 L 228.2,365.8 L 226.6,367.2 L 224.4,368.3 L 221.0,369.1 L 209.6,369.8 L 202.6,371.2 L 182.2,380.4 L 179.8,382.8 L 179.2,389.3 L 175.5,398.2 L 176.4,401.6 L 178.8,406.5 L 180.1,408.0 L 185.2,412.1 L 187.1,416.7 L 188.6,419.0 L 200.0,427.2 L 213.7,437.1 L 216.4,440.5 L 216.4,440.9 L 216.7,452.6 L 219.4,456.8 L 224.0,458.9 L 230.6,459.7 L 239.2,460.0 L 245.7,460.9 L 265.6,466.9 L 269.0,467.6 L 272.7,468.1 L 276.5,468.2 L 280.2,467.9 L 284.2,468.9 L 301.1,479.9 L 319.3,491.7 L 321.7,494.5 L 324.2,506.9 L 325.9,516.0 L 328.0,519.0 L 328.2,519.1 L 333.1,521.3 L 355.1,527.2 L 451.3,556.3 L 453.8,557.6 L 455.8,559.2 L 540.8,722.1 L 499.1,732.0 L 503.3,734.9 L 513.9,740.3 L 523.3,745.1 L 546.2,759.8 L 567.4,776.9 L 581.5,798.1 L 595.7,819.3 L 599.7,832.8 L 600.2,849.6 L 595.9,864.4 L 586.9,895.4 L 589.2,900.6 L 615.4,930.8 L 615.1,934.3 L 614.6,935.1 L 602.4,952.7 L 599.4,954.5 L 594.4,955.7 L 590.0,957.1 L 590.5,958.9 L 593.1,960.9 L 594.9,962.8 L 593.5,964.4 L 585.8,968.2 L 583.2,970.1 L 580.8,975.3 L 577.9,978.7 L 577.1,980.2 L 577.0,981.6 L 592.1,1005.2 L 595.6,1014.5 L 597.3,1016.2 L 599.3,1017.0 L 607.3,1019.0 L 610.1,1020.0 L 610.9,1021.3 L 606.4,1030.7 L 605.8,1033.8 L 607.9,1036.3 L 608.3,1038.1 L 600.8,1049.5 L 597.4,1051.3 L 534.2,1064.7 L 534.0,1066.4 L 533.3,1067.9 L 531.7,1069.2 L 525.6,1071.8 L 522.4,1075.3 L 519.9,1076.7 L 515.4,1080.9 L 519.6,1085.8 L 621.4,1149.2 L 628.3,1154.9 L 630.7,1160.5 L 632.6,1196.9 L 634.8,1199.2 L 661.5,1206.3 L 664.9,1208.7 L 668.0,1216.9 L 670.3,1220.0 L 673.5,1221.6 L 697.0,1230.1 L 700.4,1230.7 L 707.5,1230.4 L 728.4,1226.9 L 748.2,1223.6 L 752.1,1223.4 L 897.1,1244.8 L 902.9,1246.3 L 907.5,1249.0 L 979.5,1315.2 L 176.0,1548.9 L 93.2,1582.3 L -118.6,1672.1 L -126.4,1674.7 L -134.4,1676.1 L -548.1,1714.8 L -562.6,1716.5 L -567.2,1716.6 L -569.8,1716.4 L -571.6,1716.0 L -575.8,1714.8 L -586.4,1709.9 L -594.7,1708.2 L -598.5,1707.2 L -602.0,1705.9 L -605.2,1704.4 L -608.2,1702.4 L -608.5,1700.8 L -601.9,1694.8 L -599.5,1694.1 L -595.6,1692.2 L -594.8,1690.7 L -593.9,1687.2 L -592.3,1685.6 L -581.9,1682.1 L -580.2,1680.1 L -580.6,1678.2 L -586.4,1673.8 L -585.3,1670.6 L -588.9,1668.7 L -591.1,1665.5 L -591.4,1662.1 L -588.0,1644.2 L -588.8,1643.0 L -591.3,1641.9 L -603.5,1639.7 L -613.9,1635.9 L -636.5,1631.2 L -685.6,1626.4 L -695.5,1626.2 L -711.8,1624.7 L -713.8,1624.6 L -717.2,1624.3 L -723.7,1622.6 L -727.2,1622.0 L -731.5,1621.5 L -734.3,1621.0 L -736.3,1620.1 L -743.6,1613.9 L -749.3,1610.1 L -755.9,1606.8 L -766.9,1602.7 L -770.0,1601.8 L -773.3,1601.4 L -777.1,1601.7 L -781.2,1603.0 L -788.5,1606.2 L -793.2,1607.2 L -795.9,1607.0 L -807.2,1605.2 L -811.9,1603.7 L -814.0,1603.5 L -816.5,1603.9 L -819.5,1605.2 L -821.5,1605.6 L -825.4,1605.6 L -829.1,1601.0 L -831.9,1600.0 L -841.9,1600.0 L -845.7,1599.2 L -867.0,1590.9 L -868.8,1589.6 L -868.6,1583.0 L -869.7,1579.9 L -873.4,1577.3 L -884.8,1573.2 L -891.9,1571.5 L -898.5,1571.0 L -901.7,1570.1 L -919.9,1567.9 L -922.9,1566.9 L -925.7,1565.3 L -929.5,1562.2 L -931.9,1561.2 L -936.1,1560.7 L -939.9,1560.7 L -947.0,1561.5 L -950.8,1561.5 L -954.9,1561.2 L -957.4,1560.8 L -958.7,1559.6 L -959.2,1557.4 L -959.1,1555.7 L -955.1,1547.7 L -952.8,1538.1 L -953.2,1536.1 L -956.5,1530.5 L -958.8,1528.7 L -1973.0,1201.5 Z"/>
<path data-country="LBY" d="M 896.4,461.2 L 908.9,463.3 L 911.2,465.5 L 914.0,466.5 L 919.8,467.6 L 941.5,469.0 L 948.1,470.1 L 944.4,468.4 L 932.7,466.9 L 929.7,465.2 L 938.4,467.2 L 957.7,469.9 L 999.5,480.9 L 1007.0,484.2 L 1013.8,485.0 L 1025.3,488.2 L 1039.5,491.1 L 1047.5,492.0 L 1115.8,495.0 L 1132.7,494.5 L 1177.5,489.0 L 1184.9,487.6 L 1190.6,485.7 L 1193.7,484.9 L 1197.8,484.6 L 1210.2,484.4 L 1227.2,485.7 L 1266.5,494.6 L 1274.7,495.5 L 1305.2,494.9 L 1312.9,495.4 L 1328.1,497.3 L 1341.7,499.8 L 1374.7,502.2 L 1376.5,502.4 L 1379.7,503.7 L 1380.8,504.0 L 1383.8,504.5 L 1390.3,507.2 L 1400.1,509.9 L 1415.7,515.5 L 1423.8,519.2 L 1427.4,519.7 L 1456.4,521.8 L 1459.3,522.4 L 1462.0,523.4 L 1469.9,525.3 L 1473.5,525.7 L 1506.5,526.4 L 1542.9,529.1 L 1551.0,530.4 L 1555.0,530.6 L 1557.5,531.1 L 1564.2,534.9 L 1570.7,536.5 L 1573.1,537.5 L 1574.7,540.8 L 1576.3,542.5 L 1580.2,545.8 L 1587.7,550.1 L 1588.7,551.5 L 1588.4,553.4 L 1586.8,556.6 L 1586.3,560.1 L 1586.0,562.2 L 1587.1,568.6 L 1588.7,571.8 L 1610.2,595.2 L 1614.5,598.4 L 1633.9,610.0 L 1645.5,615.3 L 1658.8,619.7 L 1709.5,629.6 L 1765.7,633.9 L 1831.9,634.2 L 1870.2,637.8 L 1909.3,643.5 L 1939.8,646.3 L 1946.1,646.3 L 1955.6,648.5 L 1960.7,650.5 L 1962.6,651.0 L 1964.2,651.3 L 1990.6,654.6 L 2004.5,657.5 L 2019.6,659.7 L 2032.6,660.7 L 2034.9,661.6 L 2039.9,664.7 L 2043.1,666.0 L 2046.6,666.8 L 2062.7,668.3 L 2091.1,672.9 L 2097.0,674.3 L 2101.9,676.3 L 2117.8,684.3 L 2161.5,698.1 L 2171.3,702.9 L 2176.7,705.0 L 2188.5,707.7 L 2196.0,708.4 L 2199.5,709.1 L 2225.5,716.4 L 2233.1,717.8 L 2249.0,718.8 L 2265.0,718.9 L 2281.7,718.1 L 2291.0,717.0 L 2299.4,715.9 L 2313.8,712.9 L 2333.8,707.3 L 2337.5,706.5 L 2345.6,705.9 L 2349.2,705.1 L 2372.9,697.2 L 2402.6,682.0 L 2410.4,676.1 L 2414.7,673.5 L 2421.3,671.3 L 2424.4,669.9 L 2435.8,659.7 L 2444.2,649.9 L 2445.2,646.2 L 2444.2,634.8 L 2440.9,632.5 L 2436.4,626.7 L 2432.6,624.2 L 2424.8,620.7 L 2421.9,618.9 L 2409.8,604.5 L 2408.8,600.8 L 2408.6,596.9 L 2403.7,590.5 L 2403.1,586.9 L 2403.5,582.8 L 2406.1,575.4 L 2408.6,572.1 L 2407.2,569.3 L 2426.5,552.7 L 2430.7,550.0 L 2464.8,535.6 L 2467.6,533.7 L 2476.2,529.4 L 2479.8,528.5 L 2487.0,527.2 L 2518.7,516.3 L 2560.6,508.8 L 2585.2,501.7 L 2606.1,497.3 L 2614.3,496.6 L 2648.4,497.4 L 2656.5,497.1 L 2671.3,495.5 L 2678.4,493.8 L 2706.0,483.3 L 2708.6,482.8 L 2717.3,482.5 L 2725.3,481.6 L 2730.2,483.3 L 2738.0,484.6 L 2746.8,485.5 L 2754.2,485.8 L 2793.3,484.0 L 2797.0,482.1 L 2801.0,481.8 L 2802.9,481.8 L 2805.0,482.1 L 2806.5,482.7 L 2807.5,484.6 L 2813.2,487.1 L 2820.4,487.7 L 2836.9,487.6 L 2844.0,488.7 L 2861.6,494.3 L 2865.1,495.1 L 2868.2,495.7 L 2871.4,496.0 L 2879.8,496.2 L 2921.6,501.6 L 2931.4,504.2 L 2942.5,505.8 L 2945.0,505.9 L 2951.1,505.8 L 2955.2,506.3 L 2962.6,507.9 L 2970.7,508.5 L 2974.2,509.0 L 2976.5,510.0 L 2976.9,511.2 L 2972.1,514.6 L 2973.8,520.0 L 2975.5,521.3 L 2978.3,522.4 L 2981.9,523.3 L 2980.5,525.1 L 2978.2,530.6 L 2974.7,530.0 L 2975.3,529.2 L 2974.9,528.4 L 2973.7,527.7 L 2972.1,527.0 L 2969.4,534.3 L 2969.7,536.1 L 2972.3,537.0 L 2990.2,539.8 L 2993.6,541.5 L 2996.6,543.4 L 2998.8,546.1 L 3006.3,547.6 L 3007.7,548.6 L 3009.4,550.5 L 3011.1,551.2 L 3010.8,549.7 L 3008.8,545.8 L 3012.2,546.3 L 3020.1,546.4 L 3027.8,548.7 L 3050.3,549.6 L 3075.2,549.4 L 3105.7,552.4 L 3134.1,557.3 L 3129.9,559.0 L 3129.1,559.7 L 3130.5,560.1 L 3135.2,560.9 L 3146.5,564.6 L 3150.6,565.1 L 3184.6,564.9 L 3232.1,566.3 L 3248.3,564.3 L 3252.3,563.1 L 3254.4,562.7 L 3261.6,563.3 L 3265.7,562.7 L 3276.1,564.9 L 3310.2,568.4 L 3316.6,570.1 L 3319.4,573.0 L 3317.8,576.5 L 3317.4,578.4 L 3318.7,580.0 L 3324.8,582.9 L 3334.4,588.7 L 3335.3,590.3 L 3337.9,592.7 L 3341.4,595.4 L 3329.3,599.7 L 3324.3,602.8 L 3317.7,610.3 L 3288.6,620.3 L 3286.4,623.1 L 3286.3,626.4 L 3288.1,633.8 L 3288.3,641.1 L 3292.4,650.5 L 3293.7,652.3 L 3299.9,657.8 L 3302.3,662.3 L 3310.1,669.4 L 3312.5,672.9 L 3311.4,676.0 L 3308.7,679.0 L 3306.5,682.6 L 3304.6,687.4 L 3299.2,693.5 L 3298.6,695.3 L 3296.9,698.3 L 3293.4,701.3 L 3282.9,708.1 L 3277.5,710.4 L 3272.7,713.1 L 3271.0,714.3 L 3257.7,726.2 L 3257.6,729.6 L 3259.2,731.5 L 3264.3,735.4 L 3279.7,752.0 L 3280.5,754.0 L 3280.3,755.7 L 3277.3,760.3 L 3278.5,764.0 L 3287.7,770.7 L 3290.3,774.3 L 3290.2,776.4 L 3288.6,782.8 L 3289.0,786.3 L 3290.8,789.3 L 3305.7,804.8 L 3308.8,809.6 L 3310.1,814.7 L 3310.0,1581.8 L 3309.9,1625.9 L 3309.3,1626.4 L 3131.0,1626.5 L 3131.0,1670.6 L 1698.8,1321.6 L 1695.2,1321.9 L 1518.7,1361.3 L 1384.8,1394.7 L 1382.0,1394.8 L 1379.4,1394.2 L 1271.6,1350.4 L 1250.6,1345.1 L 979.5,1315.2 L 907.5,1249.0 L 902.9,1246.3 L 897.1,1244.8 L 755.9,1223.8 L 752.1,1223.4 L 748.2,1223.6 L 728.4,1226.9 L 707.5,1230.4 L 700.4,1230.7 L 697.0,1230.1 L 673.5,1221.6 L 670.3,1220.0 L 668.0,1216.9 L 664.9,1208.7 L 661.5,1206.3 L 634.8,1199.2 L 632.6,1196.9 L 630.7,1160.5 L 628.3,1154.9 L 621.4,1149.2 L 519.6,1085.8 L 515.4,1080.9 L 519.9,1076.7 L 522.4,1075.3 L 525.6,1071.8 L 531.7,1069.2 L 533.3,1067.9 L 534.0,1066.4 L 534.2,1064.7 L 597.4,1051.3 L 600.8,1049.5 L 608.3,1038.1 L 607.9,1036.3 L 605.8,1033.8 L 606.4,1030.7 L 610.9,1021.3 L 610.1,1020.0 L 597.3,1016.2 L 595.6,1014.5 L 592.1,1005.2 L 577.0,981.6 L 577.1,980.2 L 577.9,978.7 L 580.8,975.3 L 583.2,970.1 L 585.8,968.2 L 593.5,964.4 L 594.9,962.8 L 593.1,960.9 L 590.5,958.9 L 590.0,957.1 L 594.4,955.7 L 599.4,954.5 L 602.4,952.7 L 614.6,935.1 L 615.1,934.3 L 615.4,930.8 L 589.2,900.6 L 586.9,895.4 L 595.9,864.4 L 600.2,849.6 L 599.7,832.8 L 595.7,819.3 L 581.5,798.1 L 567.4,776.9 L 546.2,759.8 L 523.3,745.1 L 513.9,740.3 L 503.3,734.9 L 499.1,732.0 L 540.8,722.1 L 580.9,713.0 L 586.2,712.4 L 599.2,712.1 L 603.8,710.9 L 626.1,698.6 L 645.0,685.6 L 661.3,677.7 L 672.3,667.9 L 675.2,664.4 L 675.3,661.4 L 670.8,655.2 L 670.0,652.1 L 671.0,648.7 L 670.7,647.0 L 665.1,642.0 L 659.6,632.7 L 646.2,617.6 L 645.9,616.0 L 647.8,610.3 L 650.6,608.2 L 662.1,602.8 L 674.1,593.8 L 683.4,590.7 L 703.5,590.8 L 713.3,589.2 L 716.2,588.2 L 718.8,587.1 L 721.0,585.7 L 724.0,582.7 L 731.6,579.7 L 733.9,576.8 L 735.4,569.7 L 739.4,567.9 L 742.8,568.1 L 746.0,568.8 L 749.3,569.4 L 752.8,568.9 L 758.8,566.9 L 765.3,565.2 L 771.2,562.7 L 778.4,555.7 L 783.3,553.5 L 838.6,542.4 L 885.5,533.0 L 898.0,529.5 L 900.2,528.7 L 903.8,527.2 L 907.0,524.4 L 906.4,520.7 L 902.2,517.5 L 890.2,512.6 L 886.6,509.2 L 886.4,504.3 L 889.0,495.0 L 887.7,485.9 L 890.9,479.9 L 891.0,474.9 L 891.5,473.6 L 896.6,465.2 Z"/>
<path data-country="ITA" d="M 93.5,-665.0 L 101.5,-661.9 L 105.7,-661.1 L 111.2,-660.7 L 117.1,-660.7 L 122.5,-661.1 L 140.9,-664.0 L 154.4,-663.5 L 160.1,-664.2 L 170.7,-666.8 L 176.0,-667.6 L 179.8,-667.8 L 181.7,-668.7 L 183.5,-669.7 L 186.5,-670.2 L 204.7,-668.7 L 207.5,-668.1 L 210.2,-667.2 L 213.6,-665.5 L 213.8,-665.3 L 216.0,-665.1 L 220.7,-665.5 L 229.3,-664.4 L 238.4,-664.1 L 240.7,-664.5 L 241.7,-666.3 L 245.4,-666.4 L 245.9,-668.0 L 247.8,-669.3 L 250.4,-670.0 L 263.1,-671.0 L 264.8,-671.2 L 266.1,-671.6 L 268.4,-672.6 L 270.6,-674.3 L 271.9,-678.8 L 273.2,-679.7 L 275.0,-680.2 L 278.7,-680.3 L 280.6,-680.5 L 288.5,-682.8 L 292.4,-685.7 L 291.9,-689.0 L 286.6,-692.5 L 282.4,-693.7 L 281.7,-694.0 L 282.5,-694.8 L 284.3,-695.6 L 287.8,-696.9 L 291.7,-697.5 L 299.4,-698.1 L 303.1,-698.9 L 312.0,-702.9 L 317.0,-703.8 L 319.1,-704.3 L 320.9,-705.1 L 321.9,-705.9 L 321.9,-706.8 L 320.7,-707.1 L 320.0,-707.5 L 321.5,-708.6 L 325.3,-710.0 L 330.2,-710.9 L 337.8,-711.4 L 340.1,-711.6 L 345.3,-711.3 L 347.8,-710.1 L 348.5,-708.1 L 348.6,-705.4 L 348.0,-702.9 L 345.1,-698.3 L 344.5,-696.0 L 345.2,-693.8 L 347.1,-692.4 L 350.4,-691.5 L 355.1,-690.9 L 360.0,-690.0 L 365.1,-688.2 L 376.4,-682.5 L 390.0,-680.1 L 393.1,-680.0 L 398.3,-681.3 L 402.5,-680.0 L 413.5,-679.6 L 418.1,-677.5 L 415.4,-675.4 L 410.3,-673.3 L 406.2,-670.1 L 409.3,-670.1 L 412.0,-669.7 L 422.3,-667.8 L 423.5,-667.5 L 424.6,-667.0 L 432.0,-661.3 L 432.3,-659.8 L 429.9,-656.3 L 436.9,-657.0 L 442.8,-656.1 L 448.2,-655.8 L 453.9,-658.2 L 458.4,-661.2 L 459.1,-662.7 L 457.0,-664.2 L 449.7,-665.1 L 448.1,-666.0 L 446.6,-667.6 L 444.7,-668.3 L 444.3,-668.5 L 444.7,-669.2 L 450.5,-671.0 L 447.4,-674.1 L 448.1,-675.1 L 452.7,-676.3 L 456.7,-676.7 L 458.4,-677.1 L 459.8,-677.9 L 460.4,-679.0 L 460.0,-681.0 L 460.7,-682.1 L 464.0,-683.8 L 477.0,-686.9 L 480.2,-689.7 L 482.2,-690.2 L 484.3,-690.5 L 486.4,-691.2 L 488.0,-692.1 L 490.7,-695.2 L 495.9,-699.0 L 497.0,-700.9 L 496.8,-702.1 L 494.4,-705.2 L 494.5,-708.4 L 492.1,-709.0 L 490.4,-710.2 L 491.8,-712.4 L 494.9,-714.5 L 498.3,-715.6 L 507.0,-715.9 L 510.6,-715.6 L 510.7,-714.5 L 515.3,-713.0 L 516.6,-712.8 L 518.6,-713.1 L 521.3,-714.8 L 524.2,-715.6 L 525.6,-715.7 L 527.3,-704.8 L 534.2,-703.2 L 537.8,-700.0 L 540.0,-698.9 L 543.8,-698.0 L 548.0,-697.5 L 568.5,-697.4 L 571.9,-697.9 L 574.6,-699.2 L 574.8,-701.9 L 576.7,-702.6 L 585.3,-701.6 L 589.0,-702.0 L 601.0,-704.1 L 608.8,-704.5 L 612.3,-704.4 L 615.9,-704.1 L 620.4,-703.1 L 622.8,-698.0 L 625.5,-696.8 L 632.5,-694.6 L 634.4,-693.1 L 634.5,-691.1 L 640.4,-691.1 L 648.0,-692.1 L 653.0,-693.1 L 655.3,-694.8 L 653.0,-696.4 L 645.7,-699.0 L 644.0,-700.0 L 643.3,-700.7 L 643.4,-701.5 L 644.3,-702.7 L 650.7,-705.3 L 652.1,-707.2 L 650.8,-708.2 L 634.4,-709.9 L 631.6,-711.1 L 634.7,-712.9 L 633.2,-713.3 L 632.3,-713.8 L 631.9,-714.4 L 632.7,-718.7 L 639.6,-721.5 L 641.8,-724.4 L 642.6,-725.0 L 644.3,-725.4 L 661.3,-727.0 L 665.9,-727.0 L 668.7,-726.2 L 669.1,-725.2 L 668.1,-723.4 L 668.9,-722.5 L 676.3,-721.6 L 679.8,-720.3 L 681.8,-720.0 L 684.1,-719.9 L 690.3,-720.1 L 703.1,-718.9 L 706.4,-719.1 L 707.8,-719.9 L 708.9,-720.6 L 710.3,-722.7 L 710.4,-725.0 L 709.1,-726.7 L 705.4,-727.8 L 697.7,-728.1 L 694.5,-729.4 L 693.0,-731.0 L 697.5,-733.6 L 698.4,-736.6 L 701.5,-737.3 L 703.6,-738.4 L 701.6,-742.2 L 705.5,-743.8 L 706.6,-744.4 L 707.2,-745.2 L 708.1,-748.0 L 714.0,-746.4 L 721.4,-746.1 L 739.6,-747.8 L 742.8,-748.0 L 745.5,-747.7 L 759.2,-744.9 L 761.0,-744.0 L 755.3,-741.9 L 756.3,-741.1 L 758.3,-741.1 L 762.0,-741.5 L 764.1,-741.3 L 769.3,-740.3 L 776.3,-740.6 L 782.8,-739.2 L 793.6,-740.0 L 805.4,-739.6 L 807.9,-740.5 L 811.9,-742.8 L 815.4,-743.6 L 815.7,-745.3 L 819.1,-748.1 L 821.0,-751.2 L 822.4,-752.3 L 834.0,-756.2 L 837.2,-756.8 L 849.6,-758.2 L 862.2,-758.9 L 868.6,-758.4 L 874.1,-757.5 L 879.6,-757.4 L 887.1,-760.1 L 888.7,-760.5 L 890.5,-760.6 L 893.6,-760.4 L 899.9,-759.0 L 912.8,-760.0 L 928.4,-759.3 L 934.2,-757.8 L 937.6,-757.4 L 945.2,-759.0 L 953.3,-759.4 L 959.5,-761.1 L 967.1,-762.5 L 975.0,-763.4 L 987.8,-763.6 L 1005.9,-766.8 L 1008.9,-767.0 L 1017.4,-767.5 L 1021.6,-767.0 L 1021.6,-765.9 L 1021.5,-764.7 L 1017.7,-763.0 L 1006.9,-760.9 L 1005.0,-759.4 L 1008.0,-755.5 L 1009.2,-754.5 L 1010.4,-753.6 L 1010.4,-752.8 L 1007.8,-751.9 L 1015.9,-751.1 L 1020.0,-749.4 L 1022.5,-749.1 L 1030.0,-749.0 L 1032.8,-748.3 L 1034.5,-746.4 L 1034.5,-745.3 L 1032.9,-743.1 L 1032.8,-741.9 L 1033.3,-741.3 L 1034.3,-741.0 L 1036.0,-740.6 L 1039.8,-740.1 L 1043.5,-739.9 L 1046.5,-739.2 L 1048.0,-737.3 L 1051.4,-734.5 L 1057.6,-732.6 L 1064.9,-731.6 L 1069.2,-731.3 L 1074.6,-731.0 L 1080.1,-729.7 L 1083.1,-729.3 L 1085.7,-729.2 L 1096.2,-729.6 L 1105.0,-729.3 L 1111.6,-728.0 L 1117.6,-728.5 L 1119.1,-728.3 L 1123.6,-727.8 L 1133.8,-725.5 L 1175.7,-724.5 L 1190.4,-723.3 L 1201.8,-720.9 L 1205.6,-720.4 L 1212.8,-720.3 L 1231.0,-721.6 L 1238.9,-721.2 L 1249.8,-721.4 L 1254.9,-720.0 L 1262.5,-719.9 L 1284.2,-717.5 L 1286.9,-717.4 L 1289.7,-717.6 L 1289.7,-716.9 L 1289.4,-716.2 L 1288.7,-715.7 L 1287.7,-715.2 L 1287.5,-713.0 L 1287.0,-712.6 L 1285.5,-711.6 L 1282.2,-711.0 L 1277.7,-711.0 L 1271.7,-710.7 L 1259.1,-705.9 L 1250.8,-704.4 L 1246.5,-703.4 L 1244.3,-703.0 L 1241.9,-702.9 L 1234.3,-698.3 L 1229.6,-697.3 L 1231.0,-696.4 L 1232.0,-695.3 L 1233.1,-693.1 L 1235.5,-692.0 L 1236.1,-690.8 L 1237.6,-690.0 L 1242.5,-690.3 L 1239.9,-691.8 L 1242.7,-691.5 L 1248.1,-691.4 L 1250.6,-690.9 L 1255.6,-690.5 L 1258.9,-689.7 L 1264.3,-687.9 L 1278.3,-687.6 L 1279.0,-686.8 L 1279.7,-685.9 L 1274.6,-682.7 L 1257.8,-678.3 L 1254.6,-677.5 L 1250.6,-675.6 L 1252.0,-675.1 L 1252.4,-674.5 L 1251.9,-673.9 L 1246.9,-672.2 L 1255.4,-668.7 L 1260.8,-668.9 L 1272.7,-670.3 L 1275.7,-668.7 L 1274.4,-666.8 L 1273.1,-665.1 L 1271.5,-663.9 L 1266.1,-659.7 L 1265.5,-656.6 L 1267.0,-655.6 L 1268.3,-654.8 L 1273.3,-653.8 L 1279.4,-653.6 L 1282.4,-653.2 L 1289.5,-651.3 L 1291.2,-650.9 L 1303.7,-649.0 L 1317.9,-640.6 L 1324.4,-639.1 L 1323.1,-637.9 L 1319.6,-636.5 L 1316.0,-634.9 L 1307.6,-634.6 L 1300.5,-635.9 L 1291.7,-635.7 L 1292.9,-636.3 L 1295.0,-637.4 L 1308.9,-637.5 L 1306.7,-637.8 L 1305.0,-638.4 L 1303.4,-639.4 L 1296.6,-640.6 L 1299.9,-641.1 L 1299.2,-642.7 L 1296.6,-644.4 L 1294.3,-645.4 L 1280.1,-650.6 L 1276.8,-651.5 L 1267.0,-653.0 L 1262.9,-653.3 L 1259.9,-652.4 L 1258.1,-650.4 L 1258.8,-648.7 L 1263.6,-648.4 L 1257.0,-647.3 L 1256.1,-647.0 L 1255.1,-646.4 L 1250.2,-646.1 L 1248.2,-645.7 L 1245.1,-644.6 L 1240.8,-643.4 L 1236.1,-642.9 L 1231.7,-643.6 L 1234.2,-643.9 L 1237.5,-644.3 L 1240.3,-645.0 L 1241.4,-645.7 L 1239.9,-647.2 L 1232.5,-647.8 L 1230.3,-649.1 L 1227.2,-648.7 L 1209.8,-650.1 L 1202.8,-652.1 L 1200.9,-652.0 L 1194.5,-651.2 L 1192.4,-649.9 L 1191.0,-649.7 L 1189.2,-650.0 L 1187.7,-651.2 L 1185.5,-651.5 L 1184.0,-651.1 L 1183.6,-650.3 L 1184.2,-649.4 L 1186.2,-649.1 L 1186.2,-648.4 L 1182.2,-648.3 L 1178.6,-647.6 L 1176.6,-646.3 L 1177.6,-644.8 L 1180.6,-644.2 L 1184.2,-644.4 L 1191.0,-645.4 L 1188.9,-644.2 L 1182.6,-642.4 L 1181.3,-640.9 L 1181.3,-640.9 L 1179.4,-640.0 L 1154.1,-638.8 L 1124.9,-632.2 L 1094.6,-627.1 L 1076.9,-624.8 L 1073.9,-623.9 L 1072.4,-623.6 L 1065.9,-623.1 L 1061.0,-622.0 L 1058.6,-621.8 L 1063.1,-625.2 L 1062.3,-626.0 L 1064.0,-625.9 L 1065.2,-626.1 L 1065.9,-626.5 L 1065.9,-627.3 L 1067.1,-627.3 L 1068.0,-626.5 L 1068.7,-626.2 L 1069.6,-626.2 L 1070.8,-626.6 L 1068.4,-627.8 L 1074.1,-628.0 L 1075.8,-627.3 L 1075.2,-627.3 L 1073.4,-627.3 L 1073.4,-626.6 L 1077.3,-626.8 L 1078.3,-627.9 L 1078.5,-629.1 L 1080.1,-629.7 L 1083.2,-629.8 L 1085.8,-630.2 L 1087.8,-631.0 L 1089.3,-632.1 L 1081.3,-630.6 L 1077.9,-631.9 L 1076.5,-632.7 L 1075.8,-633.9 L 1072.0,-633.2 L 1067.2,-631.7 L 1064.2,-630.1 L 1065.9,-629.0 L 1065.9,-628.5 L 1063.0,-628.5 L 1059.9,-629.5 L 1058.6,-629.0 L 1057.4,-629.0 L 1056.1,-630.9 L 1053.9,-629.5 L 1055.0,-628.7 L 1061.0,-627.8 L 1061.0,-627.3 L 1058.8,-626.9 L 1055.5,-626.7 L 1053.2,-627.0 L 1053.7,-627.8 L 1047.8,-627.9 L 1040.5,-626.5 L 1033.9,-624.2 L 1030.3,-621.8 L 1030.3,-621.3 L 1031.5,-621.3 L 1029.9,-620.4 L 1029.2,-619.6 L 1029.6,-618.8 L 1031.5,-618.2 L 1029.7,-617.3 L 1029.0,-615.2 L 1025.2,-614.5 L 1026.7,-613.4 L 1024.6,-612.2 L 1023.8,-611.2 L 1022.5,-610.6 L 1018.7,-610.3 L 1016.3,-610.7 L 1014.3,-611.2 L 1012.7,-611.0 L 1011.8,-609.1 L 1013.7,-608.3 L 1015.3,-606.4 L 1017.4,-606.1 L 1019.4,-606.5 L 1020.8,-607.5 L 1021.2,-608.7 L 1020.4,-609.7 L 1024.0,-609.2 L 1025.3,-605.5 L 1023.4,-605.2 L 1022.9,-604.7 L 1023.6,-604.2 L 1025.3,-603.6 L 1024.7,-602.4 L 1026.4,-601.3 L 1029.4,-600.7 L 1032.8,-600.6 L 1031.5,-601.2 L 1040.1,-603.6 L 1038.5,-602.3 L 1042.6,-598.5 L 1042.7,-595.5 L 1043.9,-592.2 L 1042.1,-592.4 L 1040.1,-592.8 L 1040.1,-594.6 L 1038.3,-592.7 L 1038.2,-591.1 L 1040.0,-590.2 L 1043.9,-590.3 L 1042.6,-591.5 L 1046.1,-590.5 L 1052.5,-586.7 L 1052.5,-586.1 L 1048.7,-585.4 L 1051.1,-584.2 L 1053.8,-585.6 L 1054.3,-586.7 L 1053.2,-587.8 L 1051.1,-589.1 L 1059.1,-587.0 L 1058.6,-586.1 L 1064.7,-584.2 L 1068.3,-582.5 L 1072.2,-581.2 L 1074.5,-581.8 L 1072.1,-581.8 L 1072.1,-582.5 L 1075.1,-582.5 L 1077.6,-582.2 L 1079.6,-581.5 L 1080.7,-580.6 L 1080.5,-579.8 L 1078.8,-578.8 L 1079.5,-578.2 L 1076.9,-576.4 L 1075.8,-576.4 L 1074.5,-576.3 L 1072.4,-571.1 L 1070.0,-569.6 L 1064.7,-567.4 L 1061.0,-570.4 L 1063.7,-572.4 L 1064.4,-573.5 L 1063.6,-574.5 L 1061.5,-574.9 L 1059.5,-574.4 L 1058.0,-573.7 L 1057.4,-573.1 L 1055.3,-571.6 L 1055.2,-570.8 L 1059.7,-570.1 L 1059.6,-569.4 L 1058.2,-568.8 L 1056.1,-568.5 L 1056.1,-567.9 L 1061.0,-567.4 L 1059.6,-565.9 L 1056.4,-565.0 L 1052.4,-564.9 L 1039.3,-569.4 L 1037.4,-569.4 L 1032.8,-567.9 L 1032.8,-567.4 L 1035.2,-567.4 L 1030.5,-561.3 L 1029.2,-557.8 L 1030.3,-554.0 L 1036.3,-548.1 L 1035.2,-541.9 L 1035.9,-538.0 L 1041.4,-529.1 L 1042.1,-526.8 L 1046.4,-524.0 L 1046.7,-522.1 L 1047.8,-520.3 L 1051.1,-517.0 L 1054.9,-514.6 L 1059.8,-512.2 L 1067.1,-509.6 L 1070.8,-507.2 L 1076.6,-505.0 L 1083.1,-503.1 L 1087.9,-502.4 L 1098.2,-497.5 L 1103.4,-495.6 L 1108.9,-494.1 L 1120.5,-492.4 L 1129.1,-492.0 L 1132.5,-491.2 L 1139.5,-489.2 L 1151.4,-487.4 L 1153.2,-486.5 L 1154.7,-485.8 L 1209.5,-468.7 L 1230.5,-464.0 L 1234.0,-463.5 L 1235.8,-462.7 L 1244.2,-461.6 L 1249.0,-460.6 L 1254.5,-462.4 L 1255.6,-462.5 L 1256.6,-462.3 L 1257.1,-461.9 L 1257.5,-461.5 L 1258.1,-461.4 L 1261.5,-460.7 L 1267.9,-457.1 L 1271.3,-456.8 L 1274.4,-456.0 L 1276.0,-454.9 L 1274.7,-453.5 L 1300.3,-429.8 L 1303.2,-428.0 L 1303.9,-427.4 L 1305.1,-424.2 L 1305.8,-423.5 L 1308.0,-422.3 L 1313.7,-417.8 L 1316.2,-414.6 L 1319.2,-407.2 L 1326.4,-397.8 L 1333.4,-388.7 L 1339.8,-382.7 L 1343.5,-379.9 L 1354.6,-373.4 L 1355.6,-372.0 L 1356.8,-371.1 L 1382.8,-359.7 L 1394.2,-356.0 L 1407.1,-352.9 L 1412.7,-351.1 L 1420.1,-346.6 L 1443.6,-338.1 L 1450.0,-336.6 L 1460.3,-335.0 L 1467.5,-334.5 L 1470.3,-333.6 L 1471.7,-332.3 L 1472.7,-328.6 L 1473.9,-326.9 L 1476.0,-325.6 L 1483.0,-324.8 L 1486.5,-324.0 L 1492.9,-322.0 L 1499.3,-321.0 L 1513.8,-320.0 L 1521.3,-319.1 L 1530.5,-315.4 L 1533.7,-315.0 L 1541.1,-313.0 L 1544.5,-312.3 L 1548.1,-312.1 L 1552.0,-311.8 L 1572.9,-311.8 L 1594.1,-310.0 L 1602.3,-309.9 L 1631.9,-311.8 L 1661.1,-311.2 L 1706.3,-313.2 L 1726.7,-311.1 L 1730.3,-308.7 L 1733.6,-308.7 L 1733.0,-307.3 L 1736.1,-301.2 L 1736.0,-299.7 L 1734.5,-298.7 L 1731.3,-297.2 L 1727.6,-295.9 L 1724.3,-295.4 L 1720.7,-295.0 L 1717.6,-293.9 L 1712.8,-291.8 L 1706.4,-289.9 L 1688.1,-286.3 L 1683.6,-284.1 L 1682.0,-280.7 L 1682.9,-277.2 L 1685.7,-274.2 L 1689.6,-272.1 L 1694.5,-270.4 L 1705.4,-267.6 L 1716.7,-266.2 L 1719.5,-265.4 L 1721.9,-264.5 L 1755.5,-258.7 L 1783.9,-253.0 L 1794.7,-251.9 L 1807.9,-248.1 L 1850.3,-242.7 L 1854.0,-241.5 L 1855.2,-241.5 L 1855.2,-242.2 L 1856.3,-242.2 L 1860.0,-240.7 L 1890.8,-237.0 L 1917.0,-231.6 L 1930.1,-228.0 L 1936.1,-225.8 L 1942.9,-222.0 L 1945.3,-221.5 L 1948.2,-221.1 L 1954.7,-219.3 L 1965.9,-214.8 L 1968.7,-214.3 L 1972.3,-213.9 L 1978.8,-212.3 L 1994.2,-210.8 L 1996.2,-210.3 L 2014.6,-207.5 L 2031.7,-202.7 L 2045.7,-201.8 L 2051.8,-200.6 L 2051.6,-198.6 L 2053.7,-198.6 L 2058.3,-199.1 L 2061.0,-198.9 L 2062.5,-196.6 L 2066.7,-195.1 L 2067.4,-194.6 L 2066.4,-190.6 L 2081.2,-186.0 L 2097.6,-182.5 L 2101.2,-182.2 L 2102.4,-181.8 L 2106.1,-179.5 L 2108.1,-178.6 L 2114.0,-176.7 L 2118.6,-173.8 L 2121.3,-172.5 L 2124.4,-171.9 L 2126.1,-171.3 L 2138.0,-165.1 L 2149.3,-154.9 L 2152.1,-153.7 L 2151.2,-152.7 L 2151.7,-152.0 L 2152.4,-151.5 L 2152.1,-150.6 L 2150.7,-149.8 L 2147.8,-148.9 L 2146.3,-146.3 L 2144.0,-145.2 L 2137.4,-143.4 L 2133.4,-139.5 L 2130.0,-134.0 L 2131.3,-131.7 L 2131.4,-130.7 L 2128.9,-126.0 L 2129.4,-125.2 L 2125.7,-123.4 L 2121.8,-123.5 L 2120.3,-123.7 L 2118.9,-124.0 L 2110.2,-126.7 L 2097.5,-127.2 L 2093.1,-128.3 L 2088.7,-129.1 L 2083.1,-131.1 L 2072.5,-133.6 L 2061.0,-140.2 L 2058.9,-141.0 L 2058.9,-141.6 L 2061.7,-141.7 L 2063.3,-142.3 L 2063.7,-143.3 L 2062.5,-144.6 L 2060.6,-145.4 L 2055.8,-146.0 L 2053.9,-146.5 L 2060.2,-148.0 L 2061.7,-149.9 L 2059.2,-152.0 L 2046.5,-157.0 L 2045.3,-158.3 L 2045.2,-159.9 L 2044.8,-161.4 L 2043.8,-162.6 L 2041.7,-163.4 L 2044.1,-163.4 L 2044.1,-164.0 L 2035.2,-166.6 L 2032.4,-167.0 L 1972.3,-168.2 L 1969.1,-168.6 L 1959.5,-170.6 L 1952.1,-170.6 L 1946.5,-172.5 L 1918.7,-177.3 L 1916.5,-178.5 L 1920.6,-179.3 L 1924.1,-180.4 L 1925.0,-181.8 L 1921.4,-183.3 L 1924.9,-183.8 L 1933.6,-183.2 L 1937.2,-184.0 L 1938.5,-185.4 L 1935.1,-185.5 L 1927.5,-184.6 L 1927.8,-184.8 L 1928.7,-185.2 L 1924.9,-185.8 L 1914.6,-184.0 L 1913.2,-184.3 L 1910.4,-186.4 L 1908.5,-186.7 L 1889.5,-187.3 L 1876.3,-184.9 L 1864.9,-180.7 L 1856.1,-175.9 L 1841.7,-168.0 L 1837.9,-165.2 L 1833.6,-160.0 L 1832.4,-159.1 L 1829.7,-158.5 L 1823.2,-154.3 L 1816.1,-151.9 L 1813.3,-150.9 L 1809.8,-148.9 L 1808.4,-145.5 L 1808.8,-144.4 L 1811.4,-141.1 L 1814.6,-138.4 L 1812.9,-137.3 L 1809.9,-136.4 L 1807.0,-134.3 L 1798.6,-131.3 L 1792.5,-127.0 L 1789.6,-124.2 L 1789.2,-121.5 L 1791.4,-119.0 L 1796.2,-116.8 L 1796.2,-116.2 L 1793.8,-114.0 L 1799.3,-111.4 L 1807.4,-109.3 L 1813.4,-108.3 L 1835.8,-107.8 L 1841.6,-107.1 L 1844.4,-106.4 L 1847.7,-105.3 L 1853.1,-101.9 L 1863.8,-99.8 L 1872.2,-97.1 L 1882.7,-96.0 L 1890.8,-92.1 L 1896.5,-90.4 L 1902.8,-89.2 L 1909.0,-88.9 L 1902.5,-82.9 L 1901.2,-78.0 L 1901.1,-76.8 L 1901.7,-75.6 L 1902.9,-74.6 L 1906.0,-72.7 L 1906.7,-71.6 L 1905.7,-68.8 L 1902.5,-63.7 L 1902.9,-61.1 L 1909.0,-56.6 L 1915.1,-55.8 L 1917.6,-55.6 L 1914.1,-54.7 L 1912.2,-54.1 L 1911.5,-53.5 L 1911.3,-50.0 L 1911.5,-49.5 L 1903.5,-46.7 L 1901.9,-45.9 L 1899.2,-44.1 L 1897.6,-45.9 L 1893.2,-46.2 L 1888.2,-45.6 L 1884.5,-44.7 L 1879.9,-46.8 L 1877.2,-47.5 L 1872.9,-47.7 L 1869.0,-47.6 L 1851.7,-45.8 L 1831.8,-42.3 L 1824.7,-40.3 L 1823.2,-39.6 L 1821.6,-38.9 L 1810.9,-36.8 L 1806.4,-35.2 L 1804.4,-34.0 L 1802.5,-31.5 L 1800.2,-30.2 L 1798.0,-28.6 L 1797.3,-26.5 L 1799.4,-25.9 L 1799.8,-25.6 L 1799.7,-24.0 L 1801.6,-17.3 L 1804.8,-11.4 L 1804.9,-9.1 L 1803.5,-2.6 L 1802.0,-1.4 L 1795.0,1.1 L 1792.5,2.5 L 1790.6,2.7 L 1785.1,4.5 L 1779.4,5.3 L 1762.4,8.8 L 1756.4,10.9 L 1731.8,22.7 L 1728.7,25.6 L 1724.0,34.9 L 1721.3,37.7 L 1719.6,38.8 L 1717.6,39.8 L 1715.3,40.7 L 1712.8,41.3 L 1704.3,42.0 L 1701.7,42.5 L 1691.1,41.3 L 1658.8,42.0 L 1654.0,41.4 L 1649.2,40.6 L 1645.0,39.5 L 1641.6,38.3 L 1638.0,36.4 L 1636.1,34.5 L 1636.7,32.9 L 1640.3,31.6 L 1635.7,28.8 L 1634.2,27.2 L 1634.8,25.9 L 1637.3,24.2 L 1638.4,22.7 L 1635.7,15.9 L 1638.9,14.0 L 1644.9,13.0 L 1663.2,10.8 L 1668.0,8.8 L 1668.6,8.3 L 1671.0,4.3 L 1684.4,-6.5 L 1686.8,-10.3 L 1686.5,-13.3 L 1683.6,-15.8 L 1678.3,-18.0 L 1673.6,-19.3 L 1672.0,-20.2 L 1671.7,-20.7 L 1672.0,-21.1 L 1672.2,-22.0 L 1673.6,-23.0 L 1677.0,-23.7 L 1684.4,-24.7 L 1695.8,-27.6 L 1702.0,-28.8 L 1710.2,-29.0 L 1723.1,-28.4 L 1725.9,-28.6 L 1728.8,-29.2 L 1733.6,-30.8 L 1737.5,-33.3 L 1740.0,-36.6 L 1741.2,-40.4 L 1740.9,-44.1 L 1739.9,-45.9 L 1738.1,-47.2 L 1735.5,-48.0 L 1731.8,-48.3 L 1729.1,-49.0 L 1726.5,-50.7 L 1716.4,-59.7 L 1709.0,-80.5 L 1707.6,-83.5 L 1700.7,-91.8 L 1694.0,-95.2 L 1689.5,-98.4 L 1684.4,-100.4 L 1679.3,-101.8 L 1677.8,-102.9 L 1672.2,-110.7 L 1668.5,-113.0 L 1666.8,-114.5 L 1663.7,-123.4 L 1663.7,-122.9 L 1662.8,-124.6 L 1660.2,-126.4 L 1662.4,-129.8 L 1661.1,-131.8 L 1655.2,-135.2 L 1653.9,-136.4 L 1652.8,-138.2 L 1650.1,-139.7 L 1644.0,-142.2 L 1639.1,-145.3 L 1635.3,-146.5 L 1634.3,-147.1 L 1634.2,-148.3 L 1631.7,-147.9 L 1618.2,-148.3 L 1614.3,-147.4 L 1611.1,-145.5 L 1604.7,-144.0 L 1599.3,-141.4 L 1595.8,-140.9 L 1587.0,-141.3 L 1583.8,-141.8 L 1578.7,-144.4 L 1576.6,-144.6 L 1574.9,-144.3 L 1573.1,-144.0 L 1571.1,-143.9 L 1569.2,-144.0 L 1569.2,-144.6 L 1572.4,-145.6 L 1569.6,-147.9 L 1564.3,-150.2 L 1559.9,-151.3 L 1556.4,-151.9 L 1545.2,-156.4 L 1542.6,-156.8 L 1539.6,-156.7 L 1534.2,-156.1 L 1530.8,-156.3 L 1528.6,-156.9 L 1526.5,-158.7 L 1522.9,-160.0 L 1518.1,-160.8 L 1516.4,-161.2 L 1514.7,-161.9 L 1511.3,-161.5 L 1508.4,-162.4 L 1506.5,-162.7 L 1505.7,-164.2 L 1510.2,-166.6 L 1511.5,-168.5 L 1510.3,-170.1 L 1510.3,-170.9 L 1521.4,-173.1 L 1522.5,-174.0 L 1522.1,-176.5 L 1518.1,-179.5 L 1502.5,-192.0 L 1497.6,-195.1 L 1492.9,-197.3 L 1488.3,-199.1 L 1483.3,-200.6 L 1478.0,-201.2 L 1472.2,-200.3 L 1466.9,-198.8 L 1464.7,-198.5 L 1455.4,-198.8 L 1453.1,-198.5 L 1445.6,-196.0 L 1440.8,-195.6 L 1435.8,-196.2 L 1430.4,-197.3 L 1427.7,-196.6 L 1418.9,-195.8 L 1415.2,-194.6 L 1407.0,-193.0 L 1404.6,-191.8 L 1402.4,-193.0 L 1402.0,-194.9 L 1403.8,-196.6 L 1412.7,-197.7 L 1414.6,-198.3 L 1415.8,-199.4 L 1422.8,-202.0 L 1428.6,-202.8 L 1429.2,-204.3 L 1428.2,-205.9 L 1425.8,-207.2 L 1422.6,-208.1 L 1418.7,-207.8 L 1415.9,-208.3 L 1413.9,-208.7 L 1396.0,-215.5 L 1392.7,-215.6 L 1387.8,-215.4 L 1383.3,-214.9 L 1381.4,-213.9 L 1379.7,-212.2 L 1375.9,-212.2 L 1372.9,-213.5 L 1367.5,-213.7 L 1363.3,-214.7 L 1360.5,-215.1 L 1358.1,-214.9 L 1356.9,-214.1 L 1358.1,-210.6 L 1356.8,-210.9 L 1351.8,-211.2 L 1350.7,-211.8 L 1352.6,-215.4 L 1351.2,-218.7 L 1347.1,-222.9 L 1337.1,-229.4 L 1330.8,-231.0 L 1328.6,-231.9 L 1327.3,-235.5 L 1322.6,-239.0 L 1316.7,-242.8 L 1305.8,-248.0 L 1293.5,-252.1 L 1291.1,-252.4 L 1285.7,-251.9 L 1283.0,-251.9 L 1281.8,-252.7 L 1270.6,-252.1 L 1265.1,-250.8 L 1267.2,-248.2 L 1261.6,-248.0 L 1259.9,-248.2 L 1256.3,-250.1 L 1255.0,-249.4 L 1253.7,-249.4 L 1250.2,-250.9 L 1222.3,-255.8 L 1215.4,-255.9 L 1200.9,-254.8 L 1197.7,-254.3 L 1191.3,-252.8 L 1184.7,-251.9 L 1180.4,-249.8 L 1176.4,-249.4 L 1172.2,-249.9 L 1168.4,-253.9 L 1160.5,-259.0 L 1150.5,-263.3 L 1145.1,-265.1 L 1139.5,-266.3 L 1135.8,-266.7 L 1121.7,-267.0 L 1119.1,-267.2 L 1106.6,-270.2 L 1102.2,-270.9 L 1100.1,-270.3 L 1098.9,-269.3 L 1096.0,-270.3 L 1082.8,-277.9 L 1065.3,-285.5 L 1046.5,-291.8 L 1043.7,-292.6 L 1038.9,-293.2 L 1036.1,-294.0 L 1027.9,-294.8 L 1025.1,-296.1 L 1023.6,-297.6 L 1022.0,-302.9 L 1019.9,-304.7 L 1015.6,-307.5 L 1011.5,-309.6 L 994.0,-314.6 L 992.0,-315.1 L 990.4,-315.7 L 989.8,-316.9 L 988.7,-317.5 L 983.6,-317.8 L 981.9,-318.1 L 979.5,-319.1 L 976.6,-320.1 L 973.4,-320.9 L 970.2,-321.5 L 956.4,-321.4 L 954.2,-321.2 L 953.2,-322.3 L 950.9,-324.0 L 948.1,-325.6 L 945.6,-326.3 L 944.2,-327.5 L 940.3,-329.4 L 937.8,-333.1 L 928.1,-340.4 L 923.9,-342.8 L 902.5,-349.0 L 893.6,-349.9 L 881.3,-352.3 L 876.9,-352.9 L 876.9,-353.5 L 875.3,-353.9 L 873.4,-354.1 L 871.5,-354.2 L 869.5,-354.1 L 870.8,-353.5 L 865.6,-353.5 L 852.4,-355.3 L 843.8,-355.2 L 842.6,-354.5 L 842.0,-353.1 L 839.3,-351.7 L 838.9,-350.5 L 837.3,-350.8 L 833.9,-350.5 L 832.4,-351.0 L 830.1,-352.1 L 825.1,-352.7 L 822.9,-353.7 L 821.5,-355.1 L 821.5,-356.1 L 823.7,-357.3 L 826.2,-357.6 L 831.4,-356.9 L 835.4,-357.0 L 838.2,-358.5 L 839.7,-360.6 L 839.8,-362.7 L 839.4,-364.2 L 835.7,-366.4 L 834.4,-368.0 L 829.0,-367.5 L 826.7,-368.7 L 825.2,-370.3 L 823.4,-371.8 L 820.5,-372.3 L 819.9,-374.0 L 815.5,-375.3 L 807.0,-377.2 L 804.2,-380.9 L 795.9,-383.8 L 786.4,-385.6 L 757.8,-389.2 L 762.2,-390.5 L 763.9,-392.0 L 764.1,-393.6 L 764.0,-395.7 L 766.2,-397.2 L 765.3,-398.4 L 763.6,-399.3 L 761.3,-399.9 L 748.9,-402.0 L 740.1,-402.8 L 731.3,-403.0 L 723.4,-402.0 L 724.2,-401.1 L 724.8,-400.7 L 719.7,-399.9 L 716.3,-401.3 L 712.4,-405.6 L 716.9,-407.0 L 719.5,-408.6 L 723.4,-413.5 L 722.8,-414.6 L 722.8,-416.5 L 723.5,-418.4 L 724.8,-419.5 L 723.3,-421.0 L 722.6,-422.9 L 722.3,-426.5 L 721.5,-428.3 L 719.5,-430.1 L 705.1,-440.9 L 693.7,-446.6 L 691.2,-447.6 L 685.3,-448.7 L 683.7,-450.0 L 679.7,-456.8 L 674.2,-478.0 L 671.9,-481.3 L 664.5,-487.8 L 659.2,-490.9 L 651.3,-493.0 L 645.8,-496.4 L 643.1,-497.1 L 639.8,-497.5 L 633.2,-499.1 L 624.8,-500.2 L 624.0,-499.8 L 623.4,-499.3 L 622.0,-498.9 L 620.2,-498.8 L 606.8,-503.1 L 604.8,-502.6 L 599.1,-504.5 L 595.8,-504.4 L 597.0,-503.7 L 594.6,-503.1 L 595.4,-502.4 L 596.5,-501.9 L 597.9,-501.5 L 599.6,-501.3 L 599.6,-500.7 L 597.0,-499.5 L 599.3,-499.0 L 598.7,-498.5 L 596.8,-498.6 L 595.8,-499.8 L 594.6,-500.5 L 586.0,-501.9 L 570.0,-507.0 L 559.0,-508.0 L 552.8,-510.6 L 551.6,-510.7 L 550.4,-511.8 L 537.1,-514.5 L 535.5,-515.3 L 534.5,-516.4 L 532.4,-516.1 L 529.1,-515.9 L 526.0,-516.0 L 524.6,-516.7 L 523.4,-517.6 L 514.8,-518.9 L 513.6,-520.9 L 494.8,-524.6 L 489.1,-526.1 L 487.4,-525.3 L 486.0,-524.4 L 485.3,-523.2 L 485.5,-521.9 L 477.3,-523.0 L 474.0,-523.9 L 474.4,-524.9 L 471.1,-527.0 L 466.0,-527.9 L 448.0,-529.1 L 439.3,-530.2 L 434.1,-531.3 L 432.5,-531.0 L 424.2,-531.1 L 420.1,-531.4 L 418.7,-531.8 L 416.8,-532.7 L 405.2,-533.1 L 400.7,-532.8 L 390.2,-529.8 L 386.0,-529.8 L 375.0,-526.9 L 371.9,-526.7 L 369.8,-526.4 L 365.4,-524.9 L 352.1,-521.8 L 348.3,-520.0 L 349.2,-518.2 L 347.4,-517.3 L 346.8,-516.8 L 346.6,-516.1 L 342.4,-514.9 L 341.5,-513.9 L 341.8,-512.9 L 341.8,-512.0 L 339.3,-511.0 L 334.8,-510.2 L 324.8,-509.1 L 319.6,-508.0 L 316.9,-507.1 L 314.6,-506.2 L 310.4,-504.0 L 309.8,-501.3 L 308.7,-499.9 L 307.4,-498.9 L 298.9,-495.5 L 296.0,-493.4 L 298.7,-491.6 L 298.7,-491.0 L 294.6,-490.7 L 289.3,-488.5 L 284.6,-487.8 L 283.3,-487.4 L 282.2,-486.9 L 281.7,-486.5 L 280.8,-485.8 L 278.6,-485.3 L 274.3,-484.9 L 261.4,-481.9 L 230.3,-479.2 L 221.5,-477.1 L 214.0,-476.4 L 192.0,-476.4 L 187.0,-475.8 L 179.5,-476.5 L 176.0,-480.8 L 175.1,-483.0 L 177.9,-484.8 L 185.7,-487.9 L 189.3,-489.9 L 198.6,-492.7 L 202.6,-494.3 L 206.6,-498.4 L 213.1,-500.8 L 213.5,-502.4 L 212.8,-502.9 L 210.7,-504.5 L 206.7,-505.9 L 204.5,-507.6 L 207.0,-510.4 L 201.4,-510.8 L 194.1,-509.1 L 188.9,-508.9 L 157.8,-505.7 L 150.6,-505.8 L 148.8,-506.0 L 147.2,-506.5 L 146.2,-507.3 L 144.9,-507.9 L 134.6,-509.0 L 115.5,-513.2 L 108.3,-514.1 L 97.8,-516.1 L 95.5,-516.4 L 88.9,-515.9 L 86.5,-516.2 L 84.8,-516.9 L 82.3,-519.4 L 75.4,-521.6 L 70.9,-524.9 L 67.0,-526.6 L 66.2,-527.0 L 65.6,-527.8 L 65.6,-528.2 L 66.1,-528.7 L 67.6,-531.5 L 68.8,-532.3 L 74.8,-533.4 L 70.1,-534.8 L 64.7,-536.9 L 60.7,-539.3 L 60.1,-542.1 L 62.0,-543.3 L 71.2,-545.7 L 77.3,-549.5 L 79.8,-550.2 L 77.8,-552.0 L 79.1,-553.8 L 82.4,-555.3 L 86.5,-556.1 L 99.4,-555.4 L 98.4,-556.6 L 93.0,-560.2 L 92.3,-560.9 L 91.3,-563.1 L 89.3,-565.0 L 90.6,-566.6 L 90.4,-568.1 L 89.7,-568.5 L 86.5,-569.7 L 77.5,-571.0 L 74.4,-571.1 L 65.6,-570.5 L 62.2,-570.8 L 49.8,-573.3 L 44.0,-575.1 L 40.8,-577.0 L 41.2,-581.9 L 40.0,-584.4 L 35.3,-585.6 L 29.1,-585.8 L 27.2,-586.4 L 25.0,-587.7 L 24.5,-589.8 L 21.5,-590.7 L 18.4,-592.4 L 23.8,-594.3 L 30.0,-595.6 L 36.2,-595.7 L 42.3,-597.2 L 48.6,-596.8 L 55.2,-595.5 L 61.6,-594.8 L 67.5,-595.7 L 67.8,-596.3 L 66.8,-596.7 L 65.9,-597.2 L 66.9,-597.9 L 74.1,-598.3 L 82.2,-601.8 L 88.6,-602.8 L 94.9,-603.4 L 99.5,-602.1 L 100.7,-602.6 L 104.1,-604.7 L 109.0,-606.2 L 109.0,-607.6 L 107.0,-609.3 L 106.1,-611.9 L 107.1,-612.4 L 112.9,-614.8 L 116.6,-617.1 L 118.1,-618.5 L 118.3,-619.6 L 106.9,-621.7 L 102.4,-624.8 L 94.7,-626.8 L 86.5,-628.4 L 85.1,-629.7 L 84.1,-633.4 L 81.1,-635.8 L 84.1,-638.6 L 83.0,-639.9 L 80.8,-640.4 L 75.0,-640.9 L 72.6,-641.6 L 68.5,-643.0 L 66.1,-643.3 L 61.4,-643.6 L 56.6,-644.8 L 53.0,-646.7 L 51.0,-650.4 L 50.5,-652.0 L 50.6,-653.5 L 51.6,-655.0 L 53.9,-656.3 L 56.6,-656.9 L 61.5,-657.4 L 65.3,-656.3 L 66.4,-656.5 L 66.9,-657.9 L 68.1,-658.0 L 72.6,-658.0 L 76.4,-658.4 L 80.4,-659.1 L 84.0,-660.1 L 89.0,-663.8 L 90.9,-664.6 Z M 1062.0,-485.3 L 1067.5,-485.6 L 1070.7,-487.6 L 1070.6,-487.8 L 1070.7,-488.1 L 1072.9,-489.5 L 1073.3,-491.0 L 1072.7,-492.5 L 1071.4,-493.3 L 1066.3,-493.0 L 1060.5,-492.0 L 1058.7,-491.3 L 1055.9,-490.3 L 1054.1,-488.2 L 1056.6,-486.3 Z M 1066.2,-309.5 Z M 985.0,138.2 L 991.8,140.8 L 994.3,142.2 L 994.7,144.3 L 990.6,146.6 L 984.4,146.3 L 978.1,144.5 L 973.9,142.4 L 973.1,141.8 L 971.6,140.3 L 971.1,138.9 L 975.4,137.7 L 976.4,137.6 L 977.5,137.8 L 979.2,138.6 L 982.8,139.3 L 983.8,139.2 Z M 1034.0,40.7 L 1036.5,40.8 L 1041.4,40.1 L 1042.6,40.6 L 1045.4,41.3 L 1048.6,41.8 L 1051.1,42.0 L 1049.1,42.9 L 1046.4,43.0 L 1043.5,42.6 L 1041.4,42.0 L 1038.7,42.5 L 1036.6,42.3 L 1035.0,41.6 Z M 1617.1,8.6 L 1622.6,8.8 L 1632.7,10.6 L 1639.1,11.0 L 1638.5,11.8 L 1637.4,12.2 L 1636.0,12.3 L 1634.2,12.2 L 1626.9,14.1 L 1624.4,15.3 L 1623.2,16.4 L 1622.7,17.7 L 1625.5,17.7 L 1616.8,23.3 L 1612.0,27.8 L 1592.7,37.5 L 1576.6,47.3 L 1573.2,50.1 L 1570.1,52.0 L 1565.6,53.4 L 1560.5,56.4 L 1559.4,57.6 L 1561.8,61.3 L 1561.1,62.2 L 1558.6,63.2 L 1558.0,64.0 L 1557.6,65.8 L 1551.7,73.6 L 1543.1,77.6 L 1539.7,80.0 L 1538.8,81.5 L 1538.4,83.1 L 1538.9,91.9 L 1539.7,93.3 L 1540.9,94.6 L 1542.2,95.3 L 1554.6,98.0 L 1561.3,98.5 L 1564.8,99.4 L 1567.5,100.9 L 1569.2,103.1 L 1566.2,102.0 L 1564.6,102.3 L 1563.4,103.4 L 1561.8,104.3 L 1562.1,102.7 L 1561.0,102.1 L 1559.2,102.1 L 1556.9,102.5 L 1558.0,103.6 L 1555.2,105.4 L 1557.3,108.1 L 1561.2,110.0 L 1564.2,109.2 L 1566.7,109.7 L 1566.7,110.3 L 1563.4,110.5 L 1563.9,111.8 L 1566.6,113.3 L 1576.7,114.8 L 1577.5,116.1 L 1576.6,118.2 L 1574.0,117.6 L 1572.9,118.3 L 1573.2,119.4 L 1574.7,120.0 L 1578.3,119.8 L 1579.9,120.2 L 1581.4,121.3 L 1581.9,122.7 L 1580.5,123.0 L 1578.7,122.6 L 1577.7,122.2 L 1576.7,122.3 L 1570.4,123.7 L 1571.6,124.3 L 1570.1,124.7 L 1569.6,124.9 L 1570.4,125.4 L 1570.4,126.1 L 1566.2,126.2 L 1553.7,128.7 L 1550.8,130.4 L 1541.7,139.6 L 1541.5,140.6 L 1539.2,141.4 L 1540.1,143.2 L 1543.4,146.1 L 1546.6,151.3 L 1546.4,152.4 L 1542.9,153.8 L 1539.2,154.2 L 1535.6,153.8 L 1528.3,150.8 L 1526.2,150.3 L 1523.7,150.0 L 1522.0,150.0 L 1521.3,150.6 L 1519.2,151.2 L 1514.7,150.4 L 1507.8,148.5 L 1501.3,147.5 L 1495.0,147.9 L 1483.1,150.3 L 1482.3,149.6 L 1481.8,149.3 L 1479.6,149.7 L 1476.6,148.5 L 1465.9,147.9 L 1463.6,146.4 L 1461.3,145.5 L 1450.8,143.9 L 1447.6,143.0 L 1444.6,143.3 L 1430.6,142.0 L 1428.5,141.0 L 1413.9,128.6 L 1409.5,126.1 L 1393.2,119.8 L 1380.6,116.6 L 1365.9,113.8 L 1359.2,113.3 L 1339.0,114.0 L 1332.3,115.2 L 1324.4,114.8 L 1313.3,111.4 L 1292.4,108.6 L 1286.6,107.0 L 1271.4,101.0 L 1266.1,99.6 L 1245.3,97.3 L 1223.2,91.4 L 1219.9,90.1 L 1214.0,88.9 L 1209.5,85.6 L 1208.5,85.2 L 1204.5,84.3 L 1202.5,83.2 L 1201.1,82.7 L 1199.0,82.5 L 1198.1,82.2 L 1196.3,81.0 L 1195.4,80.7 L 1173.4,79.5 L 1170.8,80.0 L 1168.9,80.1 L 1167.2,79.8 L 1166.0,78.9 L 1164.9,77.1 L 1164.2,76.4 L 1159.5,74.5 L 1153.9,73.5 L 1139.5,72.8 L 1124.9,73.0 L 1110.0,74.0 L 1103.2,73.8 L 1099.0,72.3 L 1091.6,67.3 L 1088.6,66.1 L 1086.0,65.6 L 1078.9,65.5 L 1075.7,64.9 L 1072.7,63.4 L 1070.0,61.6 L 1068.4,60.1 L 1066.8,56.6 L 1061.6,53.3 L 1061.6,52.2 L 1064.7,51.6 L 1065.0,52.0 L 1067.5,51.3 L 1068.4,51.0 L 1070.8,45.9 L 1070.5,45.4 L 1068.9,44.4 L 1068.4,43.7 L 1068.2,43.0 L 1072.9,39.4 L 1074.0,37.1 L 1075.2,35.6 L 1075.4,34.4 L 1073.4,33.5 L 1078.8,32.6 L 1083.5,30.5 L 1088.3,29.0 L 1094.0,29.8 L 1099.5,28.3 L 1101.8,27.3 L 1102.7,25.9 L 1103.7,25.1 L 1111.3,25.6 L 1115.0,24.2 L 1114.7,22.1 L 1114.0,19.8 L 1116.1,18.3 L 1117.2,19.4 L 1119.3,19.3 L 1121.4,19.4 L 1122.3,21.0 L 1126.7,25.0 L 1131.6,28.5 L 1140.7,30.8 L 1140.8,31.6 L 1146.5,32.9 L 1154.2,32.4 L 1169.1,29.8 L 1175.2,28.0 L 1176.7,27.3 L 1176.9,26.9 L 1176.0,24.5 L 1174.4,23.6 L 1174.0,22.8 L 1180.2,20.7 L 1179.2,19.9 L 1180.2,19.1 L 1182.3,18.6 L 1184.3,18.3 L 1186.1,18.5 L 1192.3,19.5 L 1196.3,19.8 L 1201.3,19.8 L 1205.4,19.0 L 1207.0,17.1 L 1209.7,17.4 L 1221.2,15.8 L 1222.1,16.1 L 1223.0,17.7 L 1229.8,19.5 L 1230.8,20.1 L 1231.0,22.9 L 1231.7,23.7 L 1234.3,26.2 L 1256.2,25.6 L 1261.1,27.0 L 1260.8,28.6 L 1261.1,29.4 L 1262.2,30.4 L 1264.0,31.0 L 1269.3,31.9 L 1275.7,34.0 L 1280.8,35.3 L 1289.2,35.9 L 1291.7,36.4 L 1290.5,37.1 L 1294.3,37.0 L 1305.8,37.7 L 1309.7,37.3 L 1317.7,35.6 L 1325.1,35.0 L 1332.3,32.8 L 1344.6,32.0 L 1347.0,31.0 L 1354.5,32.7 L 1358.2,33.2 L 1362.3,33.5 L 1364.9,33.4 L 1370.4,32.8 L 1392.2,34.0 L 1402.6,33.8 L 1412.2,32.7 L 1420.6,31.0 L 1426.4,32.1 L 1434.9,31.4 L 1456.9,28.1 L 1462.9,26.6 L 1467.9,24.7 L 1474.7,21.4 L 1476.7,21.1 L 1482.6,21.3 L 1486.2,21.2 L 1499.8,19.8 L 1505.7,18.8 L 1510.8,18.9 L 1512.5,19.3 L 1515.8,20.9 L 1517.0,21.3 L 1519.1,21.4 L 1523.7,21.9 L 1529.4,21.8 L 1531.2,21.9 L 1534.7,23.7 L 1538.1,24.0 L 1554.2,21.5 L 1558.8,19.2 L 1565.5,14.0 L 1565.0,13.4 L 1564.7,13.2 L 1564.8,12.9 L 1565.5,12.2 L 1564.9,11.9 L 1565.9,11.9 L 1566.5,12.9 L 1565.5,15.0 L 1566.3,16.2 L 1568.5,16.8 L 1571.5,17.0 L 1574.7,17.1 L 1579.9,16.7 L 1594.0,14.8 L 1597.9,13.7 L 1600.1,13.0 L 1607.1,11.7 L 1614.2,9.0 Z M 1516.4,-2.9 L 1516.4,-1.7 L 1519.2,-1.1 L 1521.3,-0.3 L 1522.7,0.8 L 1523.7,2.0 L 1522.1,2.6 L 1520.0,3.2 L 1515.9,1.6 L 1513.1,0.3 L 1512.6,-1.1 L 1515.0,-2.9 Z M 1505.9,-6.5 L 1504.4,-7.2 L 1504.6,-8.7 L 1506.2,-10.2 L 1508.9,-10.8 L 1514.8,-10.8 L 1516.3,-10.3 L 1515.0,-9.0 L 1518.7,-7.7 L 1518.7,-7.2 L 1513.9,-7.2 L 1516.4,-5.4 L 1516.4,-4.7 L 1513.2,-4.5 Z M 1497.9,-13.2 L 1497.6,-12.3 L 1490.9,-13.4 L 1485.5,-15.2 L 1489.2,-16.2 L 1495.8,-16.3 L 1498.6,-16.0 L 1500.4,-15.0 Z M 350.3,-59.5 L 350.7,-59.0 L 351.6,-58.8 L 354.5,-59.4 L 355.3,-59.2 L 351.8,-58.0 L 350.9,-57.4 L 351.7,-56.8 L 350.0,-55.5 L 348.6,-52.5 L 346.9,-50.1 L 346.1,-49.7 L 344.2,-49.5 L 342.1,-49.6 L 340.5,-51.3 L 334.0,-55.6 L 331.2,-58.5 L 332.0,-60.4 L 332.0,-61.1 L 330.6,-61.1 L 330.6,-61.7 L 333.2,-63.5 L 337.8,-62.3 L 343.5,-62.4 L 348.3,-62.1 Z M 323.4,-70.1 L 323.5,-67.2 L 324.5,-63.7 L 323.4,-62.3 L 320.6,-61.8 L 316.9,-61.9 L 314.3,-62.5 L 314.7,-63.5 L 314.7,-64.0 L 310.3,-65.8 L 308.9,-66.9 L 309.8,-68.3 L 312.6,-69.0 L 320.6,-69.7 Z M 1333.4,-203.4 L 1331.6,-203.8 L 1328.9,-203.7 L 1326.0,-203.3 L 1323.6,-202.7 L 1316.3,-204.6 L 1317.5,-206.3 L 1318.5,-207.1 L 1320.0,-207.6 L 1319.5,-207.9 L 1318.7,-208.8 L 1322.4,-208.8 L 1333.7,-207.2 L 1337.2,-206.4 L 1336.6,-205.8 L 1336.6,-205.3 L 1337.2,-204.6 L 1335.9,-204.3 Z M 317.9,-234.8 L 313.6,-233.6 L 313.6,-231.2 L 312.8,-229.2 L 306.2,-229.4 L 307.6,-230.2 L 308.4,-231.0 L 308.6,-231.9 L 308.6,-232.7 L 309.6,-233.5 L 311.9,-234.4 L 315.4,-235.5 L 318.0,-235.9 L 318.4,-239.1 L 319.6,-239.2 L 322.8,-239.1 L 327.1,-240.9 L 327.0,-240.2 L 327.4,-239.7 L 328.2,-239.1 L 329.9,-238.4 L 330.4,-237.4 L 329.8,-236.3 L 328.2,-235.5 Z M 589.7,-190.6 L 594.7,-188.8 L 595.8,-188.2 L 595.8,-187.3 L 593.8,-185.8 L 593.2,-184.9 L 592.6,-183.0 L 591.1,-181.6 L 587.1,-179.2 L 584.2,-175.9 L 582.0,-174.7 L 578.0,-174.3 L 575.4,-173.8 L 573.3,-172.6 L 570.1,-170.0 L 567.8,-169.0 L 563.4,-167.6 L 561.4,-166.4 L 559.9,-164.6 L 560.8,-158.7 L 565.0,-154.2 L 566.9,-153.0 L 569.5,-152.5 L 571.0,-152.1 L 575.0,-149.9 L 578.9,-148.8 L 578.6,-147.5 L 571.9,-140.8 L 570.9,-138.0 L 572.5,-135.5 L 573.6,-135.8 L 574.9,-136.1 L 575.9,-136.1 L 576.3,-135.5 L 575.7,-134.7 L 572.5,-134.3 L 571.2,-133.1 L 570.3,-132.0 L 570.2,-131.0 L 571.3,-130.1 L 570.1,-130.1 L 570.1,-129.5 L 572.5,-128.9 L 572.5,-128.3 L 570.3,-127.2 L 568.8,-125.4 L 567.8,-123.2 L 567.5,-121.0 L 568.9,-116.5 L 564.4,-110.7 L 564.0,-109.5 L 565.2,-105.6 L 564.7,-103.1 L 560.3,-97.4 L 563.3,-95.8 L 562.2,-93.0 L 557.8,-88.3 L 555.6,-84.5 L 555.3,-83.2 L 555.9,-81.9 L 557.3,-81.0 L 561.4,-79.8 L 561.4,-79.3 L 556.5,-78.6 L 552.0,-76.6 L 549.4,-74.1 L 550.4,-71.9 L 549.1,-71.1 L 551.6,-69.6 L 549.2,-66.2 L 547.7,-65.4 L 544.4,-64.9 L 541.4,-64.1 L 540.6,-62.3 L 539.2,-62.6 L 538.6,-62.9 L 538.7,-63.3 L 539.4,-64.0 L 536.7,-64.8 L 533.9,-65.0 L 527.1,-64.0 L 526.2,-64.8 L 524.6,-65.3 L 521.0,-65.9 L 509.6,-70.4 L 503.7,-71.4 L 501.4,-72.0 L 500.1,-72.6 L 498.9,-71.9 L 496.3,-72.5 L 493.0,-72.9 L 486.5,-73.2 L 483.1,-72.6 L 477.5,-69.6 L 472.3,-70.2 L 468.1,-71.7 L 460.8,-75.0 L 459.2,-74.5 L 454.7,-76.2 L 452.1,-76.4 L 450.3,-76.3 L 450.0,-76.0 L 452.4,-75.6 L 452.4,-75.0 L 451.5,-74.3 L 454.5,-73.1 L 461.2,-73.3 L 462.1,-72.9 L 462.1,-72.2 L 461.9,-71.8 L 454.7,-68.8 L 452.5,-67.6 L 451.0,-65.9 L 450.6,-64.0 L 451.1,-62.2 L 452.2,-60.6 L 453.5,-59.2 L 454.5,-58.6 L 455.6,-58.2 L 455.8,-57.6 L 453.0,-55.7 L 451.0,-52.6 L 452.4,-52.6 L 450.5,-52.1 L 449.9,-52.2 L 448.6,-52.6 L 447.1,-51.5 L 428.9,-44.4 L 427.7,-44.2 L 425.8,-44.1 L 421.5,-42.2 L 419.4,-42.5 L 416.9,-43.2 L 412.9,-44.7 L 412.9,-42.9 L 410.3,-44.6 L 406.0,-46.0 L 401.1,-46.9 L 397.0,-47.1 L 393.1,-46.4 L 388.4,-45.1 L 385.4,-43.4 L 386.0,-41.6 L 383.5,-41.0 L 382.3,-41.6 L 383.8,-43.3 L 382.1,-43.8 L 378.9,-43.8 L 376.1,-44.1 L 376.1,-44.7 L 378.8,-46.2 L 378.9,-48.4 L 376.7,-49.9 L 372.6,-49.5 L 371.2,-54.2 L 368.9,-58.0 L 367.5,-58.0 L 366.1,-57.6 L 361.9,-58.4 L 359.0,-58.6 L 359.8,-59.0 L 361.4,-60.4 L 359.0,-61.1 L 355.1,-60.1 L 352.0,-63.6 L 350.0,-64.1 L 347.9,-63.5 L 346.6,-67.7 L 345.4,-68.3 L 343.7,-68.7 L 342.6,-68.6 L 343.1,-67.7 L 342.0,-68.0 L 340.1,-70.8 L 336.7,-71.4 L 335.4,-72.6 L 335.2,-73.4 L 336.1,-74.0 L 345.0,-78.1 L 346.1,-79.7 L 343.1,-81.6 L 343.4,-83.0 L 337.1,-84.8 L 335.6,-86.5 L 340.5,-89.5 L 341.2,-90.8 L 338.0,-94.5 L 346.6,-99.4 L 349.6,-102.4 L 351.7,-104.0 L 350.3,-104.7 L 351.7,-105.9 L 347.9,-116.2 L 347.9,-116.8 L 348.6,-117.6 L 348.2,-119.9 L 348.5,-120.4 L 351.0,-120.2 L 352.6,-119.7 L 358.2,-116.3 L 361.2,-115.1 L 365.1,-114.5 L 370.0,-115.0 L 360.8,-116.1 L 359.0,-116.8 L 359.4,-118.3 L 366.3,-122.2 L 365.1,-122.2 L 364.5,-121.6 L 363.7,-121.1 L 362.7,-120.7 L 361.4,-120.4 L 363.5,-121.3 L 365.5,-122.8 L 367.0,-124.4 L 367.5,-125.6 L 368.1,-128.4 L 367.8,-129.4 L 366.3,-130.7 L 362.4,-132.5 L 357.2,-133.7 L 351.6,-133.8 L 346.6,-132.5 L 347.9,-131.9 L 348.5,-132.4 L 351.7,-132.5 L 349.6,-131.9 L 348.3,-131.1 L 346.6,-128.9 L 345.4,-129.5 L 347.0,-130.5 L 340.0,-133.0 L 339.3,-133.7 L 340.5,-136.1 L 339.1,-139.4 L 339.3,-140.4 L 341.5,-142.3 L 341.6,-143.4 L 339.3,-144.6 L 336.7,-144.1 L 336.2,-144.4 L 337.5,-145.1 L 340.5,-145.8 L 341.1,-145.8 L 346.5,-145.9 L 352.6,-146.9 L 354.5,-147.9 L 355.9,-149.3 L 356.4,-150.6 L 355.5,-151.8 L 352.4,-154.2 L 351.7,-155.8 L 351.0,-160.5 L 354.0,-164.6 L 353.9,-167.2 L 351.6,-169.2 L 347.7,-170.7 L 343.1,-171.9 L 341.8,-171.3 L 337.8,-172.5 L 337.4,-174.2 L 339.3,-178.8 L 338.6,-180.5 L 336.7,-182.8 L 334.1,-184.9 L 331.3,-185.8 L 328.1,-186.5 L 324.5,-192.5 L 320.9,-194.0 L 316.5,-193.9 L 307.4,-191.8 L 303.8,-192.5 L 305.4,-194.2 L 307.4,-195.5 L 303.3,-196.0 L 300.3,-195.0 L 298.4,-193.2 L 297.6,-191.2 L 296.1,-192.5 L 295.0,-193.8 L 293.8,-196.1 L 293.8,-196.6 L 296.9,-197.3 L 299.8,-198.1 L 301.8,-199.4 L 302.4,-201.5 L 304.0,-202.5 L 299.8,-203.0 L 294.8,-205.6 L 292.6,-205.8 L 306.2,-217.9 L 307.2,-219.3 L 307.4,-220.9 L 306.2,-222.2 L 303.1,-222.8 L 300.7,-223.4 L 301.3,-224.9 L 303.2,-226.6 L 304.9,-227.6 L 306.2,-227.6 L 306.7,-226.5 L 308.1,-226.4 L 309.7,-226.5 L 311.0,-225.8 L 309.7,-222.8 L 310.4,-221.8 L 318.4,-217.9 L 324.2,-216.6 L 344.2,-215.5 L 354.2,-214.4 L 358.4,-214.3 L 361.9,-214.5 L 375.8,-216.8 L 379.4,-217.9 L 382.3,-219.3 L 383.5,-220.6 L 395.7,-222.8 L 400.1,-222.8 L 403.2,-222.6 L 405.6,-222.2 L 416.0,-225.1 L 419.0,-226.4 L 425.4,-230.5 L 427.7,-231.2 L 426.5,-231.9 L 432.2,-232.7 L 433.9,-233.0 L 435.1,-233.6 L 437.0,-235.2 L 438.1,-235.5 L 440.4,-236.0 L 443.4,-237.1 L 446.1,-238.4 L 448.8,-240.5 L 452.2,-241.2 L 464.4,-241.7 L 467.1,-242.1 L 472.0,-243.9 L 473.2,-243.3 L 476.0,-244.7 L 477.0,-246.0 L 476.9,-249.7 L 478.4,-251.2 L 489.1,-253.0 L 489.4,-252.2 L 490.4,-251.8 L 492.0,-251.7 L 493.9,-251.8 L 495.8,-250.7 L 495.7,-247.6 L 497.6,-247.0 L 497.0,-248.5 L 497.6,-249.4 L 498.9,-249.4 L 499.6,-248.2 L 498.9,-247.0 L 503.7,-247.6 L 504.5,-247.1 L 507.4,-246.3 L 507.8,-248.5 L 510.8,-248.1 L 517.3,-245.7 L 517.3,-246.3 L 523.4,-245.7 L 523.4,-245.2 L 521.0,-243.9 L 523.0,-243.6 L 527.1,-241.5 L 526.0,-240.9 L 526.0,-240.0 L 527.1,-237.9 L 529.1,-239.7 L 530.2,-240.4 L 532.0,-240.9 L 529.5,-242.2 L 531.8,-242.7 L 538.8,-242.2 L 541.6,-243.0 L 543.1,-242.2 L 541.7,-241.5 L 545.6,-240.5 L 546.8,-240.9 L 548.0,-240.9 L 549.2,-240.3 L 549.0,-239.2 L 548.5,-238.3 L 547.4,-237.5 L 545.5,-236.6 L 544.3,-237.9 L 541.1,-232.6 L 539.4,-231.2 L 543.1,-231.2 L 541.7,-232.5 L 545.0,-233.0 L 547.0,-232.8 L 547.6,-232.0 L 546.8,-230.6 L 547.7,-230.6 L 548.0,-231.2 L 550.4,-230.6 L 553.1,-231.6 L 558.0,-231.5 L 563.2,-230.8 L 566.4,-230.0 L 564.4,-229.0 L 556.0,-230.0 L 553.0,-229.4 L 552.1,-228.0 L 551.4,-226.4 L 549.2,-225.2 L 550.1,-224.0 L 547.6,-223.7 L 539.4,-224.0 L 539.3,-223.5 L 539.6,-223.4 L 538.1,-223.3 L 539.5,-222.3 L 544.3,-222.8 L 550.4,-221.5 L 553.9,-221.8 L 556.6,-222.5 L 559.3,-223.0 L 562.8,-222.8 L 561.9,-222.0 L 560.9,-221.4 L 559.5,-221.0 L 557.8,-220.9 L 557.8,-220.3 L 564.2,-219.1 L 565.2,-218.8 L 565.6,-217.7 L 566.6,-217.2 L 568.1,-217.3 L 570.1,-217.9 L 571.3,-217.0 L 573.0,-216.5 L 575.1,-216.2 L 577.4,-216.1 L 571.5,-215.3 L 569.7,-214.7 L 571.3,-213.6 L 571.3,-213.0 L 568.6,-213.3 L 566.3,-212.9 L 565.6,-212.1 L 567.5,-211.2 L 567.7,-212.2 L 568.8,-211.1 L 573.8,-208.5 L 575.0,-207.3 L 575.7,-205.7 L 581.1,-201.5 L 583.3,-194.0 L 584.2,-193.3 L 585.3,-193.0 L 587.8,-192.8 Z M 787.3,-352.3 L 790.5,-351.3 L 793.0,-349.4 L 793.4,-348.2 L 795.2,-347.4 L 792.2,-346.3 L 789.7,-346.9 L 783.0,-349.4 L 781.2,-350.5 L 783.8,-351.2 L 783.7,-352.3 L 785.0,-352.8 Z M 706.3,-392.9 L 705.0,-392.2 L 704.1,-391.3 L 704.0,-390.3 L 705.1,-389.2 L 703.9,-387.7 L 702.1,-386.8 L 699.7,-386.1 L 696.5,-385.6 L 699.9,-385.1 L 703.0,-383.6 L 704.0,-382.0 L 701.3,-380.8 L 700.5,-381.6 L 695.2,-382.0 L 692.1,-384.4 L 689.8,-384.9 L 687.4,-385.7 L 685.1,-385.7 L 683.1,-383.8 L 681.4,-385.3 L 674.4,-383.9 L 670.8,-385.1 L 669.9,-383.7 L 669.0,-383.2 L 668.0,-383.1 L 653.2,-383.3 L 649.2,-383.8 L 646.0,-385.1 L 645.0,-387.4 L 646.9,-388.9 L 650.7,-389.9 L 655.2,-390.4 L 659.0,-390.5 L 667.1,-389.2 L 670.2,-389.1 L 674.5,-389.2 L 673.3,-389.9 L 675.6,-390.5 L 675.6,-391.2 L 675.6,-391.3 L 678.7,-391.1 L 685.4,-391.2 L 684.6,-389.9 L 686.5,-389.4 L 689.1,-389.4 L 695.2,-391.7 L 697.1,-394.0 L 698.5,-394.9 L 700.7,-395.3 L 702.5,-395.1 L 704.1,-394.5 L 705.4,-393.7 Z M 598.2,-412.3 L 600.9,-410.4 L 598.6,-408.7 L 595.2,-407.3 L 591.3,-407.2 L 588.3,-409.0 L 592.3,-412.4 L 595.7,-413.1 Z M 1048.1,-619.1 L 1051.7,-620.8 L 1054.8,-621.6 L 1058.1,-621.3 L 1062.3,-620.0 L 1060.0,-620.4 L 1057.6,-620.6 L 1052.5,-620.6 L 1042.6,-614.0 L 1042.4,-614.6 L 1043.8,-616.2 Z M 1139.1,223.4 L 1140.4,223.4 L 1141.6,223.9 L 1142.1,224.8 L 1141.4,225.1 L 1138.6,225.1 L 1137.5,224.8 L 1136.6,224.2 L 1136.8,223.7 L 1137.9,223.5 Z M 1405.3,-11.9 L 1404.7,-13.0 L 1407.3,-13.4 L 1407.9,-12.3 Z M 1446.5,-15.6 L 1448.1,-13.9 L 1446.0,-13.8 L 1442.1,-14.3 L 1440.7,-15.4 L 1440.4,-16.5 L 1441.1,-16.6 L 1444.3,-16.3 Z M 1194.5,-28.0 L 1197.4,-28.1 L 1199.3,-27.5 L 1199.5,-27.2 L 1195.8,-25.9 L 1193.8,-25.7 L 1191.7,-26.0 L 1191.6,-26.7 L 1192.5,-27.4 Z M 1563.2,-36.3 L 1564.4,-36.0 L 1565.2,-35.7 L 1564.9,-35.0 L 1561.3,-33.0 L 1559.3,-33.2 L 1555.9,-34.4 L 1560.4,-36.3 L 1561.5,-36.4 Z M 1239.2,-211.7 L 1240.1,-212.1 L 1241.5,-212.2 L 1240.6,-211.3 L 1238.5,-210.8 Z M 1096.4,255.4 L 1096.3,257.0 L 1094.5,257.2 L 1079.3,254.8 L 1080.7,254.4 L 1084.6,254.4 L 1086.6,254.6 L 1094.8,254.9 Z M 998.0,38.2 L 999.0,38.9 L 999.3,39.7 L 996.7,39.7 L 993.6,38.8 L 991.7,37.7 L 990.5,36.7 L 991.5,36.1 L 994.7,36.0 L 996.6,36.6 Z M 532.8,-250.6 L 533.4,-250.0 L 533.6,-249.6 L 533.6,-248.9 L 532.1,-246.5 L 532.7,-246.1 L 532.8,-245.6 L 532.0,-245.0 L 530.9,-245.0 L 529.5,-245.7 L 528.1,-246.2 L 526.9,-245.9 L 526.0,-246.2 L 528.0,-247.9 L 527.2,-248.5 L 527.7,-249.2 L 529.1,-250.4 L 530.1,-251.2 L 531.6,-251.1 Z M 524.9,-249.6 L 525.5,-249.3 L 525.7,-248.9 L 518.6,-248.4 L 515.3,-248.6 L 514.6,-249.4 L 514.6,-250.1 L 517.9,-251.0 L 518.7,-251.7 L 519.0,-252.4 L 522.0,-253.0 L 523.3,-252.8 L 524.3,-252.2 Z M 680.1,-348.6 L 681.7,-349.2 L 683.4,-348.3 L 683.0,-346.8 L 679.6,-347.1 Z M 643.3,-370.8 L 644.4,-369.7 L 644.0,-369.1 L 642.2,-368.7 L 639.7,-368.8 L 637.4,-369.0 L 635.9,-369.6 L 636.3,-370.2 L 638.1,-370.5 L 639.9,-371.2 L 641.1,-372.4 L 642.0,-372.5 L 642.6,-371.5 Z M 1044.2,-623.8 L 1047.3,-623.8 L 1050.2,-623.0 L 1049.9,-622.0 L 1048.2,-621.6 L 1045.5,-621.0 L 1042.5,-621.2 L 1041.8,-622.4 Z"/>
</g>
<path data-country="TUN" d="M 896.4,461.2 L 896.6,465.2 L 891.5,473.6 L 891.0,474.9 L 890.9,479.9 L 887.7,485.9 L 889.0,495.0 L 886.4,504.3 L 886.6,509.2 L 890.2,512.6 L 902.2,517.5 L 906.4,520.7 L 907.0,524.4 L 903.8,527.2 L 900.2,528.7 L 898.0,529.5 L 885.5,533.0 L 838.6,542.4 L 783.3,553.5 L 778.4,555.7 L 771.2,562.7 L 765.3,565.2 L 758.8,566.9 L 752.8,568.9 L 749.3,569.4 L 746.0,568.8 L 742.8,568.1 L 739.4,567.9 L 735.4,569.7 L 733.9,576.8 L 731.6,579.7 L 724.0,582.7 L 721.0,585.7 L 718.8,587.1 L 716.2,588.2 L 713.3,589.2 L 703.5,590.8 L 683.4,590.7 L 674.1,593.8 L 662.1,602.8 L 650.6,608.2 L 647.8,610.3 L 645.9,616.0 L 646.2,617.6 L 659.6,632.7 L 665.1,642.0 L 670.7,647.0 L 671.0,648.7 L 670.0,652.1 L 670.8,655.2 L 675.3,661.4 L 675.2,664.4 L 672.3,667.9 L 661.3,677.7 L 645.0,685.6 L 626.1,698.6 L 603.8,710.9 L 599.2,712.1 L 586.2,712.4 L 580.9,713.0 L 540.8,722.1 L 455.8,559.2 L 453.8,557.6 L 451.3,556.3 L 355.1,527.2 L 333.1,521.3 L 328.2,519.1 L 328.0,519.0 L 325.9,516.0 L 324.2,506.9 L 321.7,494.5 L 319.3,491.7 L 301.1,479.9 L 284.2,468.9 L 280.2,467.9 L 276.5,468.2 L 272.7,468.1 L 269.0,467.6 L 265.6,466.9 L 245.7,460.9 L 239.2,460.0 L 230.6,459.7 L 224.0,458.9 L 219.4,456.8 L 216.7,452.6 L 216.4,440.9 L 216.4,440.5 L 213.7,437.1 L 200.0,427.2 L 188.6,419.0 L 187.1,416.7 L 185.2,412.1 L 180.1,408.0 L 178.8,406.5 L 176.4,401.6 L 175.5,398.2 L 179.2,389.3 L 179.8,382.8 L 182.2,380.4 L 202.6,371.2 L 209.6,369.8 L 221.0,369.1 L 224.4,368.3 L 226.6,367.2 L 228.2,365.8 L 235.0,355.3 L 238.5,352.2 L 245.5,350.1 L 261.0,347.4 L 268.5,345.2 L 285.5,342.0 L 287.0,341.4 L 294.4,338.8 L 298.6,337.7 L 303.2,334.2 L 309.6,332.6 L 311.0,331.6 L 306.4,328.6 L 306.9,327.3 L 309.0,325.9 L 316.4,322.5 L 316.9,321.3 L 313.6,312.4 L 313.2,309.1 L 315.0,305.7 L 319.3,301.0 L 322.5,294.5 L 324.8,291.4 L 333.3,287.6 L 344.1,280.8 L 345.9,279.1 L 339.7,277.2 L 332.3,276.2 L 325.5,274.9 L 321.4,271.7 L 320.2,268.1 L 320.6,264.9 L 322.5,261.8 L 329.0,255.5 L 329.0,252.9 L 327.3,245.6 L 326.6,242.8 L 323.6,239.9 L 314.8,234.2 L 312.7,231.1 L 311.9,227.3 L 312.9,220.3 L 316.7,214.8 L 317.5,213.7 L 318.0,208.8 L 321.8,202.3 L 323.8,200.9 L 325.4,199.2 L 322.8,194.2 L 323.7,190.6 L 332.1,181.1 L 332.7,174.1 L 331.2,172.4 L 321.6,170.7 L 306.1,169.9 L 298.7,168.7 L 298.7,168.6 L 299.1,165.6 L 303.3,163.6 L 308.5,162.3 L 320.0,160.5 L 341.7,155.3 L 345.7,153.5 L 349.8,150.4 L 351.4,147.3 L 347.8,145.5 L 341.5,144.2 L 342.6,142.8 L 348.2,141.7 L 355.1,141.4 L 361.8,141.6 L 368.0,141.1 L 380.4,139.1 L 383.6,138.2 L 383.7,137.1 L 377.6,133.4 L 376.6,129.1 L 379.9,128.5 L 392.6,126.4 L 397.0,126.1 L 412.3,126.1 L 416.3,125.5 L 423.7,123.0 L 429.1,122.1 L 430.5,121.8 L 434.5,120.3 L 440.0,117.6 L 445.5,113.4 L 447.9,112.8 L 449.7,112.4 L 454.7,110.3 L 476.3,106.7 L 478.5,106.2 L 482.2,103.7 L 485.5,103.1 L 509.1,102.9 L 515.9,101.9 L 520.3,100.0 L 522.8,99.3 L 525.2,99.7 L 527.1,100.2 L 529.1,100.0 L 540.4,98.4 L 544.2,97.4 L 546.8,96.4 L 550.4,97.2 L 553.7,97.0 L 560.3,95.2 L 564.0,94.4 L 567.1,94.1 L 575.0,94.0 L 578.9,93.4 L 581.1,93.2 L 586.3,94.5 L 601.6,94.7 L 602.1,99.8 L 596.6,101.5 L 589.7,102.7 L 586.0,104.9 L 586.6,105.5 L 589.4,108.0 L 590.3,108.5 L 591.3,108.8 L 592.4,110.0 L 593.9,110.3 L 601.7,110.7 L 605.4,110.5 L 609.3,109.2 L 611.5,108.0 L 613.5,106.3 L 613.4,104.9 L 602.0,103.1 L 594.6,103.6 L 594.6,103.1 L 598.9,101.9 L 600.6,101.7 L 603.1,100.6 L 605.8,100.4 L 623.3,102.0 L 626.5,101.9 L 636.1,100.2 L 637.6,100.3 L 640.5,102.1 L 653.1,102.8 L 658.9,104.9 L 672.2,106.8 L 675.6,107.9 L 669.9,108.5 L 667.2,109.0 L 664.7,109.7 L 663.7,108.2 L 658.7,108.0 L 653.0,108.6 L 649.8,109.7 L 651.1,111.1 L 655.8,111.8 L 661.2,111.9 L 664.7,111.6 L 665.9,112.3 L 667.5,113.3 L 668.1,114.2 L 667.1,115.2 L 665.8,114.0 L 658.1,117.0 L 659.5,121.3 L 666.3,125.8 L 674.5,129.1 L 681.2,130.4 L 683.1,130.9 L 687.2,133.3 L 689.0,134.3 L 688.1,135.3 L 684.0,137.0 L 682.3,138.8 L 680.4,139.5 L 677.9,139.6 L 675.6,138.8 L 676.9,137.5 L 675.3,137.1 L 672.2,137.3 L 666.4,138.1 L 664.6,138.6 L 661.5,140.3 L 660.6,141.6 L 663.2,142.0 L 668.8,142.1 L 671.1,142.6 L 675.6,140.0 L 679.5,143.4 L 684.2,145.9 L 690.5,147.5 L 699.0,147.9 L 701.5,147.6 L 705.1,147.7 L 714.2,145.8 L 719.8,145.3 L 723.3,143.9 L 728.4,135.8 L 731.6,134.7 L 735.4,134.4 L 743.7,134.6 L 751.3,134.0 L 758.2,132.9 L 767.1,130.4 L 772.7,128.1 L 774.3,127.8 L 775.0,127.0 L 775.5,126.5 L 785.8,123.2 L 787.3,122.5 L 787.8,121.5 L 787.1,120.9 L 786.8,120.3 L 788.4,119.4 L 792.3,118.7 L 801.3,118.3 L 808.2,116.2 L 811.9,116.0 L 815.1,116.6 L 816.8,118.2 L 816.5,119.0 L 814.7,120.0 L 814.2,120.9 L 814.6,121.9 L 817.4,124.6 L 820.5,126.4 L 821.7,127.3 L 822.9,130.9 L 830.4,135.2 L 829.4,136.6 L 826.9,138.0 L 819.7,139.2 L 809.9,142.4 L 804.6,146.3 L 797.0,150.8 L 784.4,160.1 L 774.7,169.7 L 770.1,172.2 L 755.3,173.7 L 738.0,177.6 L 731.7,176.9 L 725.5,178.8 L 719.8,182.3 L 717.3,185.6 L 714.8,189.3 L 712.7,192.9 L 712.3,197.5 L 711.9,202.2 L 712.8,205.1 L 719.7,213.9 L 723.7,216.3 L 726.5,217.6 L 729.0,218.1 L 731.2,219.0 L 735.9,224.8 L 738.3,226.0 L 750.7,230.7 L 751.1,230.8 L 754.6,231.6 L 760.1,232.4 L 770.8,230.9 L 772.6,231.1 L 774.3,231.5 L 777.6,232.7 L 775.6,233.9 L 774.5,235.7 L 775.5,237.4 L 777.5,238.7 L 784.8,240.1 L 800.9,242.7 L 808.1,242.3 L 813.3,244.1 L 815.8,246.2 L 809.0,247.2 L 808.1,249.3 L 808.5,250.7 L 808.6,251.4 L 810.3,253.3 L 813.0,254.6 L 821.2,255.7 L 816.3,257.5 L 815.0,259.8 L 814.1,262.0 L 814.8,265.9 L 812.6,267.7 L 813.5,270.9 L 817.8,273.7 L 824.1,276.9 L 834.8,279.4 L 834.5,281.1 L 829.5,281.2 L 826.0,282.3 L 822.5,285.1 L 817.2,286.9 L 814.7,288.9 L 812.2,291.0 L 808.8,292.3 L 810.0,294.8 L 809.2,297.4 L 803.2,300.5 L 796.3,301.9 L 791.2,304.2 L 792.5,306.3 L 791.0,308.1 L 791.0,311.6 L 783.7,313.8 L 780.2,315.4 L 782.2,317.2 L 782.9,318.4 L 776.4,319.6 L 772.2,320.9 L 766.4,323.5 L 763.6,325.8 L 760.1,327.1 L 758.5,328.7 L 755.3,330.1 L 752.5,330.9 L 740.5,332.5 L 738.9,332.9 L 735.7,336.4 L 733.8,340.7 L 731.0,341.8 L 727.1,342.6 L 710.3,343.6 L 704.2,345.0 L 694.7,351.4 L 686.0,352.4 L 680.6,351.9 L 678.5,352.3 L 671.1,356.0 L 649.6,360.1 L 645.2,362.0 L 642.9,364.7 L 636.5,370.0 L 632.7,372.5 L 627.8,373.8 L 629.5,375.3 L 630.2,377.0 L 630.1,380.7 L 630.7,382.4 L 635.6,390.3 L 639.6,393.6 L 656.1,403.3 L 657.8,404.0 L 660.3,404.6 L 686.0,415.1 L 692.7,416.8 L 706.8,419.3 L 709.3,419.5 L 714.5,420.0 L 726.9,419.3 L 740.4,417.7 L 751.8,415.1 L 755.2,414.7 L 759.4,417.9 L 758.9,423.9 L 753.6,425.8 L 750.7,426.3 L 748.5,427.5 L 747.6,429.0 L 748.6,430.4 L 752.9,433.4 L 755.3,434.5 L 759.1,435.0 L 766.7,434.3 L 780.2,430.9 L 786.7,430.1 L 789.7,429.5 L 792.6,428.2 L 793.9,426.5 L 792.8,425.0 L 789.7,423.5 L 789.2,422.7 L 794.5,421.0 L 796.6,421.6 L 798.9,421.7 L 800.9,421.4 L 802.0,420.4 L 803.2,420.4 L 806.1,421.2 L 813.6,422.6 L 816.8,423.4 L 819.1,424.7 L 825.3,428.6 L 826.0,429.5 L 826.9,433.9 L 822.1,437.1 L 825.8,442.5 L 824.3,445.0 L 829.5,444.4 L 833.0,445.9 L 836.5,447.9 L 858.6,451.9 L 856.1,452.5 L 838.5,450.1 L 829.9,449.7 L 827.8,452.5 L 835.2,455.8 L 836.4,457.7 L 838.1,458.6 L 842.1,458.5 L 849.9,458.0 L 857.5,458.6 L 872.6,461.0 L 880.6,461.0 L 883.5,460.1 L 882.6,458.9 L 874.3,456.8 L 871.8,455.5 L 869.0,454.3 L 885.2,459.1 Z M 804.4,402.8 L 814.7,405.2 L 816.8,406.4 L 804.9,411.0 L 801.9,411.5 L 800.8,411.9 L 800.0,412.7 L 798.2,415.5 L 797.1,415.5 L 797.7,413.2 L 798.2,412.5 L 795.4,412.9 L 793.2,415.6 L 789.9,417.7 L 786.9,419.0 L 785.9,420.6 L 782.9,419.4 L 782.8,417.8 L 783.9,416.4 L 780.7,414.4 L 777.7,413.8 L 774.8,412.7 L 771.7,412.3 L 768.4,413.7 L 766.9,415.0 L 763.6,415.3 L 759.4,414.0 L 758.3,412.6 L 757.2,410.2 L 757.3,407.9 L 760.8,405.4 L 758.6,401.8 L 758.7,399.0 L 765.3,398.0 L 779.9,399.3 L 787.7,399.5 L 793.4,398.0 L 798.8,400.7 Z M 799.5,330.8 L 801.3,330.2 L 803.7,329.5 L 824.1,329.5 L 825.8,330.6 L 823.1,331.7 L 815.9,334.0 L 812.5,333.7 Z M 853.6,320.5 L 855.2,320.8 L 856.2,321.4 L 860.6,323.2 L 859.2,324.4 L 841.7,327.4 L 832.7,329.7 L 829.4,330.2 L 827.9,328.7 L 836.5,324.4 L 837.0,321.9 L 838.4,321.5 L 838.8,322.4 L 841.5,323.1 L 845.8,322.8 L 846.1,320.8 L 844.9,319.8 L 851.5,315.9 L 854.5,316.6 L 859.6,316.9 L 860.4,317.7 L 855.8,318.3 L 855.1,318.9 L 854.0,319.4 Z" fill="url(#land)" fill-rule="evenodd" stroke="#31576a" stroke-width="1.5" stroke-linejoin="round" stroke-linecap="round" filter="url(#shadow)"/>
</svg>
